<?xml version="1.0" encoding="utf-8"?>
<!-- Generator: Adobe Illustrator 23.0.1, SVG Export Plug-In . SVG Version: 6.00 Build 0)  -->
<svg version="1.1" id="레이어_1" xmlns="http://www.w3.org/2000/svg" xmlns:xlink="http://www.w3.org/1999/xlink" x="0px"
	 y="0px" viewBox="0 0 595.3 841.9" enable-background="new 0 0 595.3 841.9" xml:space="preserve">
<path fill="#CAC6BD" d="M142.1,657.7v26.9l-2.1,13.9l94.9,39l99.8,5.4l71.9-15.4l52-20.3l12.2-19.3l0.3-9.4v-112l1.4-113.7
	c0,0-40.2,37.3-112,43c-71.7,5.7-105.5-0.8-105.5-0.8s-62.7-3.1-112-44.7L142.1,657.7z"/>
<path fill="#AB4043" d="M140.8,217.3v234.8c0,0,28.4,32.5,112.8,44.3h105.3c0,0,67.7-3.1,109.2-43.2l1.7-2.7l2.5-229.2l-1.7,1.4
	c0,0-0.2-1.2-1-0.9c-0.8,0.3-39.1,20.5-66.8,23.1c-27.7,2.6-112.4,4.9-112.4,4.9l-101-13.9l-34.6-16L140.8,217.3z"/>
<path fill="#AB4043" d="M143,219.8v234.8c0,0,28.4,32.5,112.8,44.3h105.3c0,0,67.7-3.1,109.2-43.2l1.7-2.7l2.5-229.2l-1.7,1.4
	c0,0-0.2-1.2-1-0.9s-39.1,20.5-66.8,23.1c-27.7,2.6-112.4,4.9-112.4,4.9l-101-13.9l-34.6-16L143,219.8z"/>
<path fill="#C5C3BF" d="M214.9,249.3c0,0,51.2,14.4,159,3.6l23.1-7.8l2.9-9.4l-192.5-5.9l-3.1,13.5L214.9,249.3z"/>
<path fill="#434241" d="M210.6,238.3c0,0-3.5,1.5-1.4,3.5c2,2,3.7,3.6,13.1,5.5c9.4,1.9,18.8,3.6,21.8,3.8c0,0,3.7,0.1,3.9,3.5
	c0,0-66.5-5.7-105.1-34.1c0,0-15.4-9.1-10.9-30.8c0,0,5.5-13.6,28.2-26.1s65.4-21.4,79.8-22.2s67.3-2.2,70.8-2.1s22.4,1.5,26.3,1.8
	c3.9,0.3,25,2.8,28.1,3.1c3.1,0.3,75.7,11.7,88.5,20.2c0,0,32.3,12.1,32.9,30.9c0,0,0.8,10.9-11.2,22.9c-12.1,12-36.9,28.6-108,35.3
	c0,0-18.1,3.5-17.6,1s13.4-1.8,22.3-3.9c9-2,24.1-6.3,25.5-9.8C397.5,241,292.8,255.4,210.6,238.3z"/>
<path fill="#C1C1BC" d="M169.6,229.3c0,0-1,1.5,2.3,3.8c2.8,2,5.5,4.2,8.9,5.2c1,0.3,2.2,0.5,3.3,0.4c0.6,0,1.1-0.1,1.4-0.7
	c0.3-0.7,0.2-1.5-0.3-2.1c-1-1.3-2.2-2.6-5.6-3.5C176.3,231.5,170.2,228.7,169.6,229.3z"/>
<path fill="#C1C1BC" d="M401.5,240.7c0,0,0.9,1.2-0.2,2.1s-1.4,1.5-1.4,1.5s5.3,0.6,8.7-2.6s2.3-3.3,2.3-3.4
	C410.9,238.2,401.5,240.7,401.5,240.7z"/>
<path fill="#C1C1BC" d="M458.5,223.3c0,0-4.2,1.7-4.2,4.2c0.1,2.5,7.3-1.1,11.6-4.7s5.9-4.8,5.9-4.8v-3
	C471.8,214.9,464.1,220.8,458.5,223.3z"/>
<path fill="#C2C3BE" d="M317.1,245c0,0,36.6-0.6,37.9-1.5c1.3-0.9,18.1-1.1,18.6-1.6s-0.8-0.9,6.4-1.6s46.5-5,64.8-13.9
	s38.6-17.3,38.3-33.5c-0.3-16.2-41.3-32.4-54.1-35.1s-60.5-14.2-110.7-16.4c0,0-40.9-0.2-42.2,0c-1.3,0.2-6.1,0.5-6.7,0.7
	s-7,0.6-10.8,0.5c0,0-5.5,0.9-7.9,1s-12.9-0.9-47.7,6.8c0,0-35.4,11.1-45.9,17.9c-10.5,6.8-19.1,8.9-22.2,29.1
	c-3.1,20.2,47.9,34.8,74.6,39.1s42.4,5.3,46.8,5.4c0,0,0,0.1,0.4,0.6s19,1.3,19.6,1.5c0.5,0.3,0.5,0.3,0.5,0.3
	S309.4,245.5,317.1,245z"/>
<path fill="#434241" d="M142.9,186.3c-1.4,3.1-2.1,6.6-1.3,9.9c0.4,1.8,1.2,3.6,2.1,5.1c5.1,8.6,18.4,20.7,78.9,32.6
	c0,0,49.7,5.8,92,5.9s88.4-5.8,97-7.8s42.5-9.9,49-17.1c0,0,15.8-7.5,15.8-21.7c0-14.2-30-24.7-34.9-26.8s-47.8-16.3-98.3-20
	c0,0-25-3-40.2-2.4c-15.2,0.6-58.6,1.6-60.6,2.7c-2,1.2-4.7,0-6,0.4s-2.7,0.9-6.1,1.4c-3.4,0.4-45.6,8.9-60,16.5
	c-5,2.6-10,5.2-14.7,8.2c-3.6,2.3-7,4.9-9.7,8.2C144.8,182.9,143.7,184.6,142.9,186.3z"/>
<path fill="#C1C1BC" d="M164.8,170.3c0,0-11.3,5.6-11.9,8.7c-0.6,3.1,0.7,8,5.5,4.9c4.7-3.1,5.6-3.6,5.7-6.3
	C164.1,174.9,163.8,171.1,164.8,170.3z"/>
<path fill="#C1C1BC" d="M201.3,156.7c0,0-6.4,1.3-6.4,3.1c0,0,2.8,0.3,3.2,1s-0.5,3-1.1,3.4c-0.6,0.4-0.8,0.9,0.2,1.4
	c1,0.5,0.3,2.1,0.3,2.1s16.8-3.9,21-4.5c4.2-0.6,18.6-4.1,20.3-4.2s2.4-0.1,2.4-0.6c0-0.5-0.9-0.6-1.9-0.6c-1,0-2.7,0.1-2.8-0.8
	c-0.1-0.9,2.8-1.6,3.8-1.9c1-0.3,1.2-0.7,1.1-1.1c-0.1-0.4-1.4-1-2.4-0.7c-1,0.2-3.1,0.4-3.1-0.5c0-0.9,0.9-1.6,3.1-1.6
	c2.2,0,2.3-1,2.3-1.4c-0.1-0.4-2.8-0.6-6.7-0.2C230.6,150,206.9,155.2,201.3,156.7z"/>
<path fill="#C1C1BC" d="M270.9,148.4c0,0-0.7,1,0,0.9c0.7,0,15.5-0.5,17.8-0.5s5.1,0.4,5.1-0.5c-0.1-0.8-2-0.5-6.1-0.6
	s-10.6-0.2-10.7,0c0,0,0.6,0.8-0.5,0.7C275.5,148.5,270.9,148.4,270.9,148.4z"/>
<path fill="#C1C1BC" d="M271,150.5c0,0-1.1,2.2-0.4,2.2s22.9,0,22.9,0s0.2,0.1,0.3-0.8c0.1-0.9-0.2-0.9-1.2-0.9
	C291.7,151,271,150.5,271,150.5z"/>
<path fill="#C1C1BC" d="M270.4,156c0,0-0.8,0.7,0.8,0.7c1.6-0.1,9.6,0.2,9.9-0.3c0,0,11.4-0.1,11.4-0.3s0.6-0.7-1.1-0.7
	c-1.7,0-10.4,0.2-10.6,0.4c-0.2,0.2-10.1,0.3-10.1,0.3L270.4,156z"/>
<path fill="#C1C1BC" d="M370.2,152.4c0,0,0.2,2.5-0.3,2.9c-0.6,0.4-0.5,5.2,0,5.1c0.5-0.2,15.1,1.6,15.1,0.9c0-0.6-0.5-1.8,0.6-2
	c1.1-0.2,2.4-0.1,2.4-0.6s-1.8-0.2-2.2-1.2s-0.5-1.2-0.5-1.2s5.9-0.4,7.2,0.7c0,0,0.8-0.2,0-0.9c-0.8-0.7-3-1.2-5.4-1.7
	C384.7,154,371.5,151.9,370.2,152.4z"/>
<path fill="#C1C1BC" d="M441.4,170c0,0-1.4,6.3-0.8,6.6c0.5,0.3,22.4,9.8,26.8,15.7c0,0,1.1,0.3,0.3-2c-0.8-2.3-7-6.8-6.8-8.3
	c0.2-1.6,0.4-3.1,0.4-3.1s0.9-0.4-1.5-1.6c-0.1-0.1-0.3-0.1-0.4-0.2c-0.2-0.1-0.4-0.2-0.5-0.3c-0.2-0.1-0.4-0.2-0.6-0.3
	c-0.2-0.1-0.5-0.3-0.7-0.4c-0.3-0.1-0.6-0.3-0.8-0.4c-0.3-0.2-0.6-0.3-0.9-0.5c-0.3-0.2-0.6-0.3-1-0.5c-0.3-0.2-0.7-0.3-1-0.5
	c-0.3-0.2-0.7-0.3-1-0.5c-0.4-0.2-0.7-0.4-1.1-0.5c-0.4-0.2-0.7-0.3-1.1-0.5c-0.4-0.2-0.7-0.3-1.1-0.5c-0.3-0.2-0.7-0.3-1-0.5
	c-0.3-0.2-0.7-0.3-1-0.5c-0.3-0.1-0.6-0.3-1-0.4c-0.3-0.1-0.6-0.3-0.9-0.4c-0.3-0.1-0.6-0.2-0.8-0.3c-0.2-0.1-0.5-0.2-0.7-0.3
	c-0.2-0.1-0.4-0.1-0.6-0.2c-0.2-0.1-0.5-0.1-0.7-0.2c-0.2-0.1-0.5-0.1-0.7-0.1c-0.2,0-0.4,0.2-0.5,0.3c0,0.1-0.1,0.2-0.1,0.2
	C441.5,169.8,441.4,169.9,441.4,170z"/>
<path fill="#C1C1BC" d="M462.2,210.7c0,0,7.7-7.3,5.5-13.3c-2.2-6-21.4-17.5-43.1-23.3c-21.7-5.9-28.9-6.9-33.1-7.8
	c-4.2-0.9-29.6-4.4-33.4-4.2c-3.8,0.2-2.6-0.6-2.6-0.6s-4.2-0.5-7.8-0.8c-3.5-0.3-33.4-4.2-76-1.2c0,0-24.3-0.3-46.8,4.7
	s-58.5,11.7-79.1,34.4c0,0-1.3,0.1-0.4,1.6c0.9,1.5,2.5,12.2,43.1,23.3c0,0-14.6-11.2-5.7-25.1c8.9-13.9,32.3-19.2,56.5-23.7
	s58.2-6.5,83.1-4.6c0,0,50.9,1.5,80.7,12.1s42.3,22.2,30.2,41.4c0,0,18-6.2,18.6-6.2c0,0-0.6-0.3-0.6-0.8c0-0.5,4.2-19.5-23.5-30.9
	c0,0-15.1-8.2-64.2-17.1c0,0-41.1-6.4-80.8-4.2c-39.7,2.2-57.8,4.3-77.4,11s-30.8,10.9-38.6,19.2c-7.8,8.3-5.3,11.4-6.1,13.3
	c-0.2,0.3-0.5,0.6-0.9,0.8c-1,0.3-1.2-1.1-1.5-1.7c-0.1-0.2-0.1-0.4-0.2-0.6c-0.2-0.7-0.4-1.5-0.5-2.2c-0.1-1-0.1-2.1-0.1-3.1
	c0.1-1.3,0.4-2.6,0.8-3.8c0.5-1.5,1.3-2.9,2.3-4.2c0.1-0.2,0.2-0.4,0.4-0.5c5.8-7.4,17.4-18,66-26c0,0,21.1-2.7,28.2-3.4
	c7.1-0.6,42.4-2.2,45.5-2.2c3.1,0,34.3,0.9,38.4,1.6c4.1,0.6,10.8,1.6,12.8,1.7c2,0.1,30.8,4.4,37.6,5.7c6.8,1.3,54.2,9,68.6,29.5
	C458.2,199.3,462.5,205.6,462.2,210.7z"/>
<path fill="#C1C1BC" d="M422.6,180.7c0,0,15.3,5.9,21.7,13.1c6.4,7.1,11.1,13.4,9.4,22.7l4.7-3c0,0,1-8.8-2.8-12.1
	c0,0-1.4-0.4-1.1-1.7c0,0-1.3-0.7-1.6-1.8c-0.3-1-13.8-13.7-23.9-15.6C429.1,182.2,423.7,180.2,422.6,180.7z"/>
<path fill="#C1C1BC" d="M413.9,188.5c0,0,8.8,5.7,9.3,6.9c0,0,1.3-0.8,1.3-1.2C424.4,193.7,416.3,188.8,413.9,188.5z"/>
<path fill="#C1C1BC" d="M426.8,197c0,0-2.5-0.8-1.7,0.4c0.8,1.2,4.1,6.2,4.2,8.4c0.1,2.2,2.9,1.3,3.1,1.4c0.2,0.1,1.6,0.2,0.4-2.3
	C431.5,202.4,428.4,197.2,426.8,197z"/>
<path fill="#C1C1BC" d="M429.9,209.1c0,0-0.1,11.9-9.8,17.6c0,0,6.4-1,7.2-2c0.8-1,2.9-3.4,3.2-4c0,0,0.7,0.3,0.8,0.1
	c0,0,0.1-0.1,0.1-0.2c0-0.1,0.1-0.1,0.1-0.2c0-0.1,0.1-0.2,0.1-0.3c0.1-0.1,0.1-0.3,0.2-0.4c0.1-0.2,0.2-0.4,0.2-0.5
	c0.1-0.2,0.2-0.4,0.3-0.6c0.1-0.2,0.2-0.5,0.3-0.7c0.1-0.2,0.2-0.5,0.2-0.7c0.1-0.3,0.1-0.5,0.2-0.8c0.1-0.3,0.1-0.5,0.2-0.8
	c0-0.3,0.1-0.5,0.1-0.8c0-0.3,0.1-0.5,0.1-0.8c0-0.3,0.1-0.5,0.1-0.8c0-0.3,0-0.5,0-0.8c0-0.2,0-0.5-0.1-0.7c0-0.2-0.1-0.5-0.2-0.7
	c-0.1-0.2-0.2-0.4-0.3-0.6c-0.1-0.2-0.3-0.3-0.5-0.5c-0.2-0.1-0.4-0.3-0.6-0.4c-0.2-0.1-0.5-0.2-0.7-0.3c-0.1,0-0.1-0.1-0.2-0.1
	c-0.1,0-0.1,0-0.2-0.1C430.8,209.1,429.9,208.7,429.9,209.1z"/>
<path fill="#C1C1BC" d="M399.9,230.8c0,0,6.7-0.5,7.9-0.9c1.2-0.4,4.1-1.5,5.2-1.3c0,0,17.9-9.8,12.7-24
	c-5.1-14.2-32.1-20.8-33.7-21.3s-23.9-9.7-61.8-9.8c0,0-16.2-0.9-21.4-0.7c-5.2,0.2-40.6,0.7-48.3,1.7c-7.7,0.9-54,8.1-64.5,22.3
	c-7.4,12.2-0.1,23.1,12.8,32.3l12.4,2.4c0,0-17.6-8.8-16.5-22.8c1.2-13.9,16.3-17.1,18-17.9c1.8-0.7,17.9-6.8,26.3-7.9
	c8.4-1.2,54.5-6.3,72-4.7c0,0,46.5,4.2,59.5,9.1s35.2,13.6,34.6,24C414.6,221.8,404.9,229.5,399.9,230.8z"/>
<path fill="#C1C1BC" d="M407.2,207.3c0,0,2.7,8.8-4.6,14.5c-7.3,5.7-15.1,8.9-23.8,10.9c0,0,13.3,0.8,25.7-8.6c0,0,6.8-6.2,6.2-12.9
	c0,0-2-3.9-3.2-4.2C407.4,207,407,206.8,407.2,207.3z"/>
<path fill="#C1C1BC" d="M194.1,225l9.4,2.4c0,0-14.5-11.3-13.4-21.2s2.6-6.7,3-9.1c0.3-2.4-6.5-0.6-8.8,2.6
	C182.1,202.9,178.6,215,194.1,225z"/>
<path fill="#C1C1BC" d="M194.7,191.6l-3.3,2.1c0,0,3.7,0.2,3.6,0.6c-0.1,0.4-0.4,0.8,0,0.5c0.4-0.3,2.9-2.7,2.8-3
	c-0.1-0.3-0.5-0.5-0.8,0.2L194.7,191.6z"/>
<path fill="#C1C1BC" d="M214.1,205.8c0,0-4.4,11.6,9.6,20.8c0,0,2.2,1.5-0.9,1.9c-3.1,0.4-12-6.6-14.3-12.4
	c-2.3-5.8-1.4-15.6,3.1-16.4C216.1,198.9,214.1,205.8,214.1,205.8z"/>
<path fill="#C1C1BC" d="M223.2,193.5c0,0-1.2,0.6-1.1,0.7c0.1,0.2,1.4,0.1,1.6,0.2c0.2,0.1-0.2,1,0.5,0.8c0.7-0.2,0.6-0.4,2.8-1.5
	c2.2-1,5.4-1.8,5.8-3.9c0,0-0.1-0.4-1,0.2C230.9,190.8,223.2,193.5,223.2,193.5z"/>
<path fill="#C1C1BC" d="M217.3,205.1c0,0-11.6,17.1,29.4,27.8c0,0,34.7,6.6,84.6,4.9c0,0,35.1-2.4,50.9-9.4c0,0,18.5-5,21.3-13.1
	c2.8-8.1-6-15.8-16.1-20c-10.2-4.1-22.6-10.1-63.7-13c-41-2.8-72.4,4.7-78.3,6.5S221.4,197.1,217.3,205.1z"/>
<g>
	<g>
		<path fill="#434241" d="M2326,429.6c3.2,0,3.2-5,0-5C2322.8,424.6,2322.8,429.6,2326,429.6L2326,429.6z"/>
	</g>
</g>
<polygon fill="#434241" points="141.9,219.5 143.9,219.5 142.2,674.5 140,674.5 140.7,220.4 140.7,218.6 "/>
<path fill="#434241" d="M475.2,214.9l-3.5,169.5v191.9c0,0,0.6,12.3,0,16.4c-0.6,4.1-0.6,80.5,0,87.5c0.6,6.9-2.8,5.7-2.8,5.7
	s-2.4-9.1,0-20.1c0,0-0.5-0.9-0.8-2.2c-0.4-1.3-2-29-1-31.4c0,0-0.2-18.5,0.3-20.9c0.5-2.4,0.8-25.7,0.8-25.9s0-24.5-0.3-28.8
	c-0.3-4.2,0-8.5,0-11c0-2.5-0.3-28.2,0.5-31.8c0,0,0-8-0.2-11.6c-0.2-3.6,0-42.3,1.1-46.7c0,0-1.3-82.4,0.2-86.8l2.4-149.6
	L475.2,214.9z"/>
<path fill="#434241" d="M140,674.5c0,0-0.2,1-0.5,1s-0.3,0.1-1,1.5c-0.7,1.4-5.1,7.3-5.6,9.4s-2.9,10.9,7.6,21.2s17.4,19,49.4,30.5
	s82.2,16.2,91,16.8s55.3,2.8,69.7,0c0,0,30.6-3.5,45.3-8c14.7-4.5,62.4-19.5,81.9-47.8c0,0,3.5-7.1-2.7-13.8
	c-6.2-6.7-4.7-7.2-4.7-7.2s-0.8,4.8-2.7,8.6s-3.3,13.8-33.7,27.4c0,0-16.5,7.3-21.4,8.4c-4.9,1-12.9,4.1-15.6,4.6s-8.3,1.2-10.9,1.7
	s-24.1,4.9-31.4,5.8c-7.2,0.8-31.5,3.9-51.5,2.9s-31.1-0.5-35.4-0.9c-4.3-0.4-23.1-2.4-28.8-3.8s-45.4-11-47.9-11.6
	c-2.5-0.6-34.9-9.4-46.7-29.5c0,0-1.4,0.1-1.4-0.5c0-0.6,0.8-1.2,0.8-1.2s-3.7-2.7-1.9-13.8l0.3-3.6L140,674.5z"/>
<path fill="#D4CDC3" d="M138.7,687.9c0,0-1.6,7.3,6.5,14.5c0,0,0.3-1.4,1.4-3.1c0,0-6.2-7.2-6.6-10.5
	C140,688.8,139.4,687.1,138.7,687.9z"/>
<path fill="#D4CDC3" d="M150,702.4c0,0-1,9.6,4.4,13.3c0,0,1.4,0.9,1.5-0.6s0.2-5.3,1.7-5.1C157.6,710,150.1,703.7,150,702.4z"/>
<path fill="#D4CDC3" d="M159.3,711.2c0,0-2.9,6.6,3.1,11.1c0,0,0.8,0.9,0.8-0.7s1.2-7.3,2.4-7.1
	C165.7,714.5,159.6,710.1,159.3,711.2z"/>
<path fill="#D4CDC3" d="M180.5,720.5c0,0-6.3-1.7-6.5,3c0,0-0.5,3.8,6.5,6.9c0,0,1.6,0.9,0.7-1.8c-0.8-2.7-0.2-5.4,0.2-6.1
	C182,721.9,183.1,720.8,180.5,720.5z"/>
<path fill="#D4CDC3" d="M360.9,736.5c-20.4,1.9-33.8,6.9-76.6,3.1s-45.5-3.8-58.4-7.1c-12.9-3.3-35.7-8.5-37-9.3s-2.4-1.1-1.7,1.4
	c0,0,2.4,10.8,28.9,15.9l0,0c7.2,2.2,18.1,5.5,28.9,6.6c0,0,7.4,0.5,11,1.4c3.6,0.9,18.1,1.9,20.4,1.6c2.4-0.3,37.9,1.7,43.3,1.9
	c5.3,0.2,32.6-1.3,40.6-2.2c8-0.9,35.9-4.9,44.4-14.5c8.5-9.6,8.5-9.6,8.5-9.6S381.3,734.6,360.9,736.5z"/>
<path fill="#D4CDC3" d="M416.8,724.5c0,0-2.4,5.7-3.1,5.7c-0.7-0.1-0.9,2.9,3.1,2.2c4-0.7,14.6-4.5,20.2-11.6c0,0,2.9-2.4,2.9-2.7
	s-1.7-1.2-3.9-0.6C433.9,718,417.3,724.6,416.8,724.5z"/>
<path fill="#D4CDC3" d="M470.3,695c0,0-3.8,3.8-5.7,5c0,0-0.2,0.5-0.9,3.1c-0.8,2.7-2,5.9-2.8,6.7c-0.9,0.8-0.3,1.2,2-1.1
	S470.1,703.2,470.3,695z"/>
</svg>
