<?xml version="1.0" encoding="utf-8"?>
<!-- Generator: Adobe Illustrator 23.0.1, SVG Export Plug-In . SVG Version: 6.00 Build 0)  -->
<svg version="1.1" id="레이어_1" xmlns="http://www.w3.org/2000/svg" xmlns:xlink="http://www.w3.org/1999/xlink" x="0px"
	 y="0px" viewBox="0 0 595.3 841.9" enable-background="new 0 0 595.3 841.9" xml:space="preserve">
<path fill="#88CDCF" d="M142.1,657.7v26.9l-2.1,13.9l94.9,39l99.8,5.4l71.9-15.4l52-20.3l12.2-19.3l0.3-9.4v-112l1.4-113.7
	c0,0-40.2,37.3-112,43c-71.7,5.7-105.5-0.8-105.5-0.8s-62.7-3.1-112-44.7L142.1,657.7z"/>
<path fill="#C1C1BC" d="M164.8,170.3c0,0-11.3,5.6-11.9,8.7c-0.6,3.1,0.7,8,5.5,4.9c4.7-3.1,5.6-3.6,5.7-6.3
	C164.1,174.9,163.8,171.1,164.8,170.3z"/>
<path fill="#C1C1BC" d="M201.3,156.7c0,0-6.4,1.3-6.4,3.1c0,0,2.8,0.3,3.2,1s-0.5,3-1.1,3.4c-0.6,0.4-0.8,0.9,0.2,1.4
	c1,0.5,0.3,2.1,0.3,2.1s16.8-3.9,21-4.5c4.2-0.6,18.6-4.1,20.3-4.2s2.4-0.1,2.4-0.6c0-0.5-0.9-0.6-1.9-0.6c-1,0-2.7,0.1-2.8-0.8
	c-0.1-0.9,2.8-1.6,3.8-1.9c1-0.3,1.2-0.7,1.1-1.1c-0.1-0.4-1.4-1-2.4-0.7c-1,0.2-3.1,0.4-3.1-0.5c0-0.9,0.9-1.6,3.1-1.6
	c2.2,0,2.3-1,2.3-1.4c-0.1-0.4-2.8-0.6-6.7-0.2C230.6,150,206.9,155.2,201.3,156.7z"/>
<path fill="#C1C1BC" d="M270.9,148.4c0,0-0.7,1,0,0.9c0.7,0,15.5-0.5,17.8-0.5s5.1,0.4,5.1-0.5c-0.1-0.8-2-0.5-6.1-0.6
	s-10.6-0.2-10.7,0c0,0,0.6,0.8-0.5,0.7C275.5,148.5,270.9,148.4,270.9,148.4z"/>
<path fill="#C1C1BC" d="M271,150.5c0,0-1.1,2.2-0.4,2.2s22.9,0,22.9,0s0.2,0.1,0.3-0.8c0.1-0.9-0.2-0.9-1.2-0.9
	C291.7,151,271,150.5,271,150.5z"/>
<path fill="#C1C1BC" d="M270.4,156c0,0-0.8,0.7,0.8,0.7c1.6-0.1,9.6,0.2,9.9-0.3c0,0,11.4-0.1,11.4-0.3s0.6-0.7-1.1-0.7
	c-1.7,0-10.4,0.2-10.6,0.4c-0.2,0.2-10.1,0.3-10.1,0.3L270.4,156z"/>
<path fill="#C1C1BC" d="M370.2,152.4c0,0,0.2,2.5-0.3,2.9c-0.6,0.4-0.5,5.2,0,5.1c0.5-0.2,15.1,1.6,15.1,0.9c0-0.6-0.5-1.8,0.6-2
	c1.1-0.2,2.4-0.1,2.4-0.6s-1.8-0.2-2.2-1.2s-0.5-1.2-0.5-1.2s5.9-0.4,7.2,0.7c0,0,0.8-0.2,0-0.9c-0.8-0.7-3-1.2-5.4-1.7
	C384.7,154,371.5,151.9,370.2,152.4z"/>
<path fill="#C1C1BC" d="M441.4,170c0,0-1.4,6.3-0.8,6.6c0.5,0.3,22.4,9.8,26.8,15.7c0,0,1.1,0.3,0.3-2c-0.8-2.3-7-6.8-6.8-8.3
	c0.2-1.6,0.4-3.1,0.4-3.1s0.9-0.4-1.5-1.6c-0.1-0.1-0.3-0.1-0.4-0.2c-0.2-0.1-0.4-0.2-0.5-0.3c-0.2-0.1-0.4-0.2-0.6-0.3
	c-0.2-0.1-0.5-0.3-0.7-0.4c-0.3-0.1-0.6-0.3-0.8-0.4c-0.3-0.2-0.6-0.3-0.9-0.5c-0.3-0.2-0.6-0.3-1-0.5c-0.3-0.2-0.7-0.3-1-0.5
	c-0.3-0.2-0.7-0.3-1-0.5c-0.4-0.2-0.7-0.4-1.1-0.5c-0.4-0.2-0.7-0.3-1.1-0.5c-0.4-0.2-0.7-0.3-1.1-0.5c-0.3-0.2-0.7-0.3-1-0.5
	c-0.3-0.2-0.7-0.3-1-0.5c-0.3-0.1-0.6-0.3-1-0.4c-0.3-0.1-0.6-0.3-0.9-0.4c-0.3-0.1-0.6-0.2-0.8-0.3c-0.2-0.1-0.5-0.2-0.7-0.3
	c-0.2-0.1-0.4-0.1-0.6-0.2c-0.2-0.1-0.5-0.1-0.7-0.2c-0.2-0.1-0.5-0.1-0.7-0.1c-0.2,0-0.4,0.2-0.5,0.3c0,0.1-0.1,0.2-0.1,0.2
	C441.5,169.8,441.4,169.9,441.4,170z"/>
<path fill="#C1C1BC" d="M413.9,188.5c0,0,8.8,5.7,9.3,6.9c0,0,1.3-0.8,1.3-1.2C424.4,193.7,416.3,188.8,413.9,188.5z"/>
<path fill="#C1C1BC" d="M194.7,191.6l-3.3,2.1c0,0,3.7,0.2,3.6,0.6c-0.1,0.4-0.4,0.8,0,0.5c0.4-0.3,2.9-2.7,2.8-3
	c-0.1-0.3-0.5-0.5-0.8,0.2L194.7,191.6z"/>
<path fill="#C1C1BC" d="M223.2,193.5c0,0-1.2,0.6-1.1,0.7c0.1,0.2,1.4,0.1,1.6,0.2c0.2,0.1-0.2,1,0.5,0.8c0.7-0.2,0.6-0.4,2.8-1.5
	c2.2-1,5.4-1.8,5.8-3.9c0,0-0.1-0.4-1,0.2C230.9,190.8,223.2,193.5,223.2,193.5z"/>
<g>
	<g>
		<path fill="#434241" d="M2326,429.6c3.2,0,3.2-5,0-5S2322.8,429.6,2326,429.6L2326,429.6z"/>
	</g>
</g>
</svg>
