<?xml version="1.0" encoding="utf-8"?>
<!-- Generator: Adobe Illustrator 23.0.1, SVG Export Plug-In . SVG Version: 6.00 Build 0)  -->
<svg version="1.1" id="레이어_1" xmlns="http://www.w3.org/2000/svg" xmlns:xlink="http://www.w3.org/1999/xlink" x="0px"
	 y="0px" viewBox="0 0 595.3 841.9" enable-background="new 0 0 595.3 841.9" xml:space="preserve">
<path fill="#E08C11" d="M140.8,217.3v234.8c0,0,28.4,32.5,112.8,44.3h105.3c0,0,67.7-3.1,109.2-43.2l1.7-2.7l2.5-229.2l-1.7,1.4
	c0,0-0.2-1.2-1-0.9c-0.8,0.3-39.1,20.5-66.8,23.1c-27.7,2.6-112.4,4.9-112.4,4.9l-101-13.9l-34.6-16L140.8,217.3z"/>
<g>
	<g>
		<path fill="#434241" d="M2326,429.6c3.2,0,3.2-5,0-5S2322.8,429.6,2326,429.6L2326,429.6z"/>
	</g>
</g>
</svg>
