<?xml version="1.0" encoding="utf-8"?>
<!-- Generator: Adobe Illustrator 23.0.1, SVG Export Plug-In . SVG Version: 6.00 Build 0)  -->
<svg version="1.1" id="레이어_1" xmlns="http://www.w3.org/2000/svg" xmlns:xlink="http://www.w3.org/1999/xlink" x="0px"
	 y="0px" viewBox="0 0 595.3 841.9" enable-background="new 0 0 595.3 841.9" xml:space="preserve">
<g>
	<g>
		<path fill="#434241" d="M2326,429.6c3.2,0,3.2-5,0-5S2322.8,429.6,2326,429.6L2326,429.6z"/>
	</g>
</g>
<polygon fill="#434241" points="141.9,219.5 143.9,219.5 142.2,674.5 140,674.5 140.7,220.4 140.7,218.6 "/>
<path fill="#434241" d="M475.2,214.9l-3.5,169.5v191.9c0,0,0.6,12.3,0,16.4c-0.6,4.1-0.6,80.5,0,87.5c0.6,6.9-2.8,5.7-2.8,5.7
	s-2.4-9.1,0-20.1c0,0-0.5-0.9-0.8-2.2c-0.4-1.3-2-29-1-31.4c0,0-0.2-18.5,0.3-20.9c0.5-2.4,0.8-25.7,0.8-25.9s0-24.5-0.3-28.8
	c-0.3-4.2,0-8.5,0-11c0-2.5-0.3-28.2,0.5-31.8c0,0,0-8-0.2-11.6c-0.2-3.6,0-42.3,1.1-46.7c0,0-1.3-82.4,0.2-86.8l2.4-149.6
	L475.2,214.9z"/>
<path fill="#CBC91E" d="M141.9,663.7c0,0,1.1-0.8,2.5,0.8c1.3,1.6,11.8,12.4,20.3,18.1s15.7,9,18.1,9.9c2.4,0.8,2.1,1.4,2.8,1.7
	c0.7,0.3,33.8,12.5,44.6,14.4s35.7,5.5,54.6,6.8s36.5,1.6,49.5,0c13.1-1.6,35.1-4.2,43.4-7.2c0,0,6.4-0.2,7.9-0.8
	c1.5-0.6,2.4-0.8,3.1-1c0.7-0.2,1.6-0.4,2.7-0.8s4.3-0.9,6.5-1.9c2.2-0.9,4.8-2.4,7.6-2.7c2.7-0.3,5.2-2.8,5.2-2.8s2.7-0.5,4.3-1.6
	c1.6-1,23.8-11.6,32-17c8.2-5.3,14.8-9.2,18.6-13.5c0,0,2.3-2,2.1,1.6s-0.2,3.5-0.2,3.5s-22.2,17.9-51.4,29.8c0,0-2.9,2.2-11.4,5
	c-8.5,2.9-26.1,9.7-48.2,11.5c0,0-29.6,6.4-57.6,3c0,0-54.1,1.1-92.2-13.7S156,683.8,150,677.1c0,0-7.3-6.4-8.8-8.1
	S141.9,663.7,141.9,663.7z"/>
<path fill="#3A3535" d="M209.9,657.2c0,0-2.5,1.4-5,1.7c0,0-1.7,0.3-1.9,0.9c-0.2,0.6-0.2,0.2,0.7,2c0.9,1.7,2.7,4.7,3.5,7.6
	c0.9,2.9,2.4,7.1,2.6,8.1c0.2,1,0.4,2,0.4,2s1.1-1.5,4.2-1.3s8.2,1.3,10.3,2c2.1,0.8,13.2,4.2,19.3-5s-0.1-17.8-3.2-20.4
	s-9-6.4-11.1-7.6c-2.1-1.2-5.7-2.8-3.7-4c2-1.2,10.9,1.3,14,7.2c0,0,1.3-4.1,6-6.8c0,0,1.5-0.9-0.1-2c-1.6-1.1-7.3-8.9-8.3-10.9
	c0,0,0.4-1.2-0.5-1.9c-0.9-0.7-2-2.2-2-2.2s-2,1.7-3.2,2c-0.6,0.2-1.2,0.5-1.9,0.6c-1.5,0.2-3.1-0.4-4.5-0.8
	c-1.5-0.4-3.1-0.9-4.6-1.1c-2.9-0.4-5.9,0.2-8.7,1c-0.9,0.3-1.8,0.6-2.6,1.1c-2.8,1.8-10.1,10.9-1.4,21.5c0,0,2.6,2.9,9,6.4
	c6.4,3.5,12.2,6.8,9.4,9c-2.8,2.2-6.9-0.3-9.6-2.9s-4.5-6.4-5.5-6.5S209.9,657.2,209.9,657.2z"/>
<path fill="#866348" d="M230.4,631.9c0,0,1.4-0.1,2.4-0.9s1.8,0.2,2.3,1.7s5.9,9.3,7.2,9.5c0,0,0.2,0.5-0.9,1.5
	c-1,1-1.9,3.5-3.4,1.3c-1.5-2.2-9.6-6.1-13.2-4.2c-3.6,1.9-0.7,5.4,0,5.9c0.7,0.5,15.6,9.4,17.4,15c1.9,5.6,0.3,11.6-3.3,14.4
	c-3.6,2.8-7.7,2.9-14.1,0.8c-6.5-2.1-10.5-2.1-11.6-1.6c-1.1,0.6-1.4-0.2-1.6-1.6s-3.1-10.6-4.5-11.1c-1.3-0.5-0.1-1.6,0.4-1
	c0,0,2.7-0.6,2.6-1.2s0.1-1.5,1.5,1s4.3,9.7,15.7,8.7c0,0,4.7-2.1,3-6.1c-1.7-4-7.9-7.1-10.9-9.1c-3-1.9-12.9-7-12.5-16.2
	c0.4-9.3,11.5-9.7,13.8-8.1C223,632.3,230.4,631.9,230.4,631.9z"/>
<path fill="#3A3535" d="M232.8,635c0,0,3.7,5.7,4.5,5.7c0.8,0.1-0.4,1.7-1.7,0c0,0-1.6-1-5.2-2s-11-1.6-9.7,5.8c0,0,0.4,2.4,4.6,5.6
	s15.4,8.7,15.3,17.2c-0.1,8.6-9.3,10-11.8,9.6c-2.5-0.4-10.8-3.7-11.9-4c-1.1-0.3-2.9,0.5-2.9-0.2c0-0.6-0.9-3.8-2-4.8
	c-1.1-1,0.3-1.8,1.7,0.1c0,0,2.2,1.6,3.6,2.5s10.4,4.1,15,0.6s-0.1-10.1-2.7-11.8s-7.1-4.6-10.3-6.7c-3.2-2-9.6-8.2-7.7-13.5
	c1.9-5.3,6.4-7.1,12.8-5.4C230.9,635.4,232.8,635,232.8,635z"/>
<path fill="#3B3737" d="M258.2,640.3c0,0-10.3,8.5-5.3,25.6s20.8,23.4,32.2,21.9s19.7-7.4,17.5-31.1c0,0-5.4-15.8-17.3-19.7
	C273.4,633.1,263.5,634.8,258.2,640.3z"/>
<path fill="#866348" d="M258.1,644.6c0,0-4.1,5-3.1,13.6c1,8.7,5.2,16.1,14.6,23.5c0,0,8.4,4.1,13,3.3c4.6-0.9,14.4-0.9,17.9-18.2
	c0,0,1.6-12-6.3-20.4c-7.9-8.4-18.6-12.8-28.8-7.8C265.5,638.6,260.9,640.8,258.1,644.6z"/>
<path fill="#3B3737" d="M260.8,646.8c0,0-2.3,3.9-2.5,9.7c0,0,1,12.3,8.1,19c7.1,6.7,15.7,10.4,26,3.1c0,0,5-4.4,4.9-11.6
	c-0.2-7.2-1.4-15.3-5.8-19.1c-4.4-3.8-8.2-10.5-19.7-8.3C271.8,639.4,264,641.6,260.8,646.8z"/>
<path fill="#866348" d="M277.2,648.2c0,0,14.8,10.1,16.4,19c0,0,1.6,7.9-5,9.3c-6.5,1.4-13.7-2.5-21.5-12.1c0,0-3.1-3.1-3.5-7.2
	c-0.4-4,1.1-7.9,3.5-9C269.7,647.1,274.5,646.8,277.2,648.2z"/>
<path fill="#3B3737" d="M267.3,651c0,0,3.5-3.9,8.1,0c0,0,13.6,11.2,13.9,13c0,0,2.9,5.2-0.5,7.7c-3.4,2.5-5,4-10,0.7
	c0,0-10.9-10.4-12-14.3C265.8,654.1,265.9,653.2,267.3,651z"/>
<path fill="#CAC6BD" d="M270.2,653c0,0-3.5,2-1.3,5.2c2.3,3.1,10.9,13.1,13.7,13.1c2.8-0.1,5.3-0.2,5.3-4.7c0,0-0.6-3.2-5-7
	c-4.5-3.8-6.7-7.1-10.1-7.1C272.7,652.4,271.1,652.3,270.2,653z"/>
<path fill="#3B3737" d="M309.5,637.4c0,0-1.3,5-1.7,6.4s-0.9,2.2-1.1,2.4c-0.2,0.2-0.4,0.9,0.5,1.1c0.8,0.1,3-0.4,4.7,2
	s1.6,4.1,1.6,4.1s-0.6,19.7,0,21.6c0.6,1.9,2.4,12.9,19.2,13c16.8,0,20.8-12.8,20.8-14.4s0.5-13.4-0.6-14.9c0,0-0.6-4.6,0.3-5.9
	c0.9-1.3,1.7-3.1,2-4.6c0.3-1.4,2.5-2.8,2.8-3.3c0.3-0.6-0.1-0.9-0.7-0.9c0,0-0.2-2.3-1.2-4.1c0,0,0.2-1.6-0.2-2.5
	c0,0-0.2-0.2-0.9-0.4c0,0-0.3-0.6-0.3-1.1c0-0.6-1.5-0.9-2.4-0.6c-0.9,0.4-1.9,0.8-5.6,0.8c-3.7,0-5.3,0.2-6.2-0.2s-3.2-0.3-3.5,2
	c-0.2,2.4-0.4,7.2-1.1,7.1c-0.7-0.2-1.2-0.1-1.2-0.1s0.1-1.6-0.6-2.6c0,0,0-1.5-0.7-1.7c0,0,0-2.7-0.3-3.2s-1.3-1.9-4.1-1
	c-2.8,0.9-12.9,2.4-17.4,1l-1.7-1L309.5,637.4z"/>
<path fill="#866348" d="M311.6,640.5c0,0,0.1,3.1-0.6,3.6c-0.7,0.5-0.3,1.1,0,1.1s2.6,1,3.7,2.8c1.1,1.8,2.4,2.8,2,9.2
	s-2.4,19.1,1.7,23.1c4.2,4,10,5.7,18.4,4.2c8.4-1.5,10.5-3.1,13.8-11.3c0,0,0.5-6.2,0.6-17.9c0.2-11.6,2.2-10.6,3-11.2
	c0,0-1.2-1.3-1.3-2.5c-0.1-1.2-0.3-3.3-2.2-2.8c-1.9,0.6-10.1,0.2-10.1-0.1c0,0-0.6,0.2-0.5,2.5c0.1,2.4-0.5,2.9-1.1,3.4
	c-0.6,0.5-0.2,1.1,1,1.4c1.2,0.3,2.4,1.5,2.4,3.6c0,2.1,0.2,20.1-0.1,21c-0.2,0.9-2,7.2-7.6,6.7c-5.5-0.5-6.4-4.5-6.3-6.7
	c0.1-2.2-1.1-21.8,1-23.1c2.1-1.3,2-1.7,1.5-3.5c-0.6-1.7-1.2-4.9-0.9-5.4c0,0-3.9,1.5-6.9,1.7C320.4,640.8,311.6,641.2,311.6,640.5
	z"/>
<path fill="#3B3737" d="M318,642.4l7.8-0.6c0,0-0.8,32.2,0,32.5s1,1.8,1,2.4s1,3,2.7,3.1c1.7,0.1,8.7,1.5,12.1-2.2
	c3.4-3.7,3.5-6.8,3.5-13.4s0-22.3,0-22.3h2.8c0,0,0.1,28.4-0.8,30.6s-2.2,7.3-5.6,7.7c0,0-1.6,0.8-2.8,1.6c-1.3,0.8-3.7,1.3-5.9,1.3
	s-11.4,0.6-13.1-8.2c0,0-0.1-0.7-0.6-1.2L318,642.4z"/>
<path fill="#CAC6BD" d="M335,646.3c0,0-3.3,0.8-3.4,6.7s-1.9,20.3,2.8,21.8c0,0,3.1,2.2,4.4-1.3c1.3-3.5,1.3-2.1,1.4-4.9
	s0.5-16.9,0-18.1c-0.5-1.3-3.4-3.8-4.8-3.2C335.4,647.3,336.1,645.6,335,646.3z"/>
<path fill="#3B3737" d="M364.4,632.2c0,0-0.2,3.9-1,5.5c-0.8,1.6-2.4,3.1-0.5,4.1s3.2,2.2,3.2,2.2s2.2,23,1.5,24.3
	c-0.7,1.3-1.3,4-4,5.7c0,0-1.3,0.6-1,1.8c0.3,1.3,0.7,3.1,0.6,3.7s-0.2,3.3,3.1,2.1c3.4-1.2,11.6-4,17.1-3.4c0,0,1.9,0.6,3-2.4
	c1.1-3.1,2-6.4,3.2-6.6c0,0-0.4-1.3-2.4-0.9s-2.8-1.1-2.8-2.6c0.1-1.5,1.1-0.6,2.9-1.2c1.8-0.6,17-2.3,20.1-19.8
	c3.1-17.5-10.8-18.6-15.1-17.9s-15.4,4.8-17.9,5C372,632.1,364.4,632.2,364.4,632.2z"/>
<path fill="#866348" d="M367.2,634.3c0,0-0.3,3.9-0.9,5c-0.6,1.2-0.6,1.4,0.9,1.7c1.5,0.3,1.7-0.2,1.7,3.2c0.1,3.5,2.2,25.2,1,27.3
	c-1.2,2-2.6,3.8-4,3.9c0,0-0.3,0.1,0,1.6c0.3,1.5,0.2,2.1,2.1,0.9c2-1.3,6.1-2.9,10.4-2.5s6,0.4,6,0.4l1.8-5c0,0-3-0.9-3.5-2.6
	c-0.5-1.7-0.2-5.6-0.2-5.6s5.5,0.4,10.5-3.1s16.4-9.8,10.5-25.3c0,0-2.4-6.3-11.4-4.5c-9,1.8-14.6,5.1-20.8,4.7L367.2,634.3z"/>
<path fill="#3B3737" d="M371.9,637.9c0,0,1.2-0.2,1.6,4.3c0.4,4.5,0.9,31.3,0.9,31.3s0.1-1,1.3-1.1c1.2,0,4.6-0.6,4.6-0.6v-12.3
	c0,0,11.6-2,14.9-4.9c3.3-2.8,8.3-6.4,6.6-16.2c-1.7-9.8-15.6-4-16.8-3.8c-1.2,0.2-8.8,2.8-12.2,2.4L371.9,637.9z"/>
<path fill="#866348" d="M379.2,639.4l0.9,17.6c0,0,15.5-3.6,16.1-14.5c0,0-1.2-6.4-8.5-5.7c0,0-6.3,2.1-7.5,2.2
	C379,639,379.2,639.4,379.2,639.4z"/>
<path fill="#3B3737" d="M381.6,642.6v9.5c0,0,5.7,1,10.4-4.4c0,0,1.4-5.3-3.1-6.6c-4.6-1.3-4.6,0.6-5.8,0.4
	C381.8,641.4,381.6,641.2,381.6,642.6z"/>
<path fill="#CDC9BD" d="M383.6,643.2l0.6,7c0,0,4.7-0.5,6.2-4.2c0,0,0.7-3.1-3-3.4C383.6,642.3,383.6,643.2,383.6,643.2z"/>
<path fill="#77583F" d="M266.2,456.9c0,0-24.7,17.6-15.9,55.4c8.8,37.8,47.8,44.5,61.9,40.3c14.1-4.2,41.7-13.6,44.7-45.5
	c2.9-31.9-11.3-54.3-46.6-61.9C310.2,445.2,285.3,440.4,266.2,456.9z"/>
<path fill="#CDC9BD" d="M227.9,414.2c-0.1-0.1-0.2-0.2-0.3-0.3c-0.3-0.2-0.6-0.5-1-0.7c-1.5-0.9-3.9-1.3-5.5-0.5
	c-0.8,0.4-1.3,1.1-1.7,1.9c-0.2,0.4-0.3,0.9-0.4,1.3c-0.3,1.2-0.1,2.4,0.5,3.4c0.2,0.4,0.5,0.7,0.8,1c0.6,0.6,1.1,1,2,1.2
	c0.7,0.1,1.5,0.1,2.3,0c0.5,0,1.2-0.1,1.5-0.6c0.9-1.1,0.7-2,0.7-2s1.1,1.2,1.8,2.1s0.8,1,0.3,1.6s-2.6,2.8-7.7,1.8
	c-5.1-0.9-7.7-6-7.4-8.9s3.4-6.8,7.7-6.6c4.2,0.2,7.8,2.2,7.7,3.4l-1,2C228.3,414.4,227.9,414.2,227.9,414.2z"/>
<path fill="#CDC9BD" d="M237.7,412.8c0,0-3.8,3.4-2.8,6.1c0,0-0.6-0.5-0.8,0s-1.3,7.9,7.3,9.7c0,0,8,0.6,9.8-4.5
	c1.8-5-0.2-9-4.6-11.2C246.6,412.8,242.8,410.5,237.7,412.8z"/>
<path fill="#1B8E3B" d="M241.9,415c0,0,4-1.2,6.2,3.5s-3,6.7-4.4,6.7s-5-1-5.2-4.1c-0.2-3.1,0.6-3.9,1.4-4.9
	C240,416.2,241.6,415.8,241.9,415z"/>
<path fill="#CDC9BD" d="M258.5,415.9c0,0-0.5,3.5-0.4,7c0.1,3.5,0,6.1,0,6.1h3.7c0,0-0.4-7.2,0-7.5c0.4-0.3,0.6-1.5,0.6-1.5
	s5.4,9.8,6.8,10s3.3,0,3.3,0s0.6-11.5,0.9-12.7c0.3-1.3-0.6-1.9-1.8-1.9c-1.2,0-1.4-0.2-1.7,2.5c-0.3,2.7-0.5,5.3-1.4,5.3
	c0,0-2.5-3.3-4.2-6.3c-1.7-3-3.4-2-4-2C259.6,414.8,258.6,414.6,258.5,415.9z"/>
<path fill="#CDC9BD" d="M280.4,416.9v14.4h9.2c0,0,7.2-0.6,7.1-8.4s-6-6.6-6-6.6l-10.3-0.1V416.9z"/>
<path fill="#1B8E3B" d="M284.3,419.5v6.1c0,0,1,0.8,1.3,1.5c0,0,5.7,1.3,7.4-3.1c0,0,0.7-3-2.4-4.6H284.3z"/>
<path fill="#CDC9BD" d="M303.8,418.1l-0.5,13.7h13.2v-3.3l-7.9-0.3c0,0-2.1-1.2,0-2.6l7.9,0.1c0,0,1.7-1.8,0-2.6h-8.7v-2.9h9.5v-3.3
	h-12.5C304.9,416.9,303.9,417.1,303.8,418.1z"/>
<path fill="#CDC9BD" d="M325.6,415.8c0,0-1.3,15.5-0.6,15.5c0.7,0,2.4,0.5,2.8-2c0.3-2.4,0.2-7.4,1.7-7.2c0,0,6.7,8.8,7.7,8.8
	s2.2-0.3,2.2-1.3s0.9-13.8,0.9-13.8s0.3-1-1.5-0.9c-1.8,0.1-1.3,8.2-1.9,8.6c-0.6,0.4-0.7,1.4-2.4-0.4c-1.7-1.8-5.9-8.1-7.4-7.7
	C325.6,415.8,325.6,415.8,325.6,415.8z"/>
<path fill="#CDC9BD" d="M353.4,416.9c0,0-1.9,0.2-2,1.5c-0.1,1.3,1.5,1.5,3.5,1.9c2,0.4,7.2,1.3,7.2,5.3c0,4-6,5.1-7.7,5.1
	s-6.4,0-6.4,0v-3.8c0,0,3.4,1.6,5,1.3c1.7-0.2,6-1.4,4.2-3.9c-1.8-2.4-7.4,0.5-9.8-4c-1.4-5,2.3-6.3,4.2-6.4c2-0.2,6.4-0.9,7,1
	c0.6,1.9-0.5,2-2.6,2C354,416.9,353.4,416.9,353.4,416.9z"/>
<path fill="#CDC9BD" d="M367.6,413.6v14.7c0,0,10.9,0.4,11.7-0.9v-2.5l-7.6,0.2c0,0-0.9-0.2-0.2-2.4c0,0,6.8-0.8,7.8-1.6v-2.1
	c0,0-6.8,0.9-7.9,0.3c-1.1-0.6-0.9-3.1-0.5-3.3c0.5-0.2,8.1-1,8.1-1l-0.1-2.7C379,412.1,368.2,412.6,367.6,413.6z"/>
<path fill="#CDC9BD" d="M384.3,409.8l0.6,15.8c0,0,10.7,1,12.8-8.7c0,0,1.1-7.2-5.3-7.7S384.3,409.8,384.3,409.8z"/>
<path fill="#1B8E3B" d="M387.8,414.1l0.4,7.1c0,0,3.6,0.7,5.2-2.8s0.2-5.7-1.5-6.3C390.2,411.5,387.8,414.1,387.8,414.1z"/>
<path fill="#3D3C3E" d="M170,286c0,0,2.8-0.1,3.8,2.9c0,0-0.4,0.9-1.6,1.5c-1.2,0.6-3.8,6.6-2.8,9.3c0,0,0.8,1.3-0.2,1.4
	c-1,0.2-3.6,0-3.6,0l1.5,2.5l1.7,4.6l-3.3,0.7c0,0-4.3-2-4.1-9.2c0,0,0.2-2.8,1.9-4.6l1.3-5.2L170,286z"/>
<path fill="#3D3C3E" d="M215.3,288.7c0,0,1.6-0.7,1.5-1.5c-0.1-0.8,5.9,7-0.6,18.2c-6.5,11.3-21,12.1-30.4,12.1h-3.2
	c0,0-11,17-10.9,38.4c0,0,0.7,4.4,2.1,7.3s-3.2,1.5-3.2,1.5l-3.9-7.1l-2.4-23.9c0,0,2.7-14,3.3-15.3c0.6-1.3,4.9-9.7,4.9-9.7
	l3.7-5.5l4.7-0.5c0,0,1.6-8.7,16.5-18.9c0,0,18.7-3.1,14.1,7.3L215.3,288.7z"/>
<path fill="#3D3C3E" d="M187.6,329.2l0.7-2.8c0,0,8.9,2.4,6.9,21.8c0,0-3.9,12.1-8.6,16.4c-4.7,4.2-8.3,7.1-11,5.4
	c0,0-0.8-1.1,0-1.6c0.8-0.4,14.8-10.9,14.5-24.1c-0.3-13.1-2-12.2-2-12.2l-1.9-1.7L187.6,329.2z"/>
<path fill="#3D3C3E" d="M186,333.7c0,0-0.2-0.6-2.4,1.7c0,0-2.6,3.7-3,13.1c0,0-0.1,0.6,0.5,0.9c0.6,0.3-0.5,1.4-1.6,0.7
	c-1.1-0.7-3.4-1.5-3.4-3.8s0.6-5.8,0.6-5.8l1.4-6.3l2-2.8l2.6-1.7l2.2,1L186,333.7z"/>
<path fill="#E0DBD1" d="M167.1,284c0,0-4.2,4.4-4.4,6.5c-0.8,1.9-0.8,9.2,4.4,14.5c0,0-18,36.1,0,59.6c0,0,7.3,8.6,14.3-2.1
	c6.9-10.7,14.1-20.3,7.8-32.5l-1.4-1.6c0,0-0.1-1.9-1.8-1.9s-6.6,3-8,6.6c-1.4,3.6-4.2,12.1-1.6,14.2l0.4,0.4c0,0,0.6-10.9,2.8-13.6
	c2.1-2.8,5.3-5.4,6.3,2.2c1,7.6-2.5,16.8-8.3,22.3c-5.7,5.6-6.8,3.4-9.4-4.4c-2.6-7.8,1.8-32,10.2-41.4c0,0,30.5,1.7,37.6-21.6
	c0,0,1.7-6.3-4.2-9.4c-5.9-3.1-10.8-2.6-20.9,1.8S171.3,300,171,300.9c-0.3,0.9-2.7,2-4.5-0.2c-1.8-2.1-3-7.3-0.3-10.8
	c2.7-3.5,5.6-3.5,5.6-3.5S171.3,283.8,167.1,284z"/>
<path fill="#3F3C39" d="M180.1,309.2c0,0,1.8-7.5,7.6-12.8c5.7-5.3,14.1-15.3,22.2-9.8c0,0,1.5,1.9,0.9,4.6l-1.5,1.3l-20.8,12.7
	l-4,4.1H180.1z"/>
<path fill="#1B8E3B" d="M209.9,292c0,0-2.4-2.3-7.4-1.3c0,0-2.6,0.5-4.5,2.2c-1.9,1.7-3,2.3-3.5,2.6c-0.6,0.3-4.6,5.3-5.4,6
	c-0.9,0.6-3.9,7.4-3.9,7.4l-0.7,0.3c0,0,13.1-1.9,17.9-6.7S208.2,296.6,209.9,292z"/>
<path fill="#3D3C3E" d="M196,372c0,0-0.9,2.6,0.7,4.2c1.7,1.6,7.4,2.6,11.6-2.1c4.2-4.7,2.9-7.7,2.9-7.7h-2.8l-4.8,3.1l-4.4,3.2
	L196,372z"/>
<path fill="#3D3C3E" d="M214.5,376c0,0-0.9,1.7,0.6,3.1c1.6,1.3,4.2,5.1,10.7,0l10.3-15l3.3-5.9l-0.7-2.7l-2,1.5l-2.1,1.3l-2.4,3.9
	l-3.4,4.3l-4.7,5.6l-2.9-0.5L214.5,376z"/>
<path fill="#3D3C3E" d="M221.2,370.5c0,0,2.9,0.2,3.5-3.2c0,0,7.3-14.9,8.3-17.1s4.9-12.5,4.9-12.5s0.8-1.5-0.9-2.4
	c0,0-1.6-1.5-1.6-1.9s-1.3-0.3-2.3,0.6s-16.9,29.3-16.9,29.3v7.3L221.2,370.5z"/>
<path fill="#3D3C3E" d="M229.3,377.9c0,0-1.9,1.1-1.4,2.8c0.5,1.7,2.2,4.3,4.6,4.3s6.6,0,6.6,0s1.3,0.6,3-3.5
	c1.7-4,15.2-31.4,16.1-31.9s1.5-1.4,3.6-0.6c2.1,0.8,2.9-3.5,2.9-3.5s-4-1.8-4.2-1.8c-0.2,0.1-5.3,0-5.3,0l-6.5,2.8l-7.2,12.8
	l-4.1,10.4L229.3,377.9z"/>
<path fill="#3D3C3E" d="M248.6,379.2c0,0-2.3,1.3-2,2.4c0.3,1.2,3.8,5.1,5.2,5c1.4-0.2,8.2-0.9,8.2-0.9s0.8-0.6,2-3.2
	c1.3-2.6,14.6-30.8,14.9-31.1c0.3-0.2,3.9-2.9,3.9-2.9v-4.8l-8.2,1.2l-6.1,4.2l-6.3,11l-5.9,15.7L248.6,379.2z"/>
<path fill="#3D3C3E" d="M290,340.9c0,0,0.7-3.4,2.7-1.3s5.3,6.5,2.4,12.6s-11.1,20.4-11.1,20.4l-3.1,4.5l-10.5,1.8
	c0,0,8.4-10.1,8.4-10.3c0-0.2,2.5-14.6,2.5-14.6L290,340.9z"/>
<path fill="#3D3C3E" d="M268,380.8c0,0-2.4,4.6,2.8,7.3c5.3,2.7,10.5-3.7,12.5-6.4c2-2.8,11.8-9.8,11.8-9.8l6.8-12.4l-4.3-1.6
	l-3.4,1.5l-2.3,2.3l-1.3,2.1l-2.4,3.6l-2.8,3.9l-1.8,3.1l-2.8,3.5l-8.9,3.3L268,380.8z"/>
<path fill="#3D3C3E" d="M273,406.9c0,0-1.8,1.4-1.3,2.4c0.6,1,3.2,3.5,3.2,3.5l7.9-0.6c0,0,0.5,0,1.2-1.9
	c0.7-1.9,12.1-23.2,12.1-23.2s0.8-1.6,1.7-0.5c0.9,1.2,5.7,6.6,14.1,1.6c8.4-5,13.4-11.2,16.7-16.9c3.3-5.7,7.5-14.7,8.3-19.1
	c0,0,6.6-4.1,7.5-6.5l-1-1.9l-3.4,0.8l-2.2,0.2c0,0-6.4,2.4-6.7,2.4c-0.2,0-21.1,33-21.1,33l-6.4,1.5l-3.5-1.3l-4-3.6l-5.5,4
	l-12.2,19.9L273,406.9z"/>
<path fill="#3D3C3E" d="M321.6,328.9c0,0,4.2,3.3,3.9,4.8c-0.3,1.5-10.3,9-10.3,9l-3.1-0.6l1-6.7l5.9-5.3L321.6,328.9z"/>
<path fill="#3D3C3E" d="M388.1,297.5c0,0,3.2-1,3.4,2.1c0.2,3.1-0.2,12.1-8.7,19.4c-8.5,7.3-12.8,10.6-14.9,11.8
	c-2,1.2-8.8,4.6-9.3,5.8c-0.5,1.2-5.7,0.4-5.7,0.4l6.4-8.9l4-0.5l6.3-4.5l5.2-5.3l5.9-6.1l6-9.9L388.1,297.5z"/>
<path fill="#3D3C3E" d="M371.4,335.8c0,0,0.6-1.9,2.8,0.6c2.1,2.5,3.7,4.4,3.6,6.9c-0.1,2.5-0.9,4.6-0.9,4.6l-4.7,1.7l-3-3.2
	c0,0,0.7-2.9,0.7-4.9C369.9,339.6,371.4,335.8,371.4,335.8z"/>
<path fill="#3D3C3E" d="M337.5,382.2c0,0-2.4,0.9-1.8,1.5c0.6,0.6,4.3,6.6,15.7,0c11.4-6.6,18.9-17.5,21.2-27.7c0,0,1.7-0.7,3.3-0.8
	c1.6-0.1,4.2,0,4.2,0s1.3-2.3,1.4-3.5h4c0,0,2.5-1.5,0.9-4.4c-1.7-2.9-4.2-2.7-4.2-2.7l-2.3,1.3l-5.3,1.3l-7.8,3l-5.9,15.4l-7.7,9.1
	l-8.7,3.8L337.5,382.2z"/>
<path fill="#3D3C3E" d="M385.5,369.6c0,0-0.8-3-0.2-4.9c0.7-1.9,5.5-7.4,10.8-8.7c0,0,4.9-0.7,5.9,0c1,0.7,1.3-5.9,1.3-5.9h-0.9
	c0,0-2.1-3.2-5.7-2.4s-10.3,4.9-10.3,4.9l-5.8,3.9l-4.9,13.8l5.6,5.8l5.7-2.8L385.5,369.6z"/>
<path fill="#3D3C3E" d="M367.6,372.1c0,0-1.9,7.6,4.6,11.3c6.4,3.7,11.8,2.6,18-4s11.1-10.7,11.1-10.7s-0.1-2.9-0.8-3
	c-0.7-0.1-5.4,0-5.4,0l-4.9,3.5l-5.9,3.3l-10.7,2.3L367.6,372.1z"/>
<path fill="#3D3C3E" d="M397.2,373.4c0,0-1.8,6.4,1.9,8.1s10.7-1.7,15.8-10.9c5.1-9.2,5.3-6,5.3-6l-3.6-2.7l-4.5,2.9l-7,4.6
	L397.2,373.4z"/>
<path fill="#3D3C3E" d="M416.8,369.9c0,0,1.9,5.7,6.9,5.7c5,0,7-8.9,7.8-8.9s2.3,5,8.1,4.5c5.8-0.5,5.7-6.8,6.7-8.1
	c0,0,2.7,2.7,4.5,2.1c1.8-0.6,6.5-6.1,6.2-14.5c0,0-1.9-0.9-2.6,0.7s-4.4,5.2-4.4,5.2l-4.7-1.4l-10.8,6.4l-3-1l-4,2.4l-6.6,4.3
	L416.8,369.9z"/>
<path fill="#3D3C3E" d="M404.1,327c0,0,4.2-2.1,4.9,1.2c0.7,3.3,0.5,11.6-7.2,16.5c0,0-7,3-9.5,2.7c-2.5-0.3-4.8-2.7-4.8-2.7l4-2.8
	l4.8-3l5-3.7L404.1,327z"/>
<path fill="#3D3C3E" d="M433.7,289.8c0,0,3.9,2.1,2.8,6.6c-1.1,4.6-9.4,24.7-10.5,28.6s-2.1,6-2.5,7c-0.4,1-1.3,3.6-1.3,4.3
	c0,0.7-1.6,2.7-1.9,4c-0.3,1.3-4.9,12.3-5.1,13.1c-0.2,0.8-4.4,9.5-3.7,10.5s-2.9,4.6-2.9,4.6l-5.8-1.7l3.1-12.5l6.9-12.6
	c0,0,4.4-13.8,4-14.2c-0.4-0.3,3.5-11.4,3.5-11.4l3.9-8.5l3.9-12.2l3.3-5.1L433.7,289.8z"/>
<path fill="#3D3C3E" d="M448.3,286c0,0,4.3-1.3,4.3,1.8s-3.5,17.7-5.1,21.6c-1.7,3.9-11.4,29.5-12.2,31.6c-0.7,2.1-3.5,8.1-3.1,10.7
	c0.3,2.6-5.7,13.9-5.7,13.9l-3.4-3.7l-1.6-10.4l8.5-17.2l4.6-15.5c0,0,4.6-11.5,4.7-11.8c0.1-0.3,4.7-14.3,4.7-14.3L448.3,286z"/>
<path fill="#3D3C3E" d="M453.3,287.7c0,0,5.9,0.5,4.9,6c-1,5.5-4.4,11.3-10.7,10.8l0.8-2.7l4.2-3.4l1.1-7.4L453.3,287.7z"/>
<path fill="#3D3C3E" d="M452.6,313.5c0,0,2.1-1.5,2.6-0.8c0.5,0.8,0.1,8.3,0,11.9c-0.1,3.6,0,20.8-1.7,24.2c-1.7,3.4-2,4.7-2,4.7
	l-4,0.5l-0.7-3.3c0,0,2.4-5.1,2.2-6.1c-0.2-1,0.4-9.4,0.4-10.1c0-0.8,0.6-8.7,0.6-8.7s0-6.7,0-7C450,318.6,452.6,313.5,452.6,313.5z
	"/>
<path fill="#E0DBD1" d="M222.1,335.9c0,0-1.6-6.3-5.9-7.7c-4.3-1.4-12,5.6-14,7.7c0,0-9.3,12.3-9.4,22c-0.1,9.8-0.7,13.6,6.3,16.5
	c0,0,6.3,0.6,9.3-6.6c0,0,1.9-2,2.1,0.7s-0.1,8.6,5.2,8.5c0,0,4.7-1.7,6-2.8c1.2-1.2,1.2,0.2,2-0.3s10.1-11.4,12-15.5
	c0,0,2.7-1.9,1.6,0.9c-1.1,2.8-9.4,18.7-9.4,18.7l0.5,0.9h10.3c0,0,12.4-34.3,19.5-33.8c0,0,3.7-0.3,3.1,3.4c0,0,0.6,1.2-0.7,3.5
	c-1.3,2.4-13.2,27.9-13.2,27.9h8.8c0,0,13.2-29.9,18.1-33.4s5,0.4,4.8,1.9c-0.2,1.5-11.6,26.4-11.6,26.4s-2.8,8.5,2.8,8.6
	c5.7,0.1,9.5-0.9,15.4-9.3c5.9-8.4,7.9-13.5,10.4-12.5c0,0,1.2,1.1-0.7,3.4s-17.8,28.3-20.1,34.7c0,0-1.2,3.1-1.6,3.8
	c-0.3,0.6-2.1,4-2.1,4l0.5,0.4h9.1c0,0,13.3-27.8,14.5-28.3c1.2-0.5,2.2-0.1,2.3,1.6s4.3,10.5,16,1.3s20.2-26.8,20.4-34.2v-0.8
	c0,0,1.7,0,4.5-1.4c2.8-1.4,4.2-1.4,3.7,0.5c-0.5,1.9-1.7,3.3-2.3,4.5c-0.6,1.3-4.6,11.2-5.2,12s-1.4,0.6-1.8,3.7
	c-0.4,3-5.1,17.3,9.4,16.8c0,0,14.8-2.1,26.4-27.6c0,0,1.6-3.4,2.2-5.1c0,0,8.8-1,10.8-4.3c0,0,3.9,2.5,6.6,2.5c0,0-1.8,1.6-4.3,2.5
	s-12.5,5.7-16.7,19.5c0,0-0.5,7,6.7,9c7.2,2,15.7-7.4,15.7-7.4s5.2-5.4,5.7-4.6c0.4,0.8-0.1,8.5,4.4,8.3c4.5-0.2,8-0.6,12.3-9.4
	c0,0,1.5-3.3,2.8,0.1c1.4,3.4,3.5,5.7,6.8,4.6c3.4-1,5-4.6,6.8-7.2s2.4-3.4,4.2-1c1.8,2.3,3,3.7,5.6,3.7c2.5,0,4.6-2.8,5.7-5.2
	c1-2.4,2.1-3.9,2.8-3.4c0.7,0.5,3,3.3,6,0.3c2.9-2.9,2.6-9,2.3-9.8c0,0-0.4-0.2-1.5,0.9c-1,1.2-4,4.9-5,2.5c0,0,1.7-2.5,2.1-4.5
	c0.4-2,1.2-16.4,0.8-23.7c0,0,0.5-8.6,1.6-9.6s-0.6-1.9-0.6-1.9l-4,0.5c0,0-13.1,33.2-16.8,37.1c0,0-4.7,9.8-4.6,11.2
	c0,0-0.7,2-1.5-0.7s7-21.1,7.9-23.7c0.8-2.6,15.4-48,15.6-50.6c0,0,0.1-0.8,0.8-1c0.7-0.2,0.1-0.8-1.2-0.4c-1.2,0.3-6,1.8-6,1.8
	s-14.3,39.3-14.6,42.3c0,0-3.6,9.9-5,12.5s-4.7,7.9-5.3,9.6c-0.6,1.8-5.9,10.7-6.6,11.1c-0.7,0.4-1.7,2-1.8,2.8c0,0-2.2,2.2-2.4-1
	c0,0,15.4-46.2,17.3-51.4c1.9-5.1,8.4-20.3,7.9-21.5c-0.5-1.2,0.9-1.4,0.9-1.4s2.2-1-6.5,0.2c0,0-16,41.7-17.3,44.6
	c-1.3,2.8-1.9,5-2.2,6.1c-0.3,1-1.8,1.8-3.1,4.8c-1.4,3-7,16.5-11.7,19.7c-4.7,3.3-7.1,4.2-7.1,4.2s0.2,0.7-1,0.8
	c-1.3,0.1-6.1-0.1-4.9-5.5c1.2-5.3,8.6-11.6,14.7-12.5l2.5-0.1l1.9-4.9c0,0-2-0.2-4.6-1c-2.6-0.7-4.4-2.2-1.3-3.7
	c3.1-1.5,16.4-7.9,13.8-16.5c0,0-1.7-4.2-10.4-0.9c-8.7,3.3-15.4,14.2-15.4,18.4c0,0-4.2,3.9-7.9,2.7c0,0-0.8-0.3-0.1-2.6
	c0.7-2.3,0.5-12.4-5.9-10.5c-6.4,1.9-8.3,2.8-8.3,2.8s-2.6,0.4-0.8-2.1s16.5-12,21.2-17.6c4.7-5.7,12.4-14.2,9.8-20.9
	c0,0-2.5-2.7-6.4-0.2c-3.9,2.5-9.3,6.9-13.1,12c-3.8,5-18,25.2-18.7,26.2c-0.6,1-2.7,4.7-4.2,5.9s-8.6,4.9-10.5,4.8
	s-1.6,0.2-1.6-1.9s-2-8.2-8.1-7.1c0,0-8.2,3.3-10.2,6c0,0-2.1,0.7-0.4-2.6c1.7-3.4,6-9.8,6-9.8l-11.3-0.1c0,0-1.7,3.7-7.8,14.4
	c-6.1,10.7-19.3,31.8-22.7,32.2c-3.4,0.4,0.1-5.3,1.2-7.1c1-1.8,15.6-25,9-29c0,0-3.9-3.6-8-2.4c-4.1,1.2-9.9,7.1-9.9,7.1
	s-0.2-7.6-3.3-8.3c-3-0.7-8.9,0.5-13.6,6.1c0,0-2.3,2.5-2.2-0.9l3.4-5.3l-9.5-0.5c0,0-11.3,23.3-18.9,31.3c0,0-3.4,5.5-6.6,3.6
	c-3.3-1.9,4.1-15.7,4.1-15.7l9-20.3l-10.3-0.9C224.3,332.7,223.5,336.1,222.1,335.9z"/>
<g>
	<g>
		<g>
			<path fill="#1B8E3B" d="M204.3,364.2c0.9-1.3,0-2.4,3.7-11.2s7.7-9.5,8.7-9.2s0,1.9,0,1.9l1.4-0.2c1.2-2,2.7-4.5,3-5.5
				c0.6-1.8-0.8-3.5-0.8-3.5c-5.2-4.7-7.6,1.9-9.4,3.5s-5.3,7.8-7.6,13.1c-2.4,5.3-1.9,12-1.9,12s0.4,0.5,1,0.8
				C203.1,365.4,203.8,364.8,204.3,364.2z"/>
		</g>
		<g>
			<path fill="#1B8E3B" d="M204.7,365.7c0.6-0.2,1.9-1.1,2.4-1.5s1.6-1.2,1.7-2.3c0.2-1.1,7.4-13.4,7.4-13.4s0.9-1.4,1.9-3l-1.4,0.2
				c0,0,0.9-1.6,0-1.9s-5,0.4-8.7,9.2s-2.8,10-3.7,11.2c-0.4,0.6-1.2,1.2-1.9,1.7c0.4,0.2,0.8,0.4,1.2,0.4
				C204.7,366.3,204.7,365.7,204.7,365.7z"/>
		</g>
	</g>
</g>
<path fill="#E0DBD1" d="M454.5,287.6c0,0-3-1.7-3.5,1.6c-0.4,3.3,0.3,8.7,0,9.8c-0.3,1-0.9,2.9-0.9,3.2s-0.7,2.1-1,2.1
	c0,0,4.4-3,5-6c0.6-2.9,1.9-6.7,0.4-8.4C453,288.1,454.5,287.6,454.5,287.6z"/>
<path fill="#1B8E3B" d="M319.4,347.9l-12,13.3l-5.5,16.7c0,0,1,2.4,5.5-1.4c4.5-3.9,16-21.2,13.3-29.1L319.4,347.9z"/>
<path fill="#3D3C3E" d="M320.8,349.9c0,0-0.9,1.7-2.8,0.6c0,0-10.5,14.6-13,23.8c0,0-0.9,3.4-1.3,3.9c-0.4,0.5-2.7,2.3-3.5,0
	c-0.9-2.3,0.5-8.7,2.3-12.4c1.8-3.7,9.4-22.3,16.5-22.1C319.1,343.7,322.7,345,320.8,349.9z"/>
<path fill="#1B8E3B" d="M364.6,345.8c0,0-5.1,19.3-16.2,26.9l-2.8,0.7l2.5-10.1l2.1-6.8l5.3-8.3l3.6-3.9l3.1-1L364.6,345.8z"/>
<path fill="#3D3C3E" d="M364.6,345.8c0,0-1,1.4-2.1,0c-1.1-1.4-0.9-0.9-2.9,0.6c-2,1.5-14.5,19.8-11.2,26.3c0,0-2.7,3.9-5,0.9
	s3.6-19.2,10.3-28.7c6.7-9.5,9.4-4.7,10.9-2.8C364.6,342.2,365,344.9,364.6,345.8z"/>
<path fill="#3D3C3E" d="M390.3,340.4c0,0-0.5-3.8,2.3-6.9c2.8-3,5.2-5.9,7.1-3.4c0,0,1.4,1.3-1.3,3.9c-2.7,2.6-5.3,5.2-5.8,5.9
	C392,340.7,390.5,341.6,390.3,340.4z"/>
<path fill="#1B8E3B" d="M445.4,336.4l-7.8,18.1c0,0,2.3,0.8,3.6,0c1.3-0.8,6.4-7.2,6.2-14.8C447.5,339.7,447.3,336.1,445.4,336.4z"
	/>
<path fill="#3D3C3E" d="M445.7,329.7c0,0-0.6-0.4-1.3,2.1c-0.7,2.5-3.5,11.3-4.7,13.8c-1.2,2.4-4.1,8.5-5,8.9s0.2,1.5,1.3,0.9
	c1-0.6,1.9-0.9,1.9-0.9s4.8-6.1,6.1-11.2c1.3-5.1,2.6-7.1,2.6-7.1S447.2,330.3,445.7,329.7z"/>
<path fill="#1B8E3B" d="M364,325c0,0,5.9-3.7,13.1-12.3c7.2-8.6,6.7-11.7,5.3-12.2c-1.3-0.5-11.4,13.5-11.4,13.5l-7.1,9.3V325z"/>
<path fill="#3D3C3E" d="M383,301.9c0,0,1.5-1.9,0-2.7c-1.5-0.8-3.6-0.2-7.7,4c-4.1,4.2-14.3,20.7-13.7,22.6c0,0,1,0.4,2.4-0.8
	s1.3-1.2,1.3-1.2s12-16.4,13.3-17.7C379.9,304.9,381.5,302.2,383,301.9z"/>
<path fill="#CBC91E" d="M143.3,242.5c0,0,4.1,3.3,5,4c0.9,0.6,3.5,3.1,4.9,3.9c1.4,0.8,28.5,18.2,76.1,23.6s105,9.8,154.3,4.4
	s88.4-27.9,88.1-33.3v-2.6v-0.8c0,0,1.4,0.1-5,4.2s-20.8,12.3-29.1,14.2c-8.3,1.9-14.2,4.4-17.6,5.3c-3.4,0.9-9.9,3.3-12.1,3.3
	c-2.2,0-5.1,1.3-6.6,1.8s-8.8,1.5-10.9,1.3c-2.1-0.2-5.9,0.2-7.8,0.8c-1.9,0.6-21.9,2.9-28.9,2.7s-68.1,1.2-89-1
	c-20.9-2.2-81.9-11.8-95.3-19.7c-13.4-7.9-26-16.2-26.1-18.4V242.5z"/>
<path id="SVGID_x5F_1_x5F_" fill="none" d="M134.6,548.7c3.8,5.8,9.7,13.8,17.8,21.8c13.2,13,28.9,22.7,63.4,31.5
	c25.2,6.5,46.6,11.4,80.9,11c33.2-0.4,86.4-6.1,153.3-35.3"/>
<text><textPath  xlink:href="#SVGID_x5F_1_x5F_" startOffset="26.5138%">
<tspan  fill="#FFF100" font-family="'BankGothicBT-Medium'" font-size="80px">  </tspan><tspan  fill="#FFF100" font-family="'BankGothicBT-Medium'" font-size="107px">corn</tspan></textPath>
</text>
<rect x="540.6" y="458.4" transform="matrix(7.976035e-02 -0.9968 0.9968 7.976035e-02 46.5579 983.642)" fill="none" width="30.9" height="16.5"/>
<g>
	<g>
		<path fill="#F2EB3E" d="M313,527.2c-8-7.5-16.5-16.2-21.5-26.1c-1.6-3.3-2.6-6.7-2.8-10.3c-0.2-2.6-0.6-6.8,0.2-9.4
			c1.2-3.7,4.5-2.1,7.3-1.1c2.8,1,5.5,2.5,7.9,4.4c4.6,3.6,7.3,8.5,10.4,13.4c2.7,4.3,6.2,8,9.6,11.9c2.3,2.6,10.5,12.5,6.1,16.2
			c-1.1,0.9-4.6,1.4-6.1,2.3c-1,0.6-10.7,7.8-10.4,1.6c0.1-3.2-4.9-3.2-5,0c-0.2,4.4,3.5,7.6,7.8,7.5c2.5-0.1,4.8-1.2,6.9-2.6
			c1.3-0.8,2.5-1.9,3.9-2.6c1.8-0.9,3.6-1,5.4-1.7c4.3-1.8,3.8-7.1,2.9-10.9c-1.5-6-5.6-10.8-9.7-15.3c-9-10.1-13.5-23-26.8-28.5
			c-3.8-1.5-10.2-4-13.4-0.1c-3.2,3.9-2.2,12.5-1.7,17c1.7,14.9,15.2,28,25.6,37.8C311.8,533,315.3,529.5,313,527.2L313,527.2z"/>
	</g>
</g>
<g>
	<g>
		<path fill="#F2EB3E" d="M280.5,488.9c0,0.7,0,1.4,0,2c0,1.3,1.1,2.6,2.5,2.5c1.4-0.1,2.5-1.1,2.5-2.5c0-0.7,0-1.4,0-2
			c0-1.3-1.1-2.6-2.5-2.5C281.6,486.5,280.5,487.5,280.5,488.9L280.5,488.9z"/>
	</g>
</g>
<g>
	<g>
		<path fill="#F2EB3E" d="M281,495.4c0.1,1.1,0.4,2,0.9,3c0.5,1.2,2.4,1.6,3.4,0.9c1.2-0.8,1.5-2.1,0.9-3.4c0.1,0.1,0.2,0.4,0.1,0.1
			c0-0.1-0.1-0.3-0.1-0.4c-0.1-0.2-0.2-1-0.1-0.2c-0.1-0.7-0.2-1.3-0.7-1.8c-0.4-0.4-1.1-0.8-1.8-0.7c-0.6,0-1.3,0.2-1.8,0.7
			C281.3,494.1,280.9,494.8,281,495.4L281,495.4z"/>
	</g>
</g>
<g>
	<g>
		<path fill="#F2EB3E" d="M282.6,499.9c-0.2,1.2-0.1,2.3,0.5,3.5c0.6,1.1,2.3,1.6,3.4,0.9c1.2-0.7,1.6-2.2,0.9-3.4
			c-0.2-0.4,0.2,0.5,0-0.1c0-0.2,0-0.1,0,0.3c0-0.3,0-0.2-0.1,0.2c0.1-0.7,0.1-1.3-0.3-1.9c-0.3-0.5-0.9-1-1.5-1.1
			C284.5,497.9,282.8,498.5,282.6,499.9L282.6,499.9z"/>
	</g>
</g>
<g>
	<g>
		<path fill="#F2EB3E" d="M285.3,506.4c0.5,0.8,1,1.5,1.5,2.3c0.7,1.1,2.2,1.7,3.4,0.9c1.1-0.7,1.7-2.3,0.9-3.4
			c-0.5-0.8-1-1.5-1.5-2.3c-0.7-1.1-2.2-1.7-3.4-0.9C285.1,503.7,284.5,505.2,285.3,506.4L285.3,506.4z"/>
	</g>
</g>
<g>
	<g>
		<path fill="#F2EB3E" d="M279.5,480.6c-0.3,0.8-0.6,1.5-0.6,2.3c0,0.9,0.2,1.6,0.6,2.3c0.5,1.2,2.4,1.6,3.4,0.9
			c1.2-0.8,1.5-2.1,0.9-3.4c0.1,0.2,0.2,0.4,0.1,0.1c0-0.1,0-0.1,0,0.1c0,0.2,0,0.2,0,0c0.1-0.4,0,0.1,0,0.2c0-0.1,0.3-0.8-0.1,0
			c0.3-0.6,0.4-1.2,0.3-1.9c-0.2-0.6-0.6-1.2-1.1-1.5C281.9,479.2,280.1,479.4,279.5,480.6L279.5,480.6z"/>
	</g>
</g>
<g>
	<g>
		<path fill="#F2EB3E" d="M284.7,480.3c0-0.3,0-0.6,0-0.8c0-0.5-0.1,0.4,0-0.2c0.1-0.2,0.1-0.4,0.2-0.6c-0.2,0.5,0.2-0.2,0.2-0.3
			c0.7-1.1,0.3-2.8-0.9-3.4c-1.2-0.7-2.7-0.3-3.4,0.9c-0.8,1.3-1.3,2.9-1.1,4.4c0.1,1.3,1.1,2.6,2.5,2.5
			C283.4,482.7,284.8,481.6,284.7,480.3L284.7,480.3z"/>
	</g>
</g>
<g>
	<g>
		<path fill="#F2EB3E" d="M287.3,476.8c0.3-0.1,0.6-0.2,0.9-0.3c1.2-0.4,2.2-1.8,1.7-3.1c-0.4-1.3-1.7-2.2-3.1-1.7
			c-0.3,0.1-0.6,0.2-0.9,0.3c-1.2,0.4-2.2,1.8-1.7,3.1C284.7,476.3,286,477.2,287.3,476.8L287.3,476.8z"/>
	</g>
</g>
<g>
	<g>
		<path fill="#F2EB3E" d="M291.1,476.2c0.5,0,0.9,0,1.4,0c1.3,0,2.6-1.1,2.5-2.5c-0.1-1.4-1.1-2.5-2.5-2.5c-0.5,0-0.9,0-1.4,0
			c-1.3,0-2.6,1.1-2.5,2.5C288.7,475.1,289.7,476.2,291.1,476.2L291.1,476.2z"/>
	</g>
</g>
<g>
	<g>
		<path fill="#F2EB3E" d="M298.3,478.2c3.2,0,3.2-5,0-5C295.1,473.2,295.1,478.2,298.3,478.2L298.3,478.2z"/>
	</g>
</g>
<g>
	<g>
		<path fill="#F2EB3E" d="M300.6,479.4c0.4,0.3,0.9,0.6,1.3,0.9c1.1,0.7,2.8,0.2,3.4-0.9c0.7-1.3,0.3-2.6-0.9-3.4
			c-0.4-0.3-0.9-0.6-1.3-0.9c-1.1-0.7-2.8-0.2-3.4,0.9C299,477.2,299.4,478.6,300.6,479.4L300.6,479.4z"/>
	</g>
</g>
<g>
	<g>
		<path fill="#F2EB3E" d="M305.8,483.1c0.1,0.1,0.2,0.1,0.3,0.2c0.2,0.2,0.2,0.1-0.1-0.1c0.1,0,0.3,0.3,0.4,0.3
			c0.1,0.1,0.2,0.2,0.3,0.4c0.1,0.1,0.1,0.2,0.2,0.3c-0.2-0.3-0.3-0.3-0.1-0.1c0.7,1.1,2.2,1.7,3.4,0.9c1.1-0.7,1.7-2.3,0.9-3.4
			c-0.8-1.1-1.7-2-2.8-2.7c-1.1-0.7-2.8-0.3-3.4,0.9C304.3,480.8,304.6,482.3,305.8,483.1L305.8,483.1z"/>
	</g>
</g>
<g>
	<g>
		<path fill="#F2EB3E" d="M309,486.1c0.3,0.6,0.6,1.1,0.9,1.7c0.6,1.2,2.3,1.6,3.4,0.9c1.2-0.8,1.6-2.2,0.9-3.4
			c-0.3-0.6-0.6-1.1-0.9-1.7c-0.6-1.2-2.3-1.6-3.4-0.9C308.7,483.4,308.4,484.9,309,486.1L309,486.1z"/>
	</g>
</g>
<g>
	<g>
		<path fill="#F2EB3E" d="M313.8,491.2c0.2,0.3,0.4,0.5,0.6,0.8c0.8,1,2.7,0.9,3.5,0c1-1.1,0.9-2.5,0-3.5c-0.2-0.3-0.4-0.5-0.6-0.8
			c-0.8-1-2.7-0.9-3.5,0C312.8,488.7,312.9,490.1,313.8,491.2L313.8,491.2z"/>
	</g>
</g>
<g>
	<g>
		<path fill="#F2EB3E" d="M316,495.9c0.5,0.5,0.9,1.1,1.4,1.6c0.9,1,2.7,0.9,3.5,0c1-1.1,0.9-2.5,0-3.5c-0.5-0.5-0.9-1.1-1.4-1.6
			c-0.9-1-2.7-0.9-3.5,0C315.1,493.5,315.1,494.9,316,495.9L316,495.9z"/>
	</g>
</g>
<g>
	<g>
		<path fill="#F2EB3E" d="M321.3,501c0.3,0.3,0.7,0.7,1,1c0.9,0.9,2.6,1,3.5,0c0.9-1,1-2.5,0-3.5c-0.3-0.3-0.7-0.7-1-1
			c-0.9-0.9-2.6-1-3.5,0C320.4,498.5,320.3,500.1,321.3,501L321.3,501z"/>
	</g>
</g>
<g>
	<g>
		<path fill="#F2EB3E" d="M320.1,501.1c3.2,0,3.2-5,0-5C316.9,496.1,316.9,501.1,320.1,501.1L320.1,501.1z"/>
	</g>
</g>
<g>
	<g>
		<path fill="#F2EB3E" d="M291.5,478.1c-2,2.7-2.7,5.3-2.5,8.6c0.8-0.8,1.7-1.7,2.5-2.5c-0.2,0-0.4,0-0.6-0.1
			c0.7,0.4,1.4,0.8,2.2,1.2c-0.3-0.5-1.1-3.2-1-3.9c-0.6,0.6-1.2,1.2-1.7,1.7c4.6-1.8,9.6,6,12.3,8.6c3.3,3.1,7,5.6,10,9.2
			c3.5,4.2,6.7,8.6,10,12.9c1,1.2,4,4,4.2,5.5c0.2,1.9-2.5,4.3-3.7,5.2c-0.7,0.5-1.6,0.7-2.4,1.2c-1.5,1-3.1,2.9-4.5,1.2
			c-0.9-1-1.3-3.3-2.1-4.5c-2.3-3.4-5.5-6.1-8.2-9.2c-3-3.6-5.2-7.6-7.8-11.5c-2.8-4.2-5.6-9.8-6.4-14.9c-0.2,0.8-0.4,1.6-0.6,2.4
			c2.9-3.2,7.9-4.5,11.5-1.8c2.2,1.6,4,4,5.8,6c0.4-1.4,0.7-2.8,1.1-4.2c-4.9,1.1-9.5-2.4-14.3-3.1c0.4,1.4,0.7,2.8,1.1,4.2
			c0.7-0.4,1.5-0.7,2.2-1.1c-0.4-1.6-0.8-3.1-1.3-4.7c-2.2,1.7-5.1,3.2-6.8,5.6c-0.5,0.7-0.4,1.8,0,2.5c1.1,2.2,3.5,3,5.8,3.4
			c4.9,0.9,9.2,2.6,13.2,5.7c7.3,5.8,9.2,15.3,14.8,22.3c0.4-1.4,0.7-2.8,1.1-4.2c-0.4,0.2-0.9,0.3-1.3,0.5c1,1,2.1,2.1,3.1,3.1
			c0.3-1.4,0.8-2.7,1.4-4c1-2.3-1.9-5.4-3.9-3c-1.5,1.8-2.6,4.2-4.4,5.6c-1.5,1.2-3.1,1.3-4.8,2.1c1.2,0.5,2.4,1,3.7,1.5
			c-0.3-1.2,7-2.4,4.2-6.3c-1-1.4-2.6-1.4-4.2-1.5c-0.8,0-3-0.3-3.5,0.1c-3.3,2.7,3.2,1.7,4.3,2.3c0.6-1.5,1.3-3,1.9-4.6
			c-2.6-0.8-4.5-2.9-7.1-3.7c-3.2-1-5.1-0.5-7.3-3.7c-3.6-5.1-6.6-10.5-10.8-15.2c-1,1.3-2,2.6-3,3.9c9.5,6.5,22.3,12.7,28.3,22.9
			c0.9-1.2,1.9-2.4,2.8-3.7c-3.9-1.3-7.4-4.3-10.8-6.5c-3.3-2.1-7.2-4.5-7.2-9c-0.4,0.7-0.8,1.4-1.2,2.2c0.5-0.2,4.3,3.3,4.5,4.3
			c0.2,1.1-0.4,2.3-0.7,3.4c-0.6,2.3-0.8,4.5-1.1,6.9c1.6-0.2,3.3-0.4,4.9-0.7c-1.2-4.5-4.5-6.6-8.3-8.9
			c-4.4-2.7-10.4-7.1-12.8-11.8c-1.4-2.9-5.7-0.4-4.3,2.5c2.4,5.2,5.7,9.6,10,13.4c2.4,2.1,6-1.4,3.5-3.5c-4-3.5-7-7.6-9.3-12.4
			c-1.4,0.8-2.9,1.7-4.3,2.5c2,4.1,5.8,6.9,9.2,9.7c3.5,3,10.2,5.2,11.4,9.8c0.8,2.9,4.7,2,4.9-0.7c0.3-3.2,2-6.8,1.9-9.9
			c-0.1-2-1.4-3.9-2.6-5.5c-2.2-2.9-6-5.2-9.6-3.4c-0.8,0.4-1.2,1.3-1.2,2.2c0,4.1,2.3,8,5.4,10.4c4.7,3.6,10.6,7.9,16.3,9.8
			c2.1,0.7,3.9-1.9,2.8-3.7c-6.5-11.1-19.8-17.6-30.1-24.7c-2.4-1.7-4.9,1.9-3,3.9c4.9,5.4,7.7,13.1,13,18c1.8,1.7,3.3,1.6,5.5,1.9
			c3.3,0.5,5.7,2.9,8.9,3.9c2.7,0.9,4.4-3.2,1.9-4.6c-3-1.6-6.9-1.8-10.1-0.4c-2.1,0.9-4,3.5-2.5,5.9c0.6,0.9,1.8,1.5,2.8,1.7
			c0.8,0.1,6.3-0.2,6.3-0.4c1.5-3.9-3.8-0.8-4.3-0.1c-1,1.4-1,2.6-0.6,4.3c0.4,1.7,2.3,2.2,3.7,1.5c1.9-0.9,3.7-0.8,5.5-2.3
			c2-1.7,3.1-4.3,4.8-6.3c-1.3-1-2.6-2-3.9-3c-0.7,1.7-1.4,3.4-1.9,5.2c-0.5,1.7,1.2,3.8,3.1,3.1c0.4-0.2,0.9-0.3,1.3-0.5
			c1.9-0.7,2.3-2.7,1.1-4.2c-5.2-6.5-7.1-15-13.3-21c-2.6-2.5-5.6-4.3-8.8-5.8c-1.5-0.7-3.1-1.6-4.7-2.1c-1.3-0.4-5.6-0.3-6.2-1.4
			c0,0.8,0,1.7,0,2.5c1-1.5,3.5-2.7,5-3.8c1.9-1.5,1.4-4.5-1.3-4.7c-2.4-0.1-4.2,0.6-5.7,2.5c-1,1.3-1,3.9,1.1,4.2
			c6,0.9,10.8,4.4,17,3.1c1.9-0.4,2.3-2.9,1.1-4.2c-4.6-5.1-9.2-10.7-16.8-8.6c-2.6,0.7-6.7,2.4-7.9,4.9c-1.4,2.8,1.4,7.3,2.4,9.9
			c2.7,7.4,7.6,14.6,12.8,20.6c2.9,3.4,7,6.5,8.8,10.8c1,2.4,1.3,4.8,4.1,5.6c2.7,0.8,4.8-0.6,6.8-2.2c2.7-2.2,6.3-2.6,8.5-5.5
			c5.1-6.8-3.2-13.7-7.1-18.7c-2.6-3.4-5.1-6.9-7.9-10.1c-3-3.5-6.8-6-10.1-9.1c-4-3.9-9.7-12-16.6-9.3c-0.8,0.3-1.6,0.8-1.7,1.7
			c-0.5,3.4,0.3,8.6,4.2,9c1.3,0.2,2.6-1.3,2.5-2.5c-0.1-2.3,0.5-4.3,1.8-6.1C297.7,478,293.4,475.5,291.5,478.1L291.5,478.1z"/>
	</g>
</g>
<g>
	<g>
		<path fill="#F2EB3E" d="M288.8,513.7c0.5,0.6,1.1,1.3,1.7,1.8c0.9,0.9,2.6,1,3.5,0c0.9-1,1-2.6,0-3.5c-0.6-0.6-1.2-1.2-1.7-1.8
			c-0.8-1-2.7-0.9-3.5,0C287.8,511.3,287.9,512.7,288.8,513.7L288.8,513.7z"/>
	</g>
</g>
<g>
	<g>
		<path fill="#F2EB3E" d="M292.9,519.4c0.4,0.4,0.8,0.8,1.1,1.1c0.9,0.9,2.6,1,3.5,0c0.9-1,1-2.5,0-3.5c-0.4-0.4-0.8-0.8-1.1-1.1
			c-0.9-0.9-2.6-1-3.5,0C292,516.9,291.9,518.4,292.9,519.4L292.9,519.4z"/>
	</g>
</g>
<g>
	<g>
		<path fill="#F2EB3E" d="M298.6,524.9c0.2,0.1,0.4,0.2,0.6,0.4c0.1,0.1,0.2,0.1,0.3,0.2c0.2,0.2,0.2,0.1-0.1-0.1
			c0.4,0.2,0.7,0.6,1,0.9c0.9,0.9,2.6,1,3.5,0c0.9-1,1-2.6,0-3.5c-0.9-0.8-1.8-1.6-2.8-2.2c-1.1-0.7-2.8-0.3-3.4,0.9
			C297,522.7,297.4,524.2,298.6,524.9L298.6,524.9z"/>
	</g>
</g>
<g>
	<g>
		<path fill="#F2EB3E" d="M294.7,522c0,0.1,0.1,0.2,0.1,0.3c0.6,1.2,2.3,1.6,3.4,0.9c1.2-0.8,1.5-2.2,0.9-3.4c0-0.1-0.1-0.2-0.1-0.3
			c-0.6-1.2-2.3-1.6-3.4-0.9C294.4,519.3,294.1,520.7,294.7,522L294.7,522z"/>
	</g>
</g>
<g>
	<g>
		<path fill="#F2EB3E" d="M306.3,529.8c-0.8-0.5-1.6-0.9-2.4-1.4c0.4,1.2,1.7,2.2,3.1,1.7c1.2-0.4,2.2-1.7,1.7-3.1
			c-0.2-0.8-0.7-1.4-1.4-1.8c-0.7-0.4-1.5-0.5-2.3-0.3c-1.3,0.2-2.1,1.9-1.7,3.1C303.7,529.4,305,530,306.3,529.8L306.3,529.8z"/>
	</g>
</g>
<g>
	<g>
		<path fill="#F2EB3E" d="M306.2,532.7c0.5,0.4,1,0.8,1.4,1.2c1,0.9,2.6,1,3.5,0c0.9-0.9,1.1-2.6,0-3.5c-0.5-0.4-1-0.8-1.4-1.2
			c-1-0.9-2.6-1-3.5,0C305.3,530.1,305.2,531.8,306.2,532.7L306.2,532.7z"/>
	</g>
</g>
<g>
	<g>
		<path fill="#F2EB3E" d="M323.1,505.5c0.2,0.2,0.4,0.5,0.7,0.7c-0.1-0.1-0.1-0.2-0.2-0.2c0.1,0.1,0.1,0.2,0.2,0.3
			c0.1,0.1,0.2,0.3,0.2,0.4c0.6,1.2,2.4,1.6,3.4,0.9c1.2-0.8,1.5-2.2,0.9-3.4c-0.4-0.8-1-1.6-1.7-2.2c-0.5-0.4-1.1-0.7-1.8-0.7
			c-0.6,0-1.3,0.3-1.8,0.7C322.2,502.9,322,504.6,323.1,505.5L323.1,505.5z"/>
	</g>
</g>
<g>
	<g>
		<path fill="#F2EB3E" d="M327.2,510.1c-0.2-0.1-0.5-0.2-0.1,0c0.1,0,0.3,0.3,0,0C326.8,509.8,327.1,510.1,327.2,510.1
			c0,0.1,0.3,0.5,0.1,0.1c-0.3-0.4,0.1,0.3,0.2,0.4c-0.1-0.1-0.2-0.5-0.1-0.2c0,0.1,0.1,0.3,0.1,0.4c0.2,1.3,1.9,2.1,3.1,1.7
			c1.4-0.4,2-1.7,1.7-3.1c-0.2-1-0.7-1.8-1.3-2.6c-0.7-0.8-1.5-1.2-2.4-1.6c-0.6-0.2-1.4,0-1.9,0.3c-0.5,0.3-1,0.9-1.1,1.5
			c-0.1,0.6-0.1,1.4,0.3,1.9C326.1,509.5,326.6,509.8,327.2,510.1L327.2,510.1z"/>
	</g>
</g>
<g>
	<g>
		<path fill="#F2EB3E" d="M330.1,515.9c0.1,0.9,0.5,1.8,0.9,2.6c0.6,1.2,2.4,1.6,3.4,0.9c1.2-0.8,1.5-2.2,0.9-3.4
			c-0.3-0.5,0.2,0.5,0-0.1c0-0.1-0.1-0.3-0.1-0.4c-0.1-0.3-0.2-0.6-0.2-1c-0.1-0.6-0.7-1.2-1.1-1.5c-0.5-0.3-1.3-0.4-1.9-0.3
			c-0.6,0.2-1.2,0.6-1.5,1.1C330,514.6,330,515.2,330.1,515.9L330.1,515.9z"/>
	</g>
</g>
<g>
	<g>
		<path fill="#F2EB3E" d="M330.3,513.4c0,0,0.1,0,0.1,0.1c-0.4-0.2-0.7-0.4-1.1-0.6c-0.1-0.3-0.3-0.5-0.4-0.8
			c0.4,1.2,1.7,2.2,3.1,1.7c1.2-0.4,2.2-1.8,1.7-3.1c-0.2-0.5-0.4-1-0.8-1.4c-0.4-0.4-0.8-0.6-1.3-0.8c-0.6-0.2-1.4,0-1.9,0.3
			c-0.5,0.3-1,0.9-1.1,1.5c-0.1,0.6-0.1,1.4,0.3,1.9C329.2,512.9,329.7,513.2,330.3,513.4L330.3,513.4z"/>
	</g>
</g>
<g>
	<g>
		<path fill="#F2EB3E" d="M333.1,522.5C333,522.3,332.9,522.1,333.1,522.5c0,0.2-0.1-0.7-0.1-0.2c0,0.4,0-0.1,0-0.2
			c0,0.1,0,0.2-0.1,0.2c-0.1,0.2,0,0.1,0.1-0.2c-0.3,0.6-0.4,1.2-0.3,1.9c0.2,0.6,0.6,1.2,1.1,1.5c1.1,0.6,2.9,0.4,3.4-0.9
			c0.3-0.8,0.6-1.5,0.6-2.3c0-0.9-0.2-1.6-0.6-2.3c-0.2-0.5-1-1-1.5-1.1c-0.6-0.2-1.4-0.1-1.9,0.3c-0.5,0.3-1,0.9-1.1,1.5
			C332.7,521.3,332.9,521.8,333.1,522.5L333.1,522.5z"/>
	</g>
</g>
<g>
	<g>
		<path fill="#F2EB3E" d="M332.8,525.1c-0.5,0.5-0.9,1-1.4,1.5c-0.9,1-1,2.6,0,3.5c1,0.9,2.6,1,3.5,0c0.5-0.5,0.9-1,1.4-1.5
			c0.9-1,1-2.6,0-3.5C335.4,524.3,333.8,524.1,332.8,525.1L332.8,525.1z"/>
	</g>
</g>
<g>
	<g>
		<path fill="#5DB539" d="M322.9,532.4c-7.7-5.5-15.7-11.8-24.7-15c-8.4-3-19.5-3.7-28.2-1.9c-1.9,0.4-2.4,2.9-1.1,4.2
			c2.4,2.5,5.9,3.4,9.2,4.4c4.4,1.4,8.8,2.6,13.2,3.9c9,2.6,19.6,4.3,27.3,9.8c2.3,1.6,5.2-2.1,3-3.9c-11.6-10.2-28-12.2-42.6-15
			c-0.2,1.6-0.4,3.3-0.7,4.9c7.3-0.4,16.4-0.2,23.3,2.5c3.3,1.3,6.4,3.3,9.3,5.3c2.7,1.8,6.6,4.2,8,7.3c0-0.8,0-1.7,0-2.5
			c0.3-0.7-14.5-6-16.1-6.4c-5.1-1.2-10.1-2-15.2-3.3c-2.1-0.5-4.2-0.9-6.4-1.1c-1.4-0.1-2.9-0.1-4.3-0.2c-0.9,0-1.7-0.1-2.6-0.1
			c-0.6,0.9-1.2,1.8-1.7,2.7c0,0,10.2,0.3,11,0.4c2.6,0.4,5.2,0.7,7.8,0.9c3.2,0.2,3.2-4.8,0-5c-6-0.4-14.9-3.6-20.7-1
			c-2.6,1.2-3.2,4.5-0.6,6.1c2,1.3,5.4,0.8,7.7,0.9c4,0.2,7.6,0.9,11.5,1.9c7.3,2.1,14.4,2.8,21.5,5.8c2.9,1.2,9.6,5.2,12.1,1.4
			c2.5-3.8-3.7-8-6.1-9.8c-4.9-3.7-10.5-7.7-16.6-9.1c-7-1.6-14.7-2.1-21.9-1.8c-2.7,0.1-3.6,4.4-0.7,4.9
			c13.6,2.5,29.6,4.3,40.4,13.7c1-1.3,2-2.6,3-3.9c-6.7-4.8-15.1-6.4-22.9-8.7c-4.3-1.2-8.6-2.5-13-3.7c-3.9-1.1-9.9-2-12.8-4.9
			c-0.4,1.4-0.7,2.8-1.1,4.2c8.6-1.9,20-0.7,28,2.9c7.5,3.4,14.3,8.7,21,13.4C323,538.6,325.5,534.2,322.9,532.4L322.9,532.4z"/>
	</g>
</g>
<g>
	<g>
		<path fill="#5DB539" d="M324.2,540.6c4.4-2.4,8.1-2.7,12.7-3.8c1.4-0.4,2.5-0.7,2.9-2.3c0.3-1.1-0.2-2.2-1.1-2.8
			c-5.1-3.5-16.4-2.9-20,2.4c-1.1,1.7,0.4,3.6,2.2,3.8c5.4,0.4,10.7-0.1,15.9-1.5c1.7-0.4,2.6-3,1.1-4.2c-3-2.5-3.5-9-4.3-12.7
			c-0.9-4.1-1.8-8.3-2.3-12.4c-1.1-8.9,0.5-16.9,6-24.1c-1.6-0.4-3.1-0.8-4.7-1.3c0.5,4.9-0.9,10.3-1.4,15.2
			c-0.5,5.7-0.8,11.3-0.9,17c-0.1,7.3-0.6,17,7.2,20.7c1.1,0.5,2.8,0.4,3.4-0.9c2.1-4.4,0.2-10.9,0.5-15.7
			c0.4-7.6,4.1-13.4,8.6-19.2c-1.2-1.2-2.4-2.4-3.5-3.5c-3.7,4.7-9.1,8.1-12,13.4c-3.4,6.1-1.7,13-2.2,19.6c-0.2,3.2,4.8,3.2,5,0
			c0.4-6.2-1.4-13.1,2.5-18.5c2.9-4.1,7.2-6.9,10.3-10.9c1.9-2.5-1.5-6.1-3.5-3.5c-3.8,4.8-7.5,9.7-9.1,15.7
			c-0.8,3.2-1.1,6.5-1.1,9.8c0,2.4,1.3,8.3,0.3,10.4c1.1-0.3,2.3-0.6,3.4-0.9c-7.2-3.4-4.8-17.4-4.5-23.9c0.2-4.4,0.6-8.8,1.1-13.2
			c0.4-3.8,1.4-7.6,1-11.5c-0.3-2.6-3.1-3.3-4.7-1.3c-6.1,8-7.9,17.4-6.6,27.3c0.7,5.4,1.8,10.7,3,15.9c1,4.1,1.5,9.3,5,12.1
			c0.4-1.4,0.7-2.8,1.1-4.2c-4.8,1.2-9.6,1.6-14.6,1.3c0.7,1.3,1.4,2.5,2.2,3.8c2-3,10.5-2.4,13.1-0.6c-0.4-0.9-0.8-1.9-1.1-2.8
			c0,0.1-0.1,0.2-0.1,0.3c0.6-0.6,1.2-1.2,1.7-1.7c-2.4,0.9-5.2,0.7-7.6,1.4c-2.6,0.8-5,1.9-7.3,3.1
			C318.9,537.8,321.4,542.2,324.2,540.6L324.2,540.6z"/>
	</g>
</g>
<g>
	<g>
		<path fill="#5DB539" d="M318.6,541.3c2.4,1.2,5,2.7,7.7,3.5c2.6,0.8,3.7-0.5,5.9-1.7c4.1-2.3,8.2-4.2,8.4-9.5
			c0.1-2-2.9-3.5-4.3-1.8c-2,2.5-4.6,3.1-7.5,3.6c-1.9,0.3-3.9,0.3-5.3,1.9c-2.1,2.4,1.4,6,3.5,3.5c0.7-0.8,3.3-0.7,4.3-0.9
			c1.2-0.2,2.3-0.5,3.4-1c2-0.8,3.8-2,5.1-3.7c-1.4-0.6-2.8-1.2-4.3-1.8c-0.1,3.4-6.1,5.4-8.7,6.9c0.6-0.1,1.3-0.2,1.9-0.3
			c-2.7-0.5-5.2-2-7.7-3.2C318.3,535.6,315.8,539.9,318.6,541.3L318.6,541.3z"/>
	</g>
</g>
<g>
	<g>
		<path fill="#94CA76" d="M286.5,522.6c8.9,1.5,17,5,24,10.6c2.5,2,6-1.5,3.5-3.5c-7.7-6.2-16.5-10.3-26.2-11.9
			C284.7,517.2,283.3,522,286.5,522.6L286.5,522.6z"/>
	</g>
</g>
<g>
	<g>
		<path fill="#94CA76" d="M329,491.2c-3,13.6-2.7,27.4,1.1,40.8c0.9,3.1,5.7,1.8,4.8-1.3c-3.6-12.5-4-25.4-1.1-38.1
			C334.5,489.4,329.7,488.1,329,491.2L329,491.2z"/>
	</g>
</g>
<g>
	<g>
		<path fill="#DEE451" d="M279.1,485.9c0,0.4,0,0.9,0,1.3c0,1.3,1.1,2.6,2.5,2.5c1.4-0.1,2.5-1.1,2.5-2.5c0-0.4,0-0.9,0-1.3
			c0-1.3-1.1-2.6-2.5-2.5C280.2,483.4,279.1,484.5,279.1,485.9L279.1,485.9z"/>
	</g>
</g>
<g>
	<g>
		<path fill="#DEE451" d="M282.8,496.5c3.2,0,3.2-5,0-5C279.6,491.5,279.6,496.5,282.8,496.5L282.8,496.5z"/>
	</g>
</g>
<g>
	<g>
		<path fill="#DEE451" d="M282,500.7c0.1,1.1,0.3,2.1,0.9,3c0.6,1.2,2.3,1.6,3.4,0.9c1.2-0.8,1.6-2.2,0.9-3.4c0-0.1-0.1-0.2-0.2-0.3
			c0.2,0.1,0.2,0.4,0,0c0-0.1,0-0.2-0.1-0.3c-0.1-0.3,0.1,0.6,0,0.1c-0.1-1.3-1.1-2.6-2.5-2.5C283.2,498.2,281.9,499.3,282,500.7
			L282,500.7z"/>
	</g>
</g>
<g>
	<g>
		<path fill="#DEE451" d="M285.6,509.2c0.6,1.1,1.2,2.2,1.8,3.3c0.6,1.2,2.3,1.6,3.4,0.9c1.2-0.8,1.6-2.2,0.9-3.4
			c-0.6-1.1-1.2-2.2-1.8-3.3c-0.6-1.2-2.3-1.6-3.4-0.9C285.4,506.6,285,508,285.6,509.2L285.6,509.2z"/>
	</g>
</g>
<g>
	<g>
		<path fill="#DEE451" d="M288.2,488.7c0.9-0.1,1.7-0.1,2.6-0.1c1.3,0.1,2.6-1.2,2.5-2.5c-0.1-1.4-1.1-2.4-2.5-2.5
			c-0.9-0.1-1.7,0-2.6,0.1c-0.7,0.1-1.3,0.2-1.8,0.7c-0.4,0.4-0.8,1.1-0.7,1.8C285.7,487.4,286.8,488.9,288.2,488.7L288.2,488.7z"/>
	</g>
</g>
<g>
	<g>
		<path fill="#DEE451" d="M300.7,494.6c2.4-0.1,4.8-0.8,6.8-2.1c2.7-1.7,0.2-6.1-2.5-4.3c-1.3,0.8-2.7,1.4-4.3,1.4
			c-1.3,0.1-2.5,1.1-2.5,2.5C298.2,493.4,299.3,494.6,300.7,494.6L300.7,494.6z"/>
	</g>
</g>
<g>
	<g>
		<path fill="#DEE451" d="M292.7,502.4c1,0,2,0,2.9,0c1.3,0,2.6-1.1,2.5-2.5c-0.1-1.4-1.1-2.5-2.5-2.5c-1,0-2,0-2.9,0
			c-1.3,0-2.6,1.1-2.5,2.5C290.2,501.3,291.3,502.4,292.7,502.4L292.7,502.4z"/>
	</g>
</g>
<g>
	<g>
		<path fill="#DEE451" d="M315.1,505.4c0.8,0.2,1.5,0.3,2.3,0.2c1.3-0.1,2.6-1.1,2.5-2.5c-0.1-1.3-1.1-2.6-2.5-2.5
			c-0.2,0-0.5,0-0.7,0c-0.3,0-0.2,0,0.1,0c-0.1,0-0.2,0-0.4-0.1c-1.3-0.3-2.8,0.4-3.1,1.7C313.1,503.6,313.7,505.1,315.1,505.4
			L315.1,505.4z"/>
	</g>
</g>
<g>
	<g>
		<path fill="#DEE451" d="M301.9,510.8c1,0.3,2.1,0.4,3.1,0.3c0.7-0.1,1.3-0.2,1.8-0.7c0.4-0.4,0.8-1.1,0.7-1.8
			c0-0.6-0.2-1.3-0.7-1.8c-0.5-0.4-1.1-0.8-1.8-0.7c-0.4,0.1-0.8,0.1-1.1,0c-0.1,0-0.2,0-0.3,0c0.3,0,0.4,0.1,0.2,0
			c-0.2-0.1-0.4-0.1-0.6-0.2c-1.3-0.4-2.8,0.5-3.1,1.7C299.9,509.1,300.6,510.4,301.9,510.8L301.9,510.8z"/>
	</g>
</g>
<g>
	<g>
		<path fill="#DEE451" d="M309.3,502.2C308.8,502.6,309.2,502.2,309.3,502.2c0.1,0,0.5-0.3,0.2-0.1c-0.3,0.2,0.1,0,0.2,0
			c0.2,0,0.3-0.1,0.5-0.1c0.6-0.1,1.2-0.7,1.5-1.1c0.3-0.5,0.4-1.3,0.3-1.9c-0.2-0.6-0.6-1.2-1.1-1.5c-0.6-0.3-1.2-0.4-1.9-0.3
			c-1.2,0.2-2.1,0.8-3.1,1.5c-0.5,0.4-0.7,1.2-0.7,1.8c0,0.6,0.3,1.3,0.7,1.8c0.5,0.4,1.1,0.8,1.8,0.7
			C308.3,502.9,308.8,502.6,309.3,502.2L309.3,502.2z"/>
	</g>
</g>
<g>
	<g>
		<path fill="#DEE451" d="M314,520.5c1.5-0.7,3-1.4,4.4-2.1c1.2-0.6,1.6-2.3,0.9-3.4c-0.7-1.2-2.2-1.5-3.4-0.9
			c-1.4,0.8-2.9,1.5-4.4,2.1c-1.2,0.5-1.5,2.4-0.9,3.4C311.3,520.9,312.8,521.1,314,520.5L314,520.5z"/>
	</g>
</g>
<g>
	<g>
		<path fill="#DEE451" d="M324.2,526.9c0.2-0.3-0.1,0.1-0.1,0.1C324.1,527.1,324.6,526.7,324.2,526.9
			C323.8,527.2,324.2,527,324.2,526.9c0.2-0.2-0.6,0.2-0.1,0.1c1.2-0.4,2.2-1.8,1.7-3.1c-0.4-1.2-1.7-2.2-3.1-1.7
			c-1.2,0.4-2.2,1.1-2.8,2.2c-0.7,1.1-0.3,2.8,0.9,3.4C322,528.5,323.5,528.1,324.2,526.9L324.2,526.9z"/>
	</g>
</g>
<g>
	<g>
		<path fill="#DEE451" d="M321.2,512.5C321.4,512.3,321.4,512.3,321.2,512.5c0,0,0.1-0.1,0.2-0.1c0.2-0.1,0.4-0.2,0.6-0.3
			c0.2-0.1,0.1-0.1-0.2,0.1c0.1,0,0.2-0.1,0.3-0.1c0.2-0.1,0.5-0.1,0.7-0.2c1.3-0.3,2.1-1.8,1.7-3.1c-0.4-1.4-1.7-2-3.1-1.7
			c-1.5,0.3-2.7,1-3.8,2c-1,0.8-0.9,2.7,0,3.5C318.7,513.5,320.1,513.4,321.2,512.5L321.2,512.5z"/>
	</g>
</g>
<g>
	<g>
		<path fill="#DEE451" d="M295.3,514.8c0.3,0,0.7-0.1,1-0.1c0.7-0.1,1.3-0.2,1.8-0.7c0.4-0.4,0.8-1.1,0.7-1.8
			c-0.1-1.2-1.1-2.7-2.5-2.5c-0.3,0-0.7,0.1-1,0.1c-0.7,0.1-1.3,0.2-1.8,0.7c-0.4,0.4-0.8,1.1-0.7,1.8
			C292.9,513.5,294,515,295.3,514.8L295.3,514.8z"/>
	</g>
</g>
<g>
	<g>
		<path fill="#DEE451" d="M299.8,484.7c0.1,0,0.3-0.1,0.4-0.1c1.2-0.4,2.2-1.8,1.7-3.1c-0.4-1.2-1.7-2.2-3.1-1.7
			c-0.1,0-0.3,0.1-0.4,0.1c-1.2,0.4-2.2,1.8-1.7,3.1C297.2,484.2,298.5,485.1,299.8,484.7L299.8,484.7z"/>
	</g>
</g>
<g>
	<g>
		<path fill="#DEE451" d="M289.1,480.1c0.3-0.2,0.5-0.3,0.8-0.5c1.1-0.7,1.7-2.2,0.9-3.4c-0.7-1.1-2.3-1.7-3.4-0.9
			c-0.3,0.2-0.5,0.3-0.8,0.5c-1.1,0.7-1.7,2.2-0.9,3.4C286.3,480.3,287.9,480.9,289.1,480.1L289.1,480.1z"/>
	</g>
</g>
<g>
	<g>
		<path fill="#FFF100" d="M242.3,574.2c-0.1,0-0.1,0.1-0.2,0.1c-1.2,0.7-1.6,2.2-0.9,3.4c2.3,4,6.3,0.9,7.1-2.3
			c1.5-6.3,1.8-10.8-4.7-12.9c-4.2-1.4-8.5-2.1-12.9-2.8c-2.7-0.4-6.7-1.7-9.3-0.4c-2.1,1-2.8,3.5-3.5,5.5
			c-1.5,3.9-3.1,7.9-4.6,11.8c-1.4,3.9-2.8,7.9-3.5,12c-0.5,2.8-1.7,7.2-0.5,9.9c0.9,2.1,3.1,2.6,5.1,3.3c4.2,1.4,8.5,2.5,12.8,3.5
			c3,0.7,7.6,2.6,10.6,1.8c2.3-0.6,2.5-1.9,3.2-4c1-2.9,3-6.5,2.8-9.6c-0.1-3-2.1-3.1-4-4.8c-1.6-1.4-4.3-0.5-4.3,1.8
			c0,1.2,0.4,6.7,0.1,6.9c-0.4,0.2-4.4-1-5.3-1.1c-4.6-0.5-9.6-0.9-13.7-3.5c0.4,0.7,0.8,1.4,1.2,2.2c-0.4-3.8,1.7-8.5,2.7-12.2
			c1-4.1,1.5-9.9,3.5-13.6c2-3.4,8.4-0.5,11.8,0.3c0.9,0.2,5.8,0.8,6.2,1.5c0.6,1.1-1.2,4.4-2,5.9c1.5,0.6,3,1.3,4.6,1.9
			c0.5-2.1,1-4.3,1.4-6.4c0.7-3.1-4.1-4.5-4.8-1.3c-0.5,2.1-1,4.3-1.4,6.4c-0.6,2.7,3.2,4.5,4.6,1.9c1.5-2.9,4.9-8.9,2.3-11.9
			c-1.1-1.3-3.6-1.4-5.1-1.7c-3.3-0.8-6.5-1.5-9.8-2.3c-3.3-0.7-8.5-3-11.1,0.1c-1.6,1.8-1.8,5.7-2.4,7.9c-0.9,3.3-1.7,6.6-2.6,10
			c-0.9,3.5-4.4,10.9-2.6,14.5c1.5,3,8.3,4.3,11.2,4.9c2.5,0.5,5.2,0.3,7.8,0.8c2,0.4,4.2,1.3,6.2,0.4c3.8-1.8,2.3-8.1,2.3-11.4
			c-1.4,0.6-2.8,1.2-4.3,1.8c1.4,1.3,2.1,1.1,2,3.1c-0.1,2.1-1.7,6.3-2.7,8.1c0.7-0.4,1.4-0.8,2.2-1.2c-3.4,0.4-7.8-1.3-11.1-2.1
			c-3.1-0.7-6.1-1.6-9.1-2.5c-1.2-0.4-2.4-0.7-3.6-1.1c0-0.6,0-1.2,0.1-1.9c-0.2-1.7,0.6-4.6,1-6.3c0.7-3.2,1.8-6.3,2.9-9.4
			c1.1-3.1,2.3-6.2,3.5-9.3c0.6-1.4,1.1-4.5,2.1-5.4c1.1-1,3.6,0.2,4.9,0.3c3.4,0.5,6.8,1.1,10.2,1.9c1.6,0.4,4.6,0.8,5.4,2.6
			c0.3,0.7-0.7,5.8-1.1,6c0.8,0,1.7,0,2.5,0c0,0.1,0,0.2-0.1,0.3c-0.3,1.1-0.6,2.3-0.9,3.4c0.1,0,0.1-0.1,0.2-0.1
			C247.6,576.9,245.1,572.5,242.3,574.2L242.3,574.2z"/>
	</g>
</g>
<g>
	<g>
		<path fill="#FFF100" d="M278.2,570.7c-4.7,0.1-11.5,1.2-16-0.6c0.6,0.6,1.2,1.2,1.7,1.7c0.1,0.2,11.1-0.3,12.2-0.2
			c4.3,0.2,8.7,1.1,13,1.6c0-1.7,0-3.3,0-5c-1.6,0-3.1,0.2-4.7,0.4c-3.2,0.4-1.8,5.3,1.3,4.8c1.1-0.2,2.3-0.2,3.4-0.2
			c3.3,0,3.1-4.7,0-5c-6.2-0.7-12.1-1.6-18.4-1.6c-3.1,0-9.1-1.2-11.2,2.2c-5.8,9.3,15.2,7,18.7,6.9
			C281.4,575.6,281.5,570.6,278.2,570.7L278.2,570.7z"/>
	</g>
</g>
<g>
	<g>
		<path fill="#FFF100" d="M282.4,568.9c-2.1-0.2-4.2-0.4-6.3-0.7c-1.3-0.2-2.7,0.3-3.1,1.7c-0.3,1.2,0.4,2.9,1.7,3.1
			c2.5,0.4,5.1,0.7,7.7,0.9C285.6,574.1,285.6,569.1,282.4,568.9L282.4,568.9z"/>
	</g>
</g>
<g>
	<g>
		<path fill="#FFF100" d="M268,575.4c3.8,0,7.6,0.8,11.4,1.2c3.9,0.4,7.9,0.4,11.8,0.5c3.2,0,3.2-5,0-5c-3.9-0.1-7.9-0.1-11.8-0.5
			c-3.8-0.4-7.5-1.2-11.4-1.2C264.8,570.4,264.7,575.4,268,575.4L268,575.4z"/>
	</g>
</g>
<g>
	<g>
		<path fill="#FFF100" d="M285.6,573.2c1-0.1,2.8-0.4,3.7,0.1c2.1,1.2,1.6,3.6,1.5,5.5c-0.1,3-0.4,6-1,8.9c-0.6,3.1,4.2,4.5,4.8,1.3
			c0.9-4.8,2.2-11.3,0.9-16c-1.2-4.4-6.1-5.1-10-4.8C282.4,568.4,282.4,573.4,285.6,573.2L285.6,573.2z"/>
	</g>
</g>
<g>
	<g>
		<path fill="#FFF100" d="M288.2,577.5c0.4,8.8-1.1,17.8-2.5,26.4c-0.5,3.1,4.3,4.5,4.8,1.3c1.5-9.1,3.2-18.6,2.7-27.8
			C293.1,574.2,288.1,574.2,288.2,577.5L288.2,577.5z"/>
	</g>
</g>
<g>
	<g>
		<path fill="#FFF100" d="M289,580.5c0,7.1,0.7,14.7-0.7,21.7c-0.7,3.1,4.2,4.5,4.8,1.3c1.6-7.5,0.9-15.4,0.9-23
			C294,577.3,289,577.3,289,580.5L289,580.5z"/>
	</g>
</g>
<g>
	<g>
		<path fill="#FFF100" d="M290.4,584.5c-0.1,1.7-3,22.4-2.2,22.6c0.6,0.6,1.2,1.2,1.7,1.7c-0.3-1,1.5-4.5,1.7-5.6
			c0.7-3.1-4.1-4.5-4.8-1.3c-0.5,2.4-3.1,6.5-1.5,8.9c1.2,1.8,4.1,1.6,5.7,0.4c2.6-2,2.3-7.2,2.6-10c0.6-5.5,1.3-11,1.8-16.6
			C295.7,581.3,290.7,581.3,290.4,584.5L290.4,584.5z"/>
	</g>
</g>
<g>
	<g>
		<path fill="#FFF100" d="M257.1,606.1c1.5,3.3,8.5,2,11.3,2.2c6.7,0.7,13.1,1.8,19.9,1.4c3.2-0.1,3.2-5.1,0-5
			c-5.2,0.2-10.2-0.2-15.4-0.9c-1.3-0.2-11.8-1-11.5-0.3C260.1,600.6,255.8,603.2,257.1,606.1L257.1,606.1z"/>
	</g>
</g>
<g>
	<g>
		<path fill="#FFF100" d="M289.7,604.3c-7.9-0.6-15.9-0.5-23.7-1.7c-3.3-0.5-8.3-1.1-8.8,3.5c-0.5,4.7,5.2,4.9,8.4,5.1
			c7.8,0.6,15.6,0.2,23.4,0.2c3.2,0,3.2-5,0-5c-4.9,0-9.8,0-14.7,0c-1.7,0-3.5,0-5.2-0.1c-1,0-6.2-1.2-5.3,0.8
			c0.6,1.2,9.9,1.1,11.3,1.1c4.9,0.2,9.8,0.5,14.6,0.9C292.9,609.5,292.9,604.5,289.7,604.3L289.7,604.3z"/>
	</g>
</g>
<g>
	<g>
		<path fill="#FFF100" d="M287.7,606.4c-1.8,4.3-17.5,1-21.3,0.8c-6.8-0.4-5.3-5.2-4.3-9.8c0.8-3.3,0.4-6.8,0.3-10.1
			c-0.1-3.2-5.1-3.2-5,0c0.1,3.5,0.3,6.7-0.6,10.1c-0.7,2.6-1.2,5.1-0.7,7.8c0.8,4.2,3.8,6.3,7.9,6.8c6.1,0.8,12.5,1.4,18.6,1.1
			c5.4-0.2,7.7-0.3,9.8-5.4C293.7,604.8,288.9,603.5,287.7,606.4L287.7,606.4z"/>
	</g>
</g>
<g>
	<g>
		<path fill="#FFF100" d="M257.9,584.9c-0.5,3.1-1.3,6.2-1.8,9.3c-0.4,3.2-0.2,6.5-0.2,9.7c0,3.2,5,3.2,5,0c0-3-0.2-6,0.2-9
			c0.4-2.9,1.2-5.7,1.6-8.6C263.2,583.1,258.4,581.8,257.9,584.9L257.9,584.9z"/>
	</g>
</g>
<g>
	<g>
		<path fill="#FFF100" d="M261.2,603.3c0.5-5,1-10,1.5-14.9c0.5-5.1-0.1-10.6,0.9-15.6c0.6-3.1-4.2-4.5-4.8-1.3
			c-0.9,5-0.4,10.1-0.9,15.1c-0.5,5.6-1.1,11.2-1.7,16.8C255.8,606.5,260.8,606.4,261.2,603.3L261.2,603.3z"/>
	</g>
</g>
<g>
	<g>
		<path fill="#FFF100" d="M258,581.6c-1,4.4-0.3,9-1.3,13.4c-0.8,3.1,4.1,4.5,4.8,1.3c1.1-4.4,0.3-9,1.3-13.4
			C263.6,579.8,258.7,578.5,258,581.6L258,581.6z"/>
	</g>
</g>
<g>
	<g>
		<path fill="#FFF100" d="M306.4,570.2c0.7,8.9,1.4,17.8,2.4,26.7c0.4,3.3-0.5,16,4.7,16.7c6.2,0.8,3.3-10.4,2.9-13.2
			c-1.4-9.8-2.9-19.4-2.8-29.4c0-3.2-5-3.2-5,0c-0.1,6.6,0.3,13.4,1.2,19.9c0.4,2.7,0.9,5.4,1.4,8.1c0.4,2.3,0.7,4.5,0.9,6.8
			c0.2,1.8-0.8,4.4,1.7,3.1c2-1,1.2-2.2,0.9-4.4c-0.2-1.6-0.3-3.1-0.5-4.7c-0.4-3.4-0.7-6.8-1.1-10.1c-0.7-6.4-1.1-12.9-1.6-19.4
			C311.1,567,306.1,567,306.4,570.2L306.4,570.2z"/>
	</g>
</g>
<g>
	<g>
		<path fill="#FFF100" d="M306,571.5c1,6.3,2,12.6,3,18.9c0.5,3.2,5.3,1.8,4.8-1.3c-1-6.3-2-12.6-3-18.9
			C310.3,567,305.5,568.4,306,571.5L306,571.5z"/>
	</g>
</g>
<g>
	<g>
		<path fill="#FFF100" d="M312,592.5c4-0.1,8.2-0.6,12.2-1c1.4-0.1,2.8-0.4,4.1-0.6c1.2-0.2,2.3-0.4,3.5-0.6c2.8-0.9,3.6-0.9,2.4,0
			c0.6-0.8,1.2-1.6,1.8-2.4c-3.5,1.4-7.9,1.3-11.6,1.7c-3.9,0.5-7.8,0.8-11.7,1.1c-3.2,0.3-3.2,5.3,0,5c4.5-0.4,9.1-0.8,13.6-1.4
			c3.5-0.4,7.8-0.4,11-1.7c1.1-0.5,1.7-1.2,1.8-2.4c0.5-4.4-3-5.6-6.7-5.1c-6.8,0.8-13.7,2.2-20.5,2.3
			C308.8,587.6,308.8,592.6,312,592.5L312,592.5z"/>
	</g>
</g>
<g>
	<g>
		<path fill="#FFF100" d="M313.1,593.8c3.9-0.7,8-0.6,12-1.1c3.5-0.4,7-1,10.5-1.6c3.2-0.5,1.8-5.3-1.3-4.8
			c-7.4,1.2-15.1,1.3-22.4,2.6C308.6,589.5,310,594.4,313.1,593.8L313.1,593.8z"/>
	</g>
</g>
<g>
	<g>
		<path fill="#FFF100" d="M321.4,594.3c3.5,4.7,7,9.3,11,13.6c3.4,3.7,6.3,3,11.1,2.9c2.5-0.1,3.3-3.3,1.3-4.7
			c-3.1-2.1-6.3-4.1-9.2-6.5c-1.9-1.6-5.9-4.4-6.6-6.9c-0.4,0.9-0.8,1.9-1.1,2.8c2-1.5,5.4-1,7.7-2.2c1.5-0.8,2.9-2.1,3.5-3.7
			c0.8-2,0.4-4,0-6.1c-0.7-3.3-1.1-6.7-1.6-10c-0.8-5.8-1.8-6.5-7.6-6.5c-6.4,0-12.8,0.7-19.2,2c-3.2,0.6-1.8,5.4,1.3,4.8
			c4-0.8,8.1-1.4,12.2-1.6c1.7-0.1,3.8-0.3,5.6-0.2c3,0.3,2.4,0.4,2.9,4c0.2,1.5,0.4,2.9,0.6,4.4c0.2,1.4,1.3,3.8,1,5.1
			c-1.3,5.3-5.8,3.3-9,5.7c-0.9,0.7-1.5,1.7-1.1,2.8c2.1,7.1,12.4,12.6,18.1,16.4c0.4-1.6,0.8-3.1,1.3-4.7c-1.4,0-4.9,0.7-6.2,0.1
			c-0.8-0.4-2.1-2.3-2.7-2.9c-3.1-3.6-6.1-7.3-9-11.2C323.9,589.3,319.5,591.7,321.4,594.3L321.4,594.3z"/>
	</g>
</g>
<g>
	<g>
		<path fill="#FFF100" d="M310.1,572.9c6.1-1.1,12.2-2.2,18.4-2.5c4.6-0.2,5.6,2.1,6,6.5c0.2,2.8,0.2,5.6,0.1,8.3
			c-0.1,3.2,4.9,3.2,5,0c0.2-5.3,1.4-16.3-4.4-19.2c-3.8-1.9-9.5-0.5-13.5,0c-4.3,0.5-8.6,1.2-12.9,2
			C305.6,568.7,306.9,573.5,310.1,572.9L310.1,572.9z"/>
	</g>
</g>
<g>
	<g>
		<path fill="#FFF100" d="M330.6,569.3c-3.2,0.9-7,0.2-10.4,0.3c-3.2,0.1-6.4,0.6-9.6,1.3c-3.1,0.8-1.8,5.6,1.3,4.8
			c3.7-0.9,7.4-1.2,11.2-1.2c2.9,0,5.8,0.3,8.7-0.4C335,573.2,333.7,568.4,330.6,569.3L330.6,569.3z"/>
	</g>
</g>
<g>
	<g>
		<path fill="#FFF100" d="M308.9,572.8c7.3,0,14.6,0,22,0c3.2,0,3.2-5,0-5c-7.3,0-14.6,0-22,0C305.7,567.8,305.6,572.8,308.9,572.8
			L308.9,572.8z"/>
	</g>
</g>
<g>
	<g>
		<path fill="#FFF100" d="M313.2,593.5c6.3,0,12.5,0,18.8,0c3.2,0,3.2-5,0-5c-6.3,0-12.5,0-18.8,0C310,588.5,310,593.5,313.2,593.5
			L313.2,593.5z"/>
	</g>
</g>
<g>
	<g>
		<path fill="#FFF100" d="M314.2,597c3.9-0.6,7.7-1,11.6-1.3c3.2-0.3,3.2-5.3,0-5c-4.3,0.4-8.6,0.9-12.9,1.5
			C309.7,592.6,311.1,597.5,314.2,597L314.2,597z"/>
	</g>
</g>
<g>
	<g>
		<path fill="#FFF100" d="M348.2,565.2c0.8,7.7,3.4,15.1,4.4,22.8c0.4,3.1,1,6.2,1.7,9.2c0.6,3,0.8,6.8,2.4,9.4
			c0.4,0.7,1.3,1.3,2.2,1.2c1.4-0.1,2.9-0.5,4.1-1.3c0.8-0.4,1.2-1.3,1.2-2.2c0-3.8-2.3-7.9-3.3-11.6c-1.3-4.6-2-9.2-2.9-13.9
			c-0.9-4.6-1.7-9.5-3.2-13.9c-0.8-2.2-2.2-3.8-4.8-3.6c-3.2,0.3-3.2,5.3,0,5c0.7-0.1,3.8,17,4.1,18.7c0.5,3,1.2,6.1,2,9
			c0.8,3,3.2,7.1,3.1,10.3c0.4-0.7,0.8-1.4,1.2-2.2c-0.5,0.2-1.1,0.4-1.6,0.6c0.7,0.4,1.4,0.8,2.2,1.2c-1.4-2.3-1.5-6.4-2-9
			c-0.7-3.4-1.3-6.9-1.7-10.4c-0.9-6.6-3.3-12.9-4-19.5C352.8,562.1,347.8,562,348.2,565.2L348.2,565.2z"/>
	</g>
</g>
<g>
	<g>
		<path fill="#FFF100" d="M350.7,567c11,8.7,22.3,17,33.9,25c2.7,1.8,5.2-2.5,2.5-4.3c-11.2-7.7-22.2-15.8-32.9-24.2
			C351.8,561.5,348.2,565.1,350.7,567L350.7,567z"/>
	</g>
</g>
<g>
	<g>
		<path fill="#FFF100" d="M357.1,575.1c9,9.7,20.3,17.1,30.9,24.9c2.6,1.9,5.1-2.4,2.5-4.3c-10.3-7.5-21.2-14.7-29.9-24.1
			C358.4,569.2,354.9,572.8,357.1,575.1L357.1,575.1z"/>
	</g>
</g>
<g>
	<g>
		<path fill="#FFF100" d="M376.9,558.6c2.9,13.1,3.7,26,8,38.8c1,3,5.8,1.7,4.8-1.3c-4.3-12.8-5-25.8-8-38.8
			C381,554.2,376.2,555.5,376.9,558.6L376.9,558.6z"/>
	</g>
</g>
<g>
	<g>
		<path fill="#FFF100" d="M377.7,557.6c1.4,13.4,4.1,26.6,8,39.6c0.9,3.1,5.8,1.8,4.8-1.3c-3.8-12.5-6.4-25.2-7.8-38.2
			C382.4,554.4,377.4,554.4,377.7,557.6L377.7,557.6z"/>
	</g>
</g>
<g>
	<g>
		<path fill="#FFF100" d="M380.1,565.1c1,6.6,2.1,13.2,3.8,19.6c1.3,4.7,1.8,10.5,4,14.9c1.4,2.9,5.7,0.4,4.3-2.5c-1-2-1-4.8-1.6-7
			c-0.7-2.9-1.7-5.7-2.4-8.6c-1.5-5.9-2.4-11.8-3.3-17.8C384.5,560.6,379.6,561.9,380.1,565.1L380.1,565.1z"/>
	</g>
</g>
<g>
	<g>
		<path fill="#FFF100" d="M378.8,557.6c0.6,4.2,1.3,8.3,1.8,12.5c0.4,3.1,5.4,3.2,5,0c-0.6-4.6-1.3-9.2-2-13.9
			C383.1,553.1,378.3,554.4,378.8,557.6L378.8,557.6z"/>
	</g>
</g>
</svg>
