<?xml version="1.0" encoding="utf-8"?>
<!-- Generator: Adobe Illustrator 23.0.1, SVG Export Plug-In . SVG Version: 6.00 Build 0)  -->
<svg version="1.1" id="레이어_1" xmlns="http://www.w3.org/2000/svg" xmlns:xlink="http://www.w3.org/1999/xlink" x="0px"
	 y="0px" viewBox="0 0 595.3 841.9" enable-background="new 0 0 595.3 841.9" xml:space="preserve">
<g>
	<g>
		<path fill="#434241" d="M2326,429.6c3.2,0,3.2-5,0-5S2322.8,429.6,2326,429.6L2326,429.6z"/>
	</g>
</g>
<polygon fill="#434241" points="141.9,219.5 143.9,219.5 142.2,674.5 140,674.5 140.7,220.4 140.7,218.6 "/>
<path fill="#434241" d="M475.2,214.9l-3.5,169.5v191.9c0,0,0.6,12.3,0,16.4c-0.6,4.1-0.6,80.5,0,87.5c0.6,6.9-2.8,5.7-2.8,5.7
	s-2.4-9.1,0-20.1c0,0-0.5-0.9-0.8-2.2c-0.4-1.3-2-29-1-31.4c0,0-0.2-18.5,0.3-20.9c0.5-2.4,0.8-25.7,0.8-25.9s0-24.5-0.3-28.8
	c-0.3-4.2,0-8.5,0-11c0-2.5-0.3-28.2,0.5-31.8c0,0,0-8-0.2-11.6c-0.2-3.6,0-42.3,1.1-46.7c0,0-1.3-82.4,0.2-86.8l2.4-149.6
	L475.2,214.9z"/>
<path fill="#FFFFFF" d="M141.9,663.7c0,0,1.1-0.8,2.5,0.8c1.3,1.6,11.8,12.4,20.3,18.1s15.7,9,18.1,9.9c2.4,0.8,2.1,1.4,2.8,1.7
	c0.7,0.3,33.8,12.5,44.6,14.4s35.7,5.5,54.6,6.8s36.5,1.6,49.5,0c13.1-1.6,35.1-4.2,43.4-7.2c0,0,6.4-0.2,7.9-0.8
	c1.5-0.6,2.4-0.8,3.1-1c0.7-0.2,1.6-0.4,2.7-0.8s4.3-0.9,6.5-1.9c2.2-0.9,4.8-2.4,7.6-2.7c2.7-0.3,5.2-2.8,5.2-2.8s2.7-0.5,4.3-1.6
	c1.6-1,23.8-11.6,32-17c8.2-5.3,14.8-9.2,18.6-13.5c0,0,2.3-2,2.1,1.6s-0.2,3.5-0.2,3.5s-22.2,17.9-51.4,29.8c0,0-2.9,2.2-11.4,5
	c-8.5,2.9-26.1,9.7-48.2,11.5c0,0-29.6,6.4-57.6,3c0,0-54.1,1.1-92.2-13.7S156,683.8,150,677.1c0,0-7.3-6.4-8.8-8.1
	S141.9,663.7,141.9,663.7z"/>
<path fill="#77583F" d="M266.2,456.9c0,0-24.7,17.6-15.9,55.4c8.8,37.8,47.8,44.5,61.9,40.3c14.1-4.2,41.7-13.6,44.7-45.5
	c2.9-31.9-11.3-54.3-46.6-61.9C310.2,445.2,285.3,440.4,266.2,456.9z"/>
<path fill="#CDC9BD" d="M227.9,414.2c-0.1-0.1-0.2-0.2-0.3-0.3c-0.3-0.2-0.6-0.5-1-0.7c-1.5-0.9-3.9-1.3-5.5-0.5
	c-0.8,0.4-1.3,1.1-1.7,1.9c-0.2,0.4-0.3,0.9-0.4,1.3c-0.3,1.2-0.1,2.4,0.5,3.4c0.2,0.4,0.5,0.7,0.8,1c0.6,0.6,1.1,1,2,1.2
	c0.7,0.1,1.5,0.1,2.3,0c0.5,0,1.2-0.1,1.5-0.6c0.9-1.1,0.7-2,0.7-2s1.1,1.2,1.8,2.1s0.8,1,0.3,1.6s-2.6,2.8-7.7,1.8
	c-5.1-0.9-7.7-6-7.4-8.9s3.4-6.8,7.7-6.6c4.2,0.2,7.8,2.2,7.7,3.4l-1,2C228.3,414.4,227.9,414.2,227.9,414.2z"/>
<path fill="#CDC9BD" d="M237.7,412.8c0,0-3.8,3.4-2.8,6.1c0,0-0.6-0.5-0.8,0s-1.3,7.9,7.3,9.7c0,0,8,0.6,9.8-4.5
	c1.8-5-0.2-9-4.6-11.2C246.6,412.8,242.8,410.5,237.7,412.8z"/>
<path fill="#234B96" d="M241.9,415c0,0,4-1.2,6.2,3.5s-3,6.7-4.4,6.7s-5-1-5.2-4.1c-0.2-3.1,0.6-3.9,1.4-4.9
	C240,416.2,241.6,415.8,241.9,415z"/>
<path fill="#CDC9BD" d="M258.5,415.9c0,0-0.5,3.5-0.4,7c0.1,3.5,0,6.1,0,6.1h3.7c0,0-0.4-7.2,0-7.5c0.4-0.3,0.6-1.5,0.6-1.5
	s5.4,9.8,6.8,10s3.3,0,3.3,0s0.6-11.5,0.9-12.7c0.3-1.3-0.6-1.9-1.8-1.9c-1.2,0-1.4-0.2-1.7,2.5c-0.3,2.7-0.5,5.3-1.4,5.3
	c0,0-2.5-3.3-4.2-6.3c-1.7-3-3.4-2-4-2C259.6,414.8,258.6,414.6,258.5,415.9z"/>
<path fill="#CDC9BD" d="M280.4,416.9v14.4h9.2c0,0,7.2-0.6,7.1-8.4s-6-6.6-6-6.6l-10.3-0.1V416.9z"/>
<path fill="#234B96" d="M284.3,419.5v6.1c0,0,1,0.8,1.3,1.5c0,0,5.7,1.3,7.4-3.1c0,0,0.7-3-2.4-4.6H284.3z"/>
<path fill="#CDC9BD" d="M303.8,418.1l-0.5,13.7h13.2v-3.3l-7.9-0.3c0,0-2.1-1.2,0-2.6l7.9,0.1c0,0,1.7-1.8,0-2.6h-8.7v-2.9h9.5v-3.3
	h-12.5C304.9,416.9,303.9,417.1,303.8,418.1z"/>
<path fill="#CDC9BD" d="M325.6,415.8c0,0-1.3,15.5-0.6,15.5c0.7,0,2.4,0.5,2.8-2c0.3-2.4,0.2-7.4,1.7-7.2c0,0,6.7,8.8,7.7,8.8
	s2.2-0.3,2.2-1.3s0.9-13.8,0.9-13.8s0.3-1-1.5-0.9c-1.8,0.1-1.3,8.2-1.9,8.6c-0.6,0.4-0.7,1.4-2.4-0.4c-1.7-1.8-5.9-8.1-7.4-7.7
	C325.6,415.8,325.6,415.8,325.6,415.8z"/>
<path fill="#CDC9BD" d="M353.4,416.9c0,0-1.9,0.2-2,1.5c-0.1,1.3,1.5,1.5,3.5,1.9c2,0.4,7.2,1.3,7.2,5.3c0,4-6,5.1-7.7,5.1
	s-6.4,0-6.4,0v-3.8c0,0,3.4,1.6,5,1.3c1.7-0.2,6-1.4,4.2-3.9c-1.8-2.4-7.4,0.5-9.8-4c-1.4-5,2.3-6.3,4.2-6.4c2-0.2,6.4-0.9,7,1
	c0.6,1.9-0.5,2-2.6,2C354,416.9,353.4,416.9,353.4,416.9z"/>
<path fill="#CDC9BD" d="M367.6,413.6v14.7c0,0,10.9,0.4,11.7-0.9v-2.5l-7.6,0.2c0,0-0.9-0.2-0.2-2.4c0,0,6.8-0.8,7.8-1.6v-2.1
	c0,0-6.8,0.9-7.9,0.3c-1.1-0.6-0.9-3.1-0.5-3.3c0.5-0.2,8.1-1,8.1-1l-0.1-2.7C379,412.1,368.2,412.6,367.6,413.6z"/>
<path fill="#CDC9BD" d="M384.3,409.8l0.6,15.8c0,0,10.7,1,12.8-8.7c0,0,1.1-7.2-5.3-7.7S384.3,409.8,384.3,409.8z"/>
<path fill="#234B96" d="M387.8,414.1l0.4,7.1c0,0,3.6,0.7,5.2-2.8s0.2-5.7-1.5-6.3C390.2,411.5,387.8,414.1,387.8,414.1z"/>
<path fill="#3D3C3E" d="M170,286c0,0,2.8-0.1,3.8,2.9c0,0-0.4,0.9-1.6,1.5c-1.2,0.6-3.8,6.6-2.8,9.3c0,0,0.8,1.3-0.2,1.4
	c-1,0.2-3.6,0-3.6,0l1.5,2.5l1.7,4.6l-3.3,0.7c0,0-4.3-2-4.1-9.2c0,0,0.2-2.8,1.9-4.6l1.3-5.2L170,286z"/>
<path fill="#3D3C3E" d="M215.3,288.7c0,0,1.6-0.7,1.5-1.5c-0.1-0.8,5.9,7-0.6,18.2c-6.5,11.3-21,12.1-30.4,12.1h-3.2
	c0,0-11,17-10.9,38.4c0,0,0.7,4.4,2.1,7.3s-3.2,1.5-3.2,1.5l-3.9-7.1l-2.4-23.9c0,0,2.7-14,3.3-15.3c0.6-1.3,4.9-9.7,4.9-9.7
	l3.7-5.5l4.7-0.5c0,0,1.6-8.7,16.5-18.9c0,0,18.7-3.1,14.1,7.3L215.3,288.7z"/>
<path fill="#3D3C3E" d="M187.6,329.2l0.7-2.8c0,0,8.9,2.4,6.9,21.8c0,0-3.9,12.1-8.6,16.4c-4.7,4.2-8.3,7.1-11,5.4
	c0,0-0.8-1.1,0-1.6c0.8-0.4,14.8-10.9,14.5-24.1c-0.3-13.1-2-12.2-2-12.2l-1.9-1.7L187.6,329.2z"/>
<path fill="#3D3C3E" d="M186,333.7c0,0-0.2-0.6-2.4,1.7c0,0-2.6,3.7-3,13.1c0,0-0.1,0.6,0.5,0.9c0.6,0.3-0.5,1.4-1.6,0.7
	c-1.1-0.7-3.4-1.5-3.4-3.8s0.6-5.8,0.6-5.8l1.4-6.3l2-2.8l2.6-1.7l2.2,1L186,333.7z"/>
<path fill="#E0DBD1" d="M167.1,284c0,0-4.2,4.4-4.4,6.5c-0.8,1.9-0.8,9.2,4.4,14.5c0,0-18,36.1,0,59.6c0,0,7.3,8.6,14.3-2.1
	c6.9-10.7,14.1-20.3,7.8-32.5l-1.4-1.6c0,0-0.1-1.9-1.8-1.9s-6.6,3-8,6.6c-1.4,3.6-4.2,12.1-1.6,14.2l0.4,0.4c0,0,0.6-10.9,2.8-13.6
	c2.1-2.8,5.3-5.4,6.3,2.2c1,7.6-2.5,16.8-8.3,22.3c-5.7,5.6-6.8,3.4-9.4-4.4c-2.6-7.8,1.8-32,10.2-41.4c0,0,30.5,1.7,37.6-21.6
	c0,0,1.7-6.3-4.2-9.4c-5.9-3.1-10.8-2.6-20.9,1.8S171.3,300,171,300.9c-0.3,0.9-2.7,2-4.5-0.2c-1.8-2.1-3-7.3-0.3-10.8
	c2.7-3.5,5.6-3.5,5.6-3.5S171.3,283.8,167.1,284z"/>
<path fill="#3F3C39" d="M180.1,309.2c0,0,1.8-7.5,7.6-12.8c5.7-5.3,14.1-15.3,22.2-9.8c0,0,1.5,1.9,0.9,4.6l-1.5,1.3l-20.8,12.7
	l-4,4.1H180.1z"/>
<path fill="#234B96" d="M209.9,292c0,0-2.4-2.3-7.4-1.3c0,0-2.6,0.5-4.5,2.2c-1.9,1.7-3,2.3-3.5,2.6c-0.6,0.3-4.6,5.3-5.4,6
	c-0.9,0.6-3.9,7.4-3.9,7.4l-0.7,0.3c0,0,13.1-1.9,17.9-6.7S208.2,296.6,209.9,292z"/>
<path fill="#3D3C3E" d="M196,372c0,0-0.9,2.6,0.7,4.2c1.7,1.6,7.4,2.6,11.6-2.1c4.2-4.7,2.9-7.7,2.9-7.7h-2.8l-4.8,3.1l-4.4,3.2
	L196,372z"/>
<path fill="#3D3C3E" d="M214.5,376c0,0-0.9,1.7,0.6,3.1c1.6,1.3,4.2,5.1,10.7,0l10.3-15l3.3-5.9l-0.7-2.7l-2,1.5l-2.1,1.3l-2.4,3.9
	l-3.4,4.3l-4.7,5.6l-2.9-0.5L214.5,376z"/>
<path fill="#3D3C3E" d="M221.2,370.5c0,0,2.9,0.2,3.5-3.2c0,0,7.3-14.9,8.3-17.1s4.9-12.5,4.9-12.5s0.8-1.5-0.9-2.4
	c0,0-1.6-1.5-1.6-1.9s-1.3-0.3-2.3,0.6s-16.9,29.3-16.9,29.3v7.3L221.2,370.5z"/>
<path fill="#3D3C3E" d="M229.3,377.9c0,0-1.9,1.1-1.4,2.8c0.5,1.7,2.2,4.3,4.6,4.3s6.6,0,6.6,0s1.3,0.6,3-3.5
	c1.7-4,15.2-31.4,16.1-31.9s1.5-1.4,3.6-0.6c2.1,0.8,2.9-3.5,2.9-3.5s-4-1.8-4.2-1.8c-0.2,0.1-5.3,0-5.3,0l-6.5,2.8l-7.2,12.8
	l-4.1,10.4L229.3,377.9z"/>
<path fill="#3D3C3E" d="M248.6,379.2c0,0-2.3,1.3-2,2.4c0.3,1.2,3.8,5.1,5.2,5c1.4-0.2,8.2-0.9,8.2-0.9s0.8-0.6,2-3.2
	c1.3-2.6,14.6-30.8,14.9-31.1c0.3-0.2,3.9-2.9,3.9-2.9v-4.8l-8.2,1.2l-6.1,4.2l-6.3,11l-5.9,15.7L248.6,379.2z"/>
<path fill="#3D3C3E" d="M290,340.9c0,0,0.7-3.4,2.7-1.3s5.3,6.5,2.4,12.6s-11.1,20.4-11.1,20.4l-3.1,4.5l-10.5,1.8
	c0,0,8.4-10.1,8.4-10.3c0-0.2,2.5-14.6,2.5-14.6L290,340.9z"/>
<path fill="#3D3C3E" d="M268,380.8c0,0-2.4,4.6,2.8,7.3c5.3,2.7,10.5-3.7,12.5-6.4c2-2.8,11.8-9.8,11.8-9.8l6.8-12.4l-4.3-1.6
	l-3.4,1.5l-2.3,2.3l-1.3,2.1l-2.4,3.6l-2.8,3.9l-1.8,3.1l-2.8,3.5l-8.9,3.3L268,380.8z"/>
<path fill="#3D3C3E" d="M273,406.9c0,0-1.8,1.4-1.3,2.4c0.6,1,3.2,3.5,3.2,3.5l7.9-0.6c0,0,0.5,0,1.2-1.9
	c0.7-1.9,12.1-23.2,12.1-23.2s0.8-1.6,1.7-0.5c0.9,1.2,5.7,6.6,14.1,1.6c8.4-5,13.4-11.2,16.7-16.9c3.3-5.7,7.5-14.7,8.3-19.1
	c0,0,6.6-4.1,7.5-6.5l-1-1.9l-3.4,0.8l-2.2,0.2c0,0-6.4,2.4-6.7,2.4c-0.2,0-21.1,33-21.1,33l-6.4,1.5l-3.5-1.3l-4-3.6l-5.5,4
	l-12.2,19.9L273,406.9z"/>
<path fill="#3D3C3E" d="M321.6,328.9c0,0,4.2,3.3,3.9,4.8c-0.3,1.5-10.3,9-10.3,9l-3.1-0.6l1-6.7l5.9-5.3L321.6,328.9z"/>
<path fill="#3D3C3E" d="M388.1,297.5c0,0,3.2-1,3.4,2.1c0.2,3.1-0.2,12.1-8.7,19.4c-8.5,7.3-12.8,10.6-14.9,11.8
	c-2,1.2-8.8,4.6-9.3,5.8c-0.5,1.2-5.7,0.4-5.7,0.4l6.4-8.9l4-0.5l6.3-4.5l5.2-5.3l5.9-6.1l6-9.9L388.1,297.5z"/>
<path fill="#3D3C3E" d="M371.4,335.8c0,0,0.6-1.9,2.8,0.6c2.1,2.5,3.7,4.4,3.6,6.9c-0.1,2.5-0.9,4.6-0.9,4.6l-4.7,1.7l-3-3.2
	c0,0,0.7-2.9,0.7-4.9C369.9,339.6,371.4,335.8,371.4,335.8z"/>
<path fill="#3D3C3E" d="M337.5,382.2c0,0-2.4,0.9-1.8,1.5c0.6,0.6,4.3,6.6,15.7,0c11.4-6.6,18.9-17.5,21.2-27.7c0,0,1.7-0.7,3.3-0.8
	c1.6-0.1,4.2,0,4.2,0s1.3-2.3,1.4-3.5h4c0,0,2.5-1.5,0.9-4.4c-1.7-2.9-4.2-2.7-4.2-2.7l-2.3,1.3l-5.3,1.3l-7.8,3l-5.9,15.4l-7.7,9.1
	l-8.7,3.8L337.5,382.2z"/>
<path fill="#3D3C3E" d="M385.5,369.6c0,0-0.8-3-0.2-4.9c0.7-1.9,5.5-7.4,10.8-8.7c0,0,4.9-0.7,5.9,0c1,0.7,1.3-5.9,1.3-5.9h-0.9
	c0,0-2.1-3.2-5.7-2.4s-10.3,4.9-10.3,4.9l-5.8,3.9l-4.9,13.8l5.6,5.8l5.7-2.8L385.5,369.6z"/>
<path fill="#3D3C3E" d="M367.6,372.1c0,0-1.9,7.6,4.6,11.3c6.4,3.7,11.8,2.6,18-4s11.1-10.7,11.1-10.7s-0.1-2.9-0.8-3
	c-0.7-0.1-5.4,0-5.4,0l-4.9,3.5l-5.9,3.3l-10.7,2.3L367.6,372.1z"/>
<path fill="#3D3C3E" d="M397.2,373.4c0,0-1.8,6.4,1.9,8.1s10.7-1.7,15.8-10.9c5.1-9.2,5.3-6,5.3-6l-3.6-2.7l-4.5,2.9l-7,4.6
	L397.2,373.4z"/>
<path fill="#3D3C3E" d="M416.8,369.9c0,0,1.9,5.7,6.9,5.7c5,0,7-8.9,7.8-8.9s2.3,5,8.1,4.5c5.8-0.5,5.7-6.8,6.7-8.1
	c0,0,2.7,2.7,4.5,2.1c1.8-0.6,6.5-6.1,6.2-14.5c0,0-1.9-0.9-2.6,0.7s-4.4,5.2-4.4,5.2l-4.7-1.4l-10.8,6.4l-3-1l-4,2.4l-6.6,4.3
	L416.8,369.9z"/>
<path fill="#3D3C3E" d="M404.1,327c0,0,4.2-2.1,4.9,1.2c0.7,3.3,0.5,11.6-7.2,16.5c0,0-7,3-9.5,2.7c-2.5-0.3-4.8-2.7-4.8-2.7l4-2.8
	l4.8-3l5-3.7L404.1,327z"/>
<path fill="#3D3C3E" d="M433.7,289.8c0,0,3.9,2.1,2.8,6.6c-1.1,4.6-9.4,24.7-10.5,28.6s-2.1,6-2.5,7c-0.4,1-1.3,3.6-1.3,4.3
	c0,0.7-1.6,2.7-1.9,4c-0.3,1.3-4.9,12.3-5.1,13.1c-0.2,0.8-4.4,9.5-3.7,10.5s-2.9,4.6-2.9,4.6l-5.8-1.7l3.1-12.5l6.9-12.6
	c0,0,4.4-13.8,4-14.2c-0.4-0.3,3.5-11.4,3.5-11.4l3.9-8.5l3.9-12.2l3.3-5.1L433.7,289.8z"/>
<path fill="#3D3C3E" d="M448.3,286c0,0,4.3-1.3,4.3,1.8s-3.5,17.7-5.1,21.6c-1.7,3.9-11.4,29.5-12.2,31.6c-0.7,2.1-3.5,8.1-3.1,10.7
	c0.3,2.6-5.7,13.9-5.7,13.9l-3.4-3.7l-1.6-10.4l8.5-17.2l4.6-15.5c0,0,4.6-11.5,4.7-11.8c0.1-0.3,4.7-14.3,4.7-14.3L448.3,286z"/>
<path fill="#3D3C3E" d="M453.3,287.7c0,0,5.9,0.5,4.9,6c-1,5.5-4.4,11.3-10.7,10.8l0.8-2.7l4.2-3.4l1.1-7.4L453.3,287.7z"/>
<path fill="#3D3C3E" d="M452.6,313.5c0,0,2.1-1.5,2.6-0.8c0.5,0.8,0.1,8.3,0,11.9c-0.1,3.6,0,20.8-1.7,24.2c-1.7,3.4-2,4.7-2,4.7
	l-4,0.5l-0.7-3.3c0,0,2.4-5.1,2.2-6.1c-0.2-1,0.4-9.4,0.4-10.1c0-0.8,0.6-8.7,0.6-8.7s0-6.7,0-7C450,318.6,452.6,313.5,452.6,313.5z
	"/>
<path fill="#E0DBD1" d="M222.1,335.9c0,0-1.6-6.3-5.9-7.7c-4.3-1.4-12,5.6-14,7.7c0,0-9.3,12.3-9.4,22c-0.1,9.8-0.7,13.6,6.3,16.5
	c0,0,6.3,0.6,9.3-6.6c0,0,1.9-2,2.1,0.7s-0.1,8.6,5.2,8.5c0,0,4.7-1.7,6-2.8c1.2-1.2,1.2,0.2,2-0.3s10.1-11.4,12-15.5
	c0,0,2.7-1.9,1.6,0.9c-1.1,2.8-9.4,18.7-9.4,18.7l0.5,0.9h10.3c0,0,12.4-34.3,19.5-33.8c0,0,3.7-0.3,3.1,3.4c0,0,0.6,1.2-0.7,3.5
	c-1.3,2.4-13.2,27.9-13.2,27.9h8.8c0,0,13.2-29.9,18.1-33.4s5,0.4,4.8,1.9c-0.2,1.5-11.6,26.4-11.6,26.4s-2.8,8.5,2.8,8.6
	c5.7,0.1,9.5-0.9,15.4-9.3c5.9-8.4,7.9-13.5,10.4-12.5c0,0,1.2,1.1-0.7,3.4s-17.8,28.3-20.1,34.7c0,0-1.2,3.1-1.6,3.8
	c-0.3,0.6-2.1,4-2.1,4l0.5,0.4h9.1c0,0,13.3-27.8,14.5-28.3c1.2-0.5,2.2-0.1,2.3,1.6s4.3,10.5,16,1.3s20.2-26.8,20.4-34.2v-0.8
	c0,0,1.7,0,4.5-1.4c2.8-1.4,4.2-1.4,3.7,0.5c-0.5,1.9-1.7,3.3-2.3,4.5c-0.6,1.3-4.6,11.2-5.2,12s-1.4,0.6-1.8,3.7
	c-0.4,3-5.1,17.3,9.4,16.8c0,0,14.8-2.1,26.4-27.6c0,0,1.6-3.4,2.2-5.1c0,0,8.8-1,10.8-4.3c0,0,3.9,2.5,6.6,2.5c0,0-1.8,1.6-4.3,2.5
	s-12.5,5.7-16.7,19.5c0,0-0.5,7,6.7,9c7.2,2,15.7-7.4,15.7-7.4s5.2-5.4,5.7-4.6c0.4,0.8-0.1,8.5,4.4,8.3c4.5-0.2,8-0.6,12.3-9.4
	c0,0,1.5-3.3,2.8,0.1c1.4,3.4,3.5,5.7,6.8,4.6c3.4-1,5-4.6,6.8-7.2s2.4-3.4,4.2-1c1.8,2.3,3,3.7,5.6,3.7c2.5,0,4.6-2.8,5.7-5.2
	c1-2.4,2.1-3.9,2.8-3.4c0.7,0.5,3,3.3,6,0.3c2.9-2.9,2.6-9,2.3-9.8c0,0-0.4-0.2-1.5,0.9c-1,1.2-4,4.9-5,2.5c0,0,1.7-2.5,2.1-4.5
	c0.4-2,1.2-16.4,0.8-23.7c0,0,0.5-8.6,1.6-9.6s-0.6-1.9-0.6-1.9l-4,0.5c0,0-13.1,33.2-16.8,37.1c0,0-4.7,9.8-4.6,11.2
	c0,0-0.7,2-1.5-0.7s7-21.1,7.9-23.7c0.8-2.6,15.4-48,15.6-50.6c0,0,0.1-0.8,0.8-1c0.7-0.2,0.1-0.8-1.2-0.4c-1.2,0.3-6,1.8-6,1.8
	s-14.3,39.3-14.6,42.3c0,0-3.6,9.9-5,12.5s-4.7,7.9-5.3,9.6c-0.6,1.8-5.9,10.7-6.6,11.1c-0.7,0.4-1.7,2-1.8,2.8c0,0-2.2,2.2-2.4-1
	c0,0,15.4-46.2,17.3-51.4c1.9-5.1,8.4-20.3,7.9-21.5c-0.5-1.2,0.9-1.4,0.9-1.4s2.2-1-6.5,0.2c0,0-16,41.7-17.3,44.6
	c-1.3,2.8-1.9,5-2.2,6.1c-0.3,1-1.8,1.8-3.1,4.8c-1.4,3-7,16.5-11.7,19.7c-4.7,3.3-7.1,4.2-7.1,4.2s0.2,0.7-1,0.8
	c-1.3,0.1-6.1-0.1-4.9-5.5c1.2-5.3,8.6-11.6,14.7-12.5l2.5-0.1l1.9-4.9c0,0-2-0.2-4.6-1c-2.6-0.7-4.4-2.2-1.3-3.7
	c3.1-1.5,16.4-7.9,13.8-16.5c0,0-1.7-4.2-10.4-0.9c-8.7,3.3-15.4,14.2-15.4,18.4c0,0-4.2,3.9-7.9,2.7c0,0-0.8-0.3-0.1-2.6
	c0.7-2.3,0.5-12.4-5.9-10.5c-6.4,1.9-8.3,2.8-8.3,2.8s-2.6,0.4-0.8-2.1s16.5-12,21.2-17.6c4.7-5.7,12.4-14.2,9.8-20.9
	c0,0-2.5-2.7-6.4-0.2c-3.9,2.5-9.3,6.9-13.1,12c-3.8,5-18,25.2-18.7,26.2c-0.6,1-2.7,4.7-4.2,5.9s-8.6,4.9-10.5,4.8
	s-1.6,0.2-1.6-1.9s-2-8.2-8.1-7.1c0,0-8.2,3.3-10.2,6c0,0-2.1,0.7-0.4-2.6c1.7-3.4,6-9.8,6-9.8l-11.3-0.1c0,0-1.7,3.7-7.8,14.4
	c-6.1,10.7-19.3,31.8-22.7,32.2c-3.4,0.4,0.1-5.3,1.2-7.1c1-1.8,15.6-25,9-29c0,0-3.9-3.6-8-2.4c-4.1,1.2-9.9,7.1-9.9,7.1
	s-0.2-7.6-3.3-8.3c-3-0.7-8.9,0.5-13.6,6.1c0,0-2.3,2.5-2.2-0.9l3.4-5.3l-9.5-0.5c0,0-11.3,23.3-18.9,31.3c0,0-3.4,5.5-6.6,3.6
	c-3.3-1.9,4.1-15.7,4.1-15.7l9-20.3l-10.3-0.9C224.3,332.7,223.5,336.1,222.1,335.9z"/>
<g>
	<path fill="#234B96" d="M204.3,364.2c0.9-1.3,0-2.4,3.7-11.2s7.7-9.5,8.7-9.2s0,1.9,0,1.9l1.4-0.2c1.2-2,2.7-4.5,3-5.5
		c0.6-1.8-0.8-3.5-0.8-3.5c-5.2-4.7-7.6,1.9-9.4,3.5s-5.3,7.8-7.6,13.1c-2.4,5.3-1.9,12-1.9,12s0.4,0.5,1,0.8
		C203.1,365.4,203.8,364.8,204.3,364.2z"/>
	<path fill="#234B96" d="M204.7,365.7c0.6-0.2,1.9-1.1,2.4-1.5s1.6-1.2,1.7-2.3c0.2-1.1,7.4-13.4,7.4-13.4s0.9-1.4,1.9-3l-1.4,0.2
		c0,0,0.9-1.6,0-1.9s-5,0.4-8.7,9.2s-2.8,10-3.7,11.2c-0.4,0.6-1.2,1.2-1.9,1.7c0.4,0.2,0.8,0.4,1.2,0.4
		C204.7,366.3,204.7,365.7,204.7,365.7z"/>
</g>
<path fill="#E0DBD1" d="M454.5,287.6c0,0-3-1.7-3.5,1.6c-0.4,3.3,0.3,8.7,0,9.8c-0.3,1-0.9,2.9-0.9,3.2s-0.7,2.1-1,2.1
	c0,0,4.4-3,5-6c0.6-2.9,1.9-6.7,0.4-8.4C453,288.1,454.5,287.6,454.5,287.6z"/>
<path fill="#234B96" d="M319.4,347.9l-12,13.3l-5.5,16.7c0,0,1,2.4,5.5-1.4c4.5-3.9,16-21.2,13.3-29.1L319.4,347.9z"/>
<path fill="#3D3C3E" d="M320.8,349.9c0,0-0.9,1.7-2.8,0.6c0,0-10.5,14.6-13,23.8c0,0-0.9,3.4-1.3,3.9c-0.4,0.5-2.7,2.3-3.5,0
	c-0.9-2.3,0.5-8.7,2.3-12.4c1.8-3.7,9.4-22.3,16.5-22.1C319.1,343.7,322.7,345,320.8,349.9z"/>
<path fill="#234B96" d="M364.6,345.8c0,0-5.1,19.3-16.2,26.9l-2.8,0.7l2.5-10.1l2.1-6.8l5.3-8.3l3.6-3.9l3.1-1L364.6,345.8z"/>
<path fill="#3D3C3E" d="M364.6,345.8c0,0-1,1.4-2.1,0c-1.1-1.4-0.9-0.9-2.9,0.6c-2,1.5-14.5,19.8-11.2,26.3c0,0-2.7,3.9-5,0.9
	s3.6-19.2,10.3-28.7c6.7-9.5,9.4-4.7,10.9-2.8C364.6,342.2,365,344.9,364.6,345.8z"/>
<path fill="#3D3C3E" d="M390.3,340.4c0,0-0.5-3.8,2.3-6.9c2.8-3,5.2-5.9,7.1-3.4c0,0,1.4,1.3-1.3,3.9c-2.7,2.6-5.3,5.2-5.8,5.9
	C392,340.7,390.5,341.6,390.3,340.4z"/>
<path fill="#234B96" d="M445.4,336.4l-7.8,18.1c0,0,2.3,0.8,3.6,0c1.3-0.8,6.4-7.2,6.2-14.8C447.5,339.7,447.3,336.1,445.4,336.4z"
	/>
<path fill="#3D3C3E" d="M445.7,329.7c0,0-0.6-0.4-1.3,2.1c-0.7,2.5-3.5,11.3-4.7,13.8c-1.2,2.4-4.1,8.5-5,8.9s0.2,1.5,1.3,0.9
	c1-0.6,1.9-0.9,1.9-0.9s4.8-6.1,6.1-11.2c1.3-5.1,2.6-7.1,2.6-7.1S447.2,330.3,445.7,329.7z"/>
<path fill="#234B96" d="M364,325c0,0,5.9-3.7,13.1-12.3c7.2-8.6,6.7-11.7,5.3-12.2c-1.3-0.5-11.4,13.5-11.4,13.5l-7.1,9.3V325z"/>
<path fill="#3D3C3E" d="M383,301.9c0,0,1.5-1.9,0-2.7c-1.5-0.8-3.6-0.2-7.7,4c-4.1,4.2-14.3,20.7-13.7,22.6c0,0,1,0.4,2.4-0.8
	s1.3-1.2,1.3-1.2s12-16.4,13.3-17.7C379.9,304.9,381.5,302.2,383,301.9z"/>
<path fill="#FFFFFF" d="M143.3,242.5c0,0,4.1,3.3,5,4c0.9,0.6,3.5,3.1,4.9,3.9c1.4,0.8,28.5,18.2,76.1,23.6s105,9.8,154.3,4.4
	s88.4-27.9,88.1-33.3v-2.6v-0.8c0,0,1.4,0.1-5,4.2s-20.8,12.3-29.1,14.2c-8.3,1.9-14.2,4.4-17.6,5.3c-3.4,0.9-9.9,3.3-12.1,3.3
	c-2.2,0-5.1,1.3-6.6,1.8s-8.8,1.5-10.9,1.3c-2.1-0.2-5.9,0.2-7.8,0.8c-1.9,0.6-21.9,2.9-28.9,2.7s-68.1,1.2-89-1
	c-20.9-2.2-81.9-11.8-95.3-19.7c-13.4-7.9-26-16.2-26.1-18.4V242.5z"/>
<path id="SVGID_x5F_1_x5F_" fill="none" d="M321.2,499.9c25.3,9.2,47.2,13.8,63.3,16.3c65.8,10.3,117.1-1.7,133.8-6.1
	c17.8-4.7,32.1-10.2,41.9-14.3"/>
<text><textPath  xlink:href="#SVGID_x5F_1_x5F_" startOffset="26.823%">
</textPath>
</text>
<rect x="450.3" y="578.8" transform="matrix(7.976035e-02 -0.9968 0.9968 7.976035e-02 -156.5822 1004.5156)" fill="none" width="30.9" height="16.5"/>
<g>
	<g>
		<path fill="#95CBEE" d="M323.4,538.9c-11.1-6.4-22.5-12.9-31.6-22.1c-4.3-4.3-8-9.3-10.8-14.7c-1.5-3.1-2.7-6.3-3.5-9.6
			c-0.3-1.2-1-3.1-0.7-4.3c-0.6-1.6,0.1-2.1,2.3-1.4c1.2,0.1,2.4,0.4,3.6,0.9c6,2.1,11.3,6.9,16.4,10.5c6.1,4.3,11.2,8.1,14.8,14.9
			c3.4,6.5,6.5,13.2,9.3,19.9c0.6,1.5,1.3,2.9,1.8,4.4c1.1,3.1,0.8,0.7-0.9,2.5c-1.6,1.7-2.6,2.9-3,5.2c-0.6,3.1,4.2,4.5,4.8,1.3
			c0.7-3.5,4.9-3.3,4.9-7.1c0-3.1-2.7-7.5-3.9-10.3c-3.4-8-6.8-16.9-11.9-23.9c-4.6-6.4-12.3-10.5-18.6-15c-5.5-3.9-11.8-9-19.1-8.3
			c-13.8,1.5,1.4,26.8,5.5,32.2c10,12.9,24.3,21.3,38.3,29.3C323.6,544.9,326.1,540.6,323.4,538.9L323.4,538.9z"/>
	</g>
</g>
<g>
	<g>
		<path fill="#95CBEE" d="M275.6,487.4c4.4,11.1,8.1,23.2,15.3,32.7c7,9.3,18.3,14.8,27.9,21c2.7,1.8,5.1-2.5,2.5-4.3
			c-10.4-7.2-21.9-13.8-30.7-22.8c-4.6-4.7-8.5-10.4-10.1-16.9c-0.4-1.6-0.7-3.2-0.8-4.9c-0.1-1.2-0.6-3.5-0.6-1.2
			c0.1,2.3,1.1,5.1,1.8,7.3c5.9,18.4,21,32.9,39.5,38.3c3.1,0.9,4.4-3.9,1.3-4.8c-12.4-3.6-23.2-11.7-30.2-22.6
			c-3.4-5.2-5.8-10.9-7.1-17c-0.8-3.3-2.4-8.7-7.1-6.8c-4.4,1.8-2.7,8.8-1.9,12.3c1.4,5.9,4.4,11.4,8.2,16.1
			c9.3,11.4,23.1,19.1,35.1,27.4c0.8-1.4,1.7-2.9,2.5-4.3c-9.3-6-20.4-11.4-27-20.5c-6.5-9-9.9-20.1-13.9-30.3
			C279.2,483.1,274.4,484.4,275.6,487.4L275.6,487.4z"/>
	</g>
</g>
<g>
	<g>
		<path fill="#95CBEE" d="M300.4,489.7c-1.5-4.3-3.9-10.3-3.5-14.9c-0.7-1.6-0.1-2.5,1.7-2.8c0.9,0.4,1.8,0.9,2.6,1.4
			c1.5,0.9,3,1.9,4.4,3c6.7,5.4,11.5,13,14.4,21c3.3,9,4.1,18.3,5.6,27.7c1.2,7.4,9.2,6.6,15.2,7.5c-0.2-1.5-0.4-3-0.6-4.6
			c-2.3,1.2-4,2.9-5.1,5.4c-0.2,0.7-0.5,1.4-0.7,2.1c-0.6,1.2-0.2,1.1,1.2-0.1c0.2-1.3-1.9-4.8-2.4-6.1c-1.2-3-6-1.7-4.8,1.3
			c1.1,2.9,2.3,10.3,6.3,10.5c4.5,0.3,4.9-7.1,8-8.7c1.8-0.9,1.6-4.2-0.6-4.6c-2.8-0.4-6.9-0.4-9.5-1.5c-2.6-1.1-2.3-3.7-2.6-6.4
			c-0.7-5.4-1.5-10.8-2.8-16c-2.4-9.4-6.4-18.5-12.8-25.9c-2.7-3.2-5.9-6-9.5-8.2c-2.6-1.6-6.8-4.5-10.1-3.2
			c-7.4,2.9-1.1,19.8,0.6,24.5C296.7,494,301.5,492.7,300.4,489.7L300.4,489.7z"/>
	</g>
</g>
<g>
	<g>
		<path fill="#95CBEE" d="M323,538.8c1,0.6,2,1.2,3,1.8c0.4,0.3,0.9,0.5,1.3,0.8c0.2,0.1,0.9,0.7,0.7,0.4c-0.1-0.4-0.2-0.8-0.3-1.3
			c0-0.2,0.4-0.6,0.4-0.7c0.1,0.1-0.4-0.1-0.2,0c-0.4-0.2-1.5,0.1-1.9,0.1c-1.5,0.2-2.5,0.8-3.4,2.1c-1.8,2.7,2.5,5.2,4.3,2.5
			c-0.4,0.6-0.1,0.3,0.6,0.3c0.7,0,1.5-0.1,2.2-0.3c1.5-0.5,2.8-1.7,3-3.4c0.2-1.8-1-3-2.4-3.9c-1.6-0.9-3.1-1.9-4.7-2.8
			C322.8,532.8,320.3,537.1,323,538.8L323,538.8z"/>
	</g>
</g>
<g>
	<g>
		<path fill="#95CBEE" d="M333.3,534.9c3.2,0,3.2-5,0-5C330.1,529.9,330.1,534.9,333.3,534.9L333.3,534.9z"/>
	</g>
</g>
<g>
	<g>
		<path fill="#95CBEE" d="M319,539.5c3.2,0,3.2-5,0-5C315.8,534.5,315.8,539.5,319,539.5L319,539.5z"/>
	</g>
</g>
<g>
	<g>
		<path fill="#95CBEE" d="M295.2,471.7c0.6,7.7,0.2,15.7,5,22.2c5.4,7.3,10.9,13.8,14.4,22.3c1.2,2.9,6.1,1.6,4.8-1.3
			c-2.9-6.8-6.6-13.1-11.2-18.9c-2.8-3.5-6-6.6-6.9-11.2c-0.8-4.2-0.8-8.8-1.1-13.1C299.9,468.5,294.9,468.5,295.2,471.7
			L295.2,471.7z"/>
	</g>
</g>
<g>
	<g>
		<path fill="#2651A2" d="M300.8,476.6c9.5,10,15.6,22.7,17.2,36.5c1.6-0.2,3.3-0.4,4.9-0.7c-3.8-13-10.4-24.4-16.9-36.1
			c-1.1-2-3.9-1.3-4.6,0.6c-3.2,8.6,3.3,14.9,8.4,20.9c6.8,7.9,10.4,17.7,14,27.4c1.1,3,5.9,1.7,4.8-1.3c-2.8-7.7-5.6-15.5-10-22.5
			c-4.2-6.7-15.6-14.4-12.4-23.1c-1.5,0.2-3,0.4-4.6,0.6c6.3,11.4,12.7,22.4,16.4,34.9c0.8,2.6,5.2,2.2,4.9-0.7
			c-1.7-15.1-8.1-29-18.6-40C302.1,470.7,298.6,474.2,300.8,476.6L300.8,476.6z"/>
	</g>
</g>
<g>
	<g>
		<path fill="#2651A2" d="M319,516.1c1.4,4,2.7,7.9,4.1,11.9c1,3,5.9,1.7,4.8-1.3c-1.4-4-2.7-7.9-4.1-11.9
			C322.8,511.8,317.9,513.1,319,516.1L319,516.1z"/>
	</g>
</g>
<g>
	<g>
		<path fill="#A9BBE0" d="M283.8,493.2c7.3,6.7,14.9,13.4,20.7,21.5c4.6,6.4,7,15,13.9,19.3c1.2,0.7,2.7,0.2,3.4-0.9
			c2.3-3.8,1.2-7.6-0.9-11.3c-2.6-4.7-5.7-9.6-9-13.9c-3.3-4.3-7.2-6.3-11.8-8.8c-5.8-3.1-10.9-7.1-15.4-11.8
			c-0.8,1.4-1.6,2.8-2.4,4.2c8.1,1.5,13.6,9.1,18.4,15.1c5.5,6.8,10.3,14,14.6,21.6c0.5-1.2,1-2.4,1.5-3.7
			c-3.3,0.7-8.3-5.1-10.3-7.5c-2.3-2.9-3.5-6.3-5.2-9.5c-3-5.6-7.6-10-13-13.2c-1.8-1-3.6,0.3-3.8,2.2c-0.3,2.7,1.5,5.1,2.8,7.3
			c1.8,3.3,3.8,6.5,6,9.5c3.9,5.3,8.5,9.8,14.5,12.7c2.9,1.4,5.4-2.9,2.5-4.3c-5.1-2.4-9.1-6.1-12.5-10.6c-1.6-2.1-3-4.3-4.4-6.6
			c-1.1-1.8-4.2-5.9-4-8.1c-1.3,0.7-2.5,1.4-3.8,2.2c4.1,2.4,7.5,5.4,10.1,9.4c2.2,3.4,3.4,7.4,5.7,10.7c3.5,4.9,9.9,11.9,16.5,10.6
			c1.6-0.3,2.2-2.4,1.5-3.7c-4.8-8.5-10.3-16.5-16.6-24c-5.2-6.3-11-13.5-19.5-15c-2.4-0.4-4.3,2.3-2.4,4.2
			c6.4,6.7,13.5,10.6,21.4,15.2c4.2,2.5,6.6,6.6,9.2,10.6c2,3.2,8.1,9.9,5.7,13.9c1.1-0.3,2.3-0.6,3.4-0.9
			c-3.9-2.4-5.5-6.6-7.6-10.4c-2-3.6-4.3-7.1-6.9-10.3c-5.6-7.1-12.3-13.2-19-19.3C284.9,487.5,281.4,491.1,283.8,493.2L283.8,493.2
			z"/>
	</g>
</g>
<g>
	<g>
		<path d="M299.6,479.8c3.2,0,3.2-5,0-5C296.4,474.8,296.4,479.8,299.6,479.8L299.6,479.8z"/>
	</g>
</g>
<g>
	<g>
		<path d="M301,476.8c0-0.6,0-1.3,0-1.9c-0.6,0.8-1.2,1.6-1.8,2.4c0.1,0,0.2-0.1,0.3-0.1c0.4-0.1-0.3,0.1-0.3,0c0,0,0.2,0,0.3,0
			c-0.1-0.1-0.6-0.1-0.2,0c0.3,0.1-0.5-0.2-0.2-0.1c0.1,0,0.4,0.2,0,0c-0.3-0.2-0.1,0,0,0c0.2,0.2-0.4-0.5-0.1-0.1
			c0.6,1.1,2.3,1.6,3.4,0.9c1.2-0.7,1.6-2.2,0.9-3.4c-1-1.8-3.4-2.8-5.3-2.1c-1.1,0.4-1.8,1.2-1.8,2.4c0,0.6,0,1.3,0,1.9
			c0,1.3,1.2,2.6,2.5,2.5C299.9,479.2,301,478.2,301,476.8L301,476.8z"/>
	</g>
</g>
<g>
	<g>
		<path d="M280.1,488.5c0.2,3.3,1.3,6.3,3.4,8.9c0.9,1,2.7,0.9,3.5,0c1-1,0.9-2.5,0-3.5c-1.2-1.5-1.9-3.4-2-5.3
			C285,485.3,280,485.3,280.1,488.5L280.1,488.5z"/>
	</g>
</g>
<g>
	<g>
		<path d="M281.8,494.8c0.5-0.6,1.1-1.3,1.6-1.7c0.6-0.5,1.4-0.9,2-1.1c1.3-0.5,2.1-1.7,1.7-3.1c-0.3-1.2-1.8-2.2-3.1-1.7
			c-2.3,0.8-4.3,2.2-5.8,4.1c-0.8,1.1-1,2.5,0,3.5C279.2,495.7,281,495.9,281.8,494.8L281.8,494.8z"/>
	</g>
</g>
<g>
	<g>
		<path fill="#4961AC" d="M290.9,505.4c0,3.3-0.6,25.3,7.1,21.1c3-1.6,2.6-6.3,2.7-9.2c0.1-4.5-0.6-8.8-3.1-12.6
			c-1.6-2.5-5-0.8-4.6,1.9c0.6,4.1,2,7.9,4.3,11.4c0.3,0.4,1.3,1.4,1.3,1.9c0-0.9,0.1-0.5-0.9-0.4c-1.3,0.1-2.1,1-2.8,2
			c-1.7,2.7,2.6,5.2,4.3,2.5c-0.1,0.1,2.8-0.5,3.4-1c1-1.1,1.3-2.7,0.9-4.1c-0.5-2-2.3-3.8-3.3-5.6c-1.3-2.5-2-5.2-2.5-8
			c-1.5,0.6-3,1.3-4.6,1.9c1.6,2.4,2.2,4.8,2.4,7.7c0.1,1.1-0.9,6.9-0.3,7.4c0.7-0.2,1.3-0.4,2-0.6c-0.2-0.9-0.3-1.9-0.5-2.8
			c-0.3-1.7-0.4-3.3-0.6-5c-0.2-2.8-0.3-5.7-0.3-8.5C295.9,502.2,290.9,502.2,290.9,505.4L290.9,505.4z"/>
	</g>
</g>
<g>
	<g>
		<path fill="#4961AC" d="M317.1,477.2c-4.6,10.7,11.2,14.1,18.2,16.7c-0.5-1.2-1-2.4-1.5-3.7c-0.7,1.6-3.6,7.5-6.1,5.6
			c-0.5-0.4-1.2-4-1.4-4.6c-0.5-1.5-1-3.1-1.4-4.6c-1.2-3.9-1.7-10-6.1-11.5c-2.1-0.8-3.9,1.9-2.8,3.7c3.2,5.5,6.3,11,9.5,16.5
			c0.5,0.9,1.8,1.5,2.8,1.1c0.9-0.3,1.8-0.6,2.7-0.9c3-1.1,1.7-5.9-1.3-4.8c-0.9,0.3-1.8,0.6-2.7,0.9c0.9,0.4,1.9,0.8,2.8,1.1
			c-3.2-5.5-6.3-11-9.5-16.5c-0.9,1.2-1.9,2.4-2.8,3.7c0.7,0.2,1.4,4.3,1.6,5c0.7,2.3,1.4,4.6,2.2,6.9c0.9,2.8,1.4,7,3.9,8.9
			c5.3,3.9,11.2-3.9,13-8c0.7-1.6,0.1-3.1-1.5-3.7c-3.1-1.2-17.2-4.6-15.2-9.4C322.7,476.8,318.4,474.3,317.1,477.2L317.1,477.2z"/>
	</g>
</g>
<g>
	<g>
		<path fill="#F5B431" d="M301.5,666.6c1.7,3.7,4.6,7.6,8.9,8.6c3.9,0.9,7.8-1.2,9.7-4.6c1.6-2.8-2.8-5.3-4.3-2.5
			c-3.2,5.8-8.3-0.4-9.9-4C304.5,661.2,300.2,663.7,301.5,666.6L301.5,666.6z"/>
	</g>
</g>
<g>
	<g>
		<path fill="#F5B431" d="M316.3,667.5c-0.9,0.8-2,1.3-3.2,1.5c-1.4,0.2-0.9,0.3-2.3-0.8c-2.1-1.8-3.9-3.8-5.5-6.1
			c-1.8-2.6-6.2-0.1-4.3,2.5c2.2,3.2,5.4,7.4,9,9.1c3,1.4,7.5-0.5,9.8-2.6C322.2,668.9,318.7,665.3,316.3,667.5L316.3,667.5z"/>
	</g>
</g>
<g>
	<g>
		<path fill="#0E2F8E" d="M165.3,570.7c1.6-1,3.3-2,4.9-3c-1-0.1-2-0.3-3-0.4c0,0-0.3,3.6-0.3,4.2c0,2,0,4,0,6.1c0,3.8,0,7.5,0,11.3
			c0,3.2,5,3.2,5,0c0-5.2,0-10.4,0-15.6c0-2.7,1-7.4-1.1-9.5c-0.8-0.8-2.1-1-3-0.4c-1.6,1-3.3,2-4.9,3
			C160,568.1,162.5,572.4,165.3,570.7L165.3,570.7z"/>
	</g>
</g>
<g>
	<g>
		<path fill="#0E2F8E" d="M174.9,565.2c0.1,7.8,0.3,15.5,0.4,23.3c0,1.4,1.1,2.5,2.5,2.5c3.4,0.1,7.5,0.8,10.8,0
			c0.8-0.2,1.5-0.9,1.7-1.7c0.9-3.3,0.2-7.6,0.2-11c0-4.5,0-9,0-13.5c0-1.4-1.1-2.5-2.5-2.5c-3.4-0.1-6.7,0-10,0.3
			c-3.2,0.3-3.2,5.3,0,5c3.3-0.3,6.7-0.4,10-0.3c-0.8-0.8-1.7-1.7-2.5-2.5c0,3.9,0,7.8,0,11.7c0,3.3,0.9,8.3,0,11.5
			c0.6-0.6,1.2-1.2,1.7-1.7c-2.8,0.7-6.7-0.1-9.5-0.2c0.8,0.8,1.7,1.7,2.5,2.5c-0.1-7.8-0.3-15.5-0.4-23.3
			C179.9,562,174.9,562,174.9,565.2L174.9,565.2z"/>
	</g>
</g>
<g>
	<g>
		<path fill="#0E2F8E" d="M192.1,564.6c0.1,4.7,0.3,9.4,0.5,14.2c0.1,2.6-0.6,7.4,0.5,9.8c1.1,2.5,3.9,2,6.2,2
			c2.3,0,6.4,0.9,8.4-0.5c1.8-1.3,1.5-3.9,1.5-5.9c-0.1-4.5-1.3-9-1.5-13.5c-0.1-2.1,0.8-6.1-1-7.9c-2.1-2.2-7.3-0.7-10-1.2
			c-3.1-0.7-4.5,4.2-1.3,4.8c2.8,0.6,6.2-0.2,8.9,0.6c-0.6-0.6-1.2-1.2-1.7-1.7c0.8,3.1,0.2,7.2,0.7,10.4c0.4,3.2,2,8.4,0.8,11.6
			c0.6-0.6,1.2-1.2,1.7-1.7c-2.1,0.5-7.6,0.6-9.6,0c0.6,0.6,1.2,1.2,1.7,1.7c-0.8-3.3-0.3-7.7-0.4-11.2c-0.1-3.8-0.3-7.7-0.4-11.5
			C197,561.4,192,561.4,192.1,564.6L192.1,564.6z"/>
	</g>
</g>
<g>
	<g>
		<path fill="#0E2F8E" d="M214.8,562.5c-0.6,0.7-1,1.5-1.1,2.4c-0.1,0.9,0.2,1.8,0.9,2.4c1.2,1.2,3.1,1,4.5,0.2
			c1.4-0.8,2.1-2.5,1.7-4c-0.2-0.8-0.8-1.5-1.5-1.9c-0.7-0.4-1.4-0.4-2.1-0.4c-1.3,0-2.6,1.1-2.5,2.5c0.1,1.3,1.1,2.5,2.5,2.5
			c0.1,0,0.3,0,0.4,0c0.1,0,0.1,0-0.1,0c-0.2,0-0.4-0.1-0.6-0.3c-0.5-0.3-0.9-0.8-0.9-1.5c0-0.1,0-0.3,0.1-0.4c-0.1,0.2,0,0.2,0-0.1
			c0.1-0.3,0.2-0.4,0.4-0.6c0.2-0.1,0.2-0.1,0,0c0.1,0,0.2-0.1,0.3-0.1c-0.1,0-0.2,0.1-0.3,0.1c-0.2,0-0.2,0,0,0c0.2,0,0.4,0,0.6,0
			c0.4,0.2,0.7,0.4,1.1,0.6c0.1,0.3,0.3,0.5,0.4,0.8c0.1,0.2,0.1,0.4,0,0.6c0,0.3-0.2,0.5-0.4,0.8c0.4-0.5,0.7-1.1,0.7-1.8
			c0-0.6-0.3-1.3-0.7-1.8C217.4,561.7,215.7,561.4,214.8,562.5L214.8,562.5z"/>
	</g>
</g>
<g>
	<g>
		<path fill="#0E2F8E" d="M227.4,561.5c-3.3,6.4-7.1,12.6-10.8,18.7c-1.7,2.8,2.7,5.3,4.3,2.5c3.7-6.2,7.4-12.3,10.8-18.7
			C233.2,561.2,228.9,558.7,227.4,561.5L227.4,561.5z"/>
	</g>
</g>
<g>
	<g>
		<path fill="#0E2F8E" d="M233,573.8c-1.2-0.5-2.6,0.3-3.2,1.3c-0.5,0.8-0.6,1.7-0.5,2.6c0.3,1.9,2.1,3,3.9,2.9
			c2-0.1,3.4-1.9,3.2-3.9c-0.1-1.1-0.6-2.2-1.6-2.8c-0.9-0.5-2.2-0.6-3.1,0.1c-0.5,0.4-1,0.8-1.1,1.5c-0.2,0.6-0.1,1.4,0.3,1.9
			c0.7,1,2.3,1.7,3.4,0.9c-0.9,0.6-2.5-0.1-2.7-1.1c0-0.1,0-0.2,0-0.4c0,0.2,0,0.2,0,0c0-0.2,0-0.2,0,0c0.1-0.1,0.1-0.2,0.2-0.3
			c0.3-0.5,0.7-0.8,1.3-0.9c0.2,0,0.2,0,0,0c0,0-0.1,0-0.1,0c0.4,0.1,0.5,0.1,0.3,0c-0.2,0-0.1,0,0.3,0.1c0.3,0.4,0.5,0.7,0.8,1.1
			c0,0.4,0,0.5,0.1,0.3c0-0.2,0-0.1,0,0.3c0.1-0.4-0.3,0.5-0.4,0.6c-0.4,0.2-0.7,0.4-1.1,0.6c0,0,0.1,0,0.1,0c-0.4,0-0.9,0-1.3,0
			c0,0,0.1,0,0.1,0c1.2,0.5,2.8-0.5,3.1-1.7C235.1,575.5,234.3,574.3,233,573.8L233,573.8z"/>
	</g>
</g>
<path fill="#9F91C4" d="M324.9,578.2c-12.2,6.9-25.5,8.9-52.1,12.8c-15.8,2.3-17.5,1.3-34.2,4.1c-22.3,3.7-33.4,5.5-39.3,11.2
	c-12.7,12.4-12.3,38.6-2.6,56.2c11.8,21.2,35.7,26.9,70.5,35.2c33.4,8,59.2,6.3,75.6,5.1c26.2-1.9,39.6-3.1,53.1-12.8
	c18.9-13.5,25.2-34,29.1-46.5c5.3-17.1,11-35.5,2-52.6c-9-17.2-28.2-24.1-46.5-30.6c-8.2-2.9-12.9-4.6-19.4-4.1
	C345.8,557.4,342.4,568.3,324.9,578.2z"/>
<g>
	<g>
		<path fill="#F5B431" d="M238.4,602.3c1.5,2.1,3.9,4.8,6.5,5.2c1.2,0.2,2.4-0.1,3.6-0.4c1.5-0.5,4-3,5.6-2.6
			c1.6,0.4,1.4,6.8,1.2,7.9c-0.4,2.1-1,4.3-1.6,6.3c-1.5,4.5-3.6,8.7-6.2,12.6c1.6,0.4,3.1,0.8,4.7,1.3c-0.2-4.3,3.8-10,4.9-14.2
			c1-3.7,2.8-8.7,2.3-12.6c-0.2-2.1-1.5-4.1-3.6-4.8c-1.6-0.5-9.8,2.6-10.4,1.8c-0.5,1.2-1,2.4-1.5,3.7c1.6-0.5,3.2-1.3,4.9-1.7
			c1.1-0.3,3.5-0.8,4.6-0.5c1.4,0.3,1.3,0.1,2,1.6c2,4.2-1.1,9.8-2.6,13.6c-1.1,3,3.7,4.3,4.8,1.3c2.1-5.7,5.5-13.5,1.4-19.3
			c-3.6-5-11.9-1.2-16.5,0.2c-1.5,0.4-2.4,2.3-1.5,3.7c1.3,2.1,3,2.7,5.5,2.4c1.2-0.1,2.4-0.4,3.6-0.7c3.1-0.8,3.8-0.8,3.7,2.7
			c-0.1,3.6-1.7,8.2-3,11.6c-1.3,3.6-3.9,7.3-3.7,11.3c0.1,2.5,3.3,3.4,4.7,1.3c4.5-7,10.4-18.2,8.6-26.9c-0.5-2.5-1.9-6.4-4.5-7.4
			c-4.8-1.9-9.2,5.9-13.2,0.2C240.9,597.1,236.5,599.6,238.4,602.3L238.4,602.3z"/>
	</g>
</g>
<g>
	<g>
		<path fill="#F5B431" d="M233.6,624.7c0.6,1.4,1.9,2.7,2.1,4.2c0.2,1.3-0.4,2.6-0.8,3.8c-0.8,2.6-1.3,5.1-1.6,7.8c1.7,0,3.3,0,5,0
			c0-3,1.2-5.8,1.3-8.9c0.1-3.2-0.8-6.3-1.5-9.4c-0.7-3.1-5.5-1.8-4.8,1.3c0.7,3.2,1.7,6.4,1.1,9.7c-0.4,2.5-1.1,4.7-1.1,7.2
			c0,3.3,4.7,3.2,5,0c0.3-3.6,2.1-7,2.3-10.6c0.2-3.2-1.6-5-2.8-7.7C236.6,619.2,232.3,621.8,233.6,624.7L233.6,624.7z"/>
	</g>
</g>
<g>
	<g>
		<path fill="#F5B431" d="M217.9,640.2c6.3,1.3,12.5,2.7,18.9,3.3c2.9,0.3,5.9,0.5,8.8,0.9c1.4,0.2,2.8,0.5,4.3,0.7
			c0.6,0.1,1.2,0.1,1.8,0.2c1.9-0.5,2.9,0.2,2.7,2.1c0.8,0,1.7,0,2.5,0c-2.3-1.6-3-4-5.8-5.2c-3.3-1.4-7.1-1.9-10.6-2.5
			c-3.5-0.6-7-1.1-10.6-1.7c-3.4-0.5-7.2-1.7-10.7-1.7c-3.2,0-7,3.9-5.3,7.3c0.8,1.6,2.5,1.8,4.2,1.7c3.9-0.2,7.4-1.9,11.4-1.9
			c2.9,0,3.3-4,0.7-4.9c-3.9-1.3-11.2-5.6-14.9-2.1c-2.1,2-2.5,6.3,0.6,7.4c1.5,0.5,3.5,0.2,5-0.2c0.3-0.1,1.4-1.1,1-1
			c0.5-0.2,3.3,0,4.5,0c3.5,0,7.4-0.4,10.9,0.2c3.8,0.7,7.7,1.9,11.5,2.7c0.2-1.6,0.4-3.3,0.7-4.9c-5,0.3-9.9-0.9-14.9-1.4
			c-5.2-0.5-10.3-0.6-15.5-0.3c-3.2,0.2-3.2,5.2,0,5c5.2-0.3,10.3-0.3,15.5,0.3c5,0.5,9.9,1.7,14.9,1.4c2.7-0.1,3.6-4.3,0.7-4.9
			c-4.1-0.9-8.3-2.3-12.4-2.9c-4-0.6-8.2-0.2-12.3-0.2c-2.1,0-5.1-0.6-6.8,1.2c-0.2,0.6-0.4,0.7-0.7,0.2c1.3,1,2.7,1.7,4.2,2.1
			c2.2,0.9,4.5,1.5,6.7,2.3c0.2-1.6,0.4-3.3,0.7-4.9c-2.2,0-4.3,0.2-6.5,0.6c-0.5,0.1-3.9,0.7-4,1c-0.3,1.1,2.4,1.5,2.9,1.6
			c4.9,1.4,10.4,1.6,15.5,2.4c2.7,0.4,5.4,0.9,8,1.5c3.6,0.8,4.9,2.1,7.5,4.7c1.5,1.5,3.1,2.2,4.9,0.7c2-1.6,2.5-4.6,1.6-6.8
			c-1.3-3.1-4.2-3.7-7.1-4c-11.1-1.2-22.2-2.6-33.2-4.9C216.1,634.8,214.8,639.6,217.9,640.2L217.9,640.2z"/>
	</g>
</g>
<g>
	<g>
		<path fill="#F5B431" d="M293.2,598.3c3.2,2,6.6,3.9,10.5,3.5c3.7-0.4,8.4-5.1,12-2.3c2,1.5,4.6,0.1,4.2-2.4
			c-0.8-4.4-3.9-8.5-8.7-6.7c-2.6,1-4.5,3.2-7.3,3.9c-3.7,0.9-6.8-1.2-10.4-0.5c-0.8,0.2-1.5,1-1.7,1.7c-1.3,4.7,3.7,4.3,6.7,5
			c2.3,0.6,4.1,1.6,6.5,1.3c3.7-0.5,6.3-2.9,10.3-1.7c0-1.6,0-3.2,0-4.8c-4.7,0.7-9.9,0.6-12.7,5c-2.2,3.4-4.2,9.1-4.2,13.2
			c0,2.9,1.8,6.3,4.4,7.7c5,2.9,10.4-2.5,15.2-0.3c1.7,0.8,3.7-0.1,3.8-2.2c0.1-2.9-1.1-6-4.4-6.4c-1.2-0.1-2.2,0.2-3.3,0.7
			c-1.7,0.7-3.2,2.2-5.2,2.2c-2.2,0-4.9-1.5-5.6-3.8c-1-3-5.9-1.7-4.8,1.3c1.1,3.3,2.5,6.3,6.1,7.3c1.7,0.5,3.6,0.4,5.4,0.1
			c0.7-0.1,7-2.7,6.9-1.4c1.3-0.7,2.5-1.4,3.8-2.2c-2.5-1.1-4.6-1.3-7.3-0.8c-2.8,0.4-6.4,2.7-8.7,0.3c-2.2-2.3,0.1-8.5,1.3-10.9
			c2.4-4.7,6.2-4.4,10.9-5c2.6-0.4,2.1-4.2,0-4.8c-3.9-1.2-6.6-0.1-10.3,1c-2.5,0.7-3.6,0.3-5.8-0.4c-2-0.6-3.2-1.4-3.8,1
			c-0.6,0.6-1.2,1.2-1.7,1.7c1.7-0.3,3.6,1.1,5.2,1.3c1.8,0.3,3.5-0.2,5.2-0.8c1.5-0.5,3.2-1.1,4.6-1.9c2.5-1.4,4.5-3.1,5.3,1.2
			c1.4-0.8,2.8-1.6,4.2-2.4c-2.6-2-5.5-2.5-8.8-1.9c-1.8,0.3-3.1,1.1-4.7,1.8c-3.9,1.7-6.7,0.2-10-1.9
			C292.9,592.3,290.4,596.6,293.2,598.3L293.2,598.3z"/>
	</g>
</g>
<g>
	<g>
		<path fill="#F5B431" d="M288.1,632.7c-2.8,1.5-5.8,0.7-6.4,4.5c-0.5,3.1,0.7,6,3.5,7.4c1.5,0.8,3.9-0.1,3.8-2.2
			c-0.1-1.5-0.1-2.9,0-4.4c-1.3,0.7-2.5,1.4-3.8,2.2c5,2.3,13-0.3,17.9-1.6c3.9-1,7.5-1.9,11.3-3.2c1.8-0.6,3.6-1.2,5.5-1.7
			c1.2-0.3,2.5-0.7,3.7-1c-1.1-0.1-1.3,0.4-0.5,1.4c0.8-1.1,1.6-2.1,2.4-3.2c-3.4-0.1-5.7-2.2-9.5-1.3c-4.6,1-9.4,2.1-14,3.3
			c-5.5,1.4-17.4,2.8-18,9.8c-0.2,2,2.2,2.9,3.8,2.2c4.9-2.4,10.8-3.6,16-5.4c5.2-1.7,10.3-3.4,15.7-4.5c3.1-0.7,1.8-5.5-1.3-4.8
			c-6,1.2-11.7,3.2-17.4,5.1c-5,1.7-10.6,3-15.4,5.3c1.3,0.7,2.5,1.4,3.8,2.2c0.2-2.6,16.4-5.5,18.7-6c3.1-0.6,6-1.4,9-2.1
			c3.2-0.8,5.8,1.3,8.9,1.4c1.6,0,2.9-1.6,2.4-3.2c-0.7-2.1-1.1-4.5-3.5-5c-3.1-0.7-7.5,1.5-10.4,2.5c-4.4,1.5-8.6,2.7-13.1,3.8
			c-2.3,0.6-4.5,1.1-6.9,1.4c-1.4,0.2-4.8,1.2-6.3,0.5c-1.8-0.8-3.6,0.2-3.8,2.2c-0.1,1.5-0.1,2.9,0,4.4c1.3-0.7,2.5-1.4,3.8-2.2
			c-3.1-1.5,1.8-2.6,2.9-3.2C293.4,635.4,290.9,631.1,288.1,632.7L288.1,632.7z"/>
	</g>
</g>
<g>
	<g>
		<path fill="#F5B431" d="M318.7,632.6c-4.8,6-12.1,8.7-15.8,15.9c-3.2,6-4.4,14-0.5,19.9c1.8,2.7,6.1,0.2,4.3-2.5
			c-3.9-5.8-0.5-14.8,3.9-19.6c3.5-3.8,8.4-6,11.7-10.1C324.3,633.6,320.7,630.1,318.7,632.6L318.7,632.6z"/>
	</g>
</g>
<g>
	<g>
		<path fill="#F5B431" d="M301.1,652.6c-3.4,5.1-0.1,14.4,2.6,19.2c2.5,4.2,9.2,8.5,13.7,4.8c5.1-4.1,6.2-13.1,5.5-19
			c-0.6-4.8-4.1-11.2-9.5-11c-3.2,0.1-3.2,5.1,0,5c3.6-0.2,4.6,6.2,4.7,8.6c0.2,3.5-0.3,6.7-2.3,9.8c-3.3,5.1-7.2,1.3-8.9-3.2
			c-1.1-3-3.5-8.6-1.5-11.6C307.2,652.4,302.9,649.9,301.1,652.6L301.1,652.6z"/>
	</g>
</g>
<g>
	<g>
		<path fill="#F5B431" d="M315.3,673.9c1.9-2.7,4.2-4.2,5.3-7.4c1.1-3.2,1.6-6.6,2-9.9c0.4-3.2-4.6-3.2-5,0
			c-0.4,2.9-0.8,6.1-1.9,8.8c-1,2.4-3.3,3.9-4.7,6C309.1,674,313.5,676.5,315.3,673.9L315.3,673.9z"/>
	</g>
</g>
<g>
	<g>
		<path fill="#F5B431" d="M344.7,607.8c1.9,3.4,3.9,6.7,6.1,9.9c0.7-1.3,1.4-2.5,2.2-3.8c-1.9,0.1-4-0.2-5.3,1.5
			c-1.4,1.8-1,5.4-0.6,7.5c1.2,7.1,5.6,9.4,11.3,12.6c0.2-1.5,0.4-3,0.6-4.6c-1.3,0.2-3.6-1.8-4.5-2.4c-0.8,1.4-1.7,2.9-2.5,4.3
			c3.4,2.3,7.6,6.2,12,4c4.4-2.2,4.4-7.5,4.4-11.8c0.1-5.5-0.6-9.6-4.3-13.8c-3.8-4.3-6-3.9-10.5-0.9c-2.6,1.8-0.1,6.1,2.5,4.3
			c0.5-0.3,2.3-2,2.9-2c-0.7-0.1,1,1.4,1,1.4c2.7,2.4,3.4,5.6,3.4,9c0,1.2,0,2.5,0,3.8c-0.1,2.4,0.3,2.9-2.1,4.1
			c-2.2,1.1-1.9,0.8-3.6-0.3c-1.1-0.7-2.1-1.5-3.2-2.2c-2.7-1.8-5.1,2.5-2.5,4.3c2.8,2,4.9,3.6,8.4,3c2.1-0.4,2.4-3.6,0.6-4.6
			c-2.5-1.4-5.1-2-6.9-4.5c-1-1.3-1.7-2.8-2-4.4c-0.4-1.7-1-3.3,1-3.4c1.7-0.1,3.3-2.1,2.2-3.8c-2.2-3.2-4.3-6.4-6.1-9.9
			C347.5,602.5,343.2,605,344.7,607.8L344.7,607.8z"/>
	</g>
</g>
<g>
	<g>
		<path fill="#F5B431" d="M349.8,629.5c2.8,3.1,4.8,4.9,9.2,5.3c3.8,0.3,7.4-0.7,8.7-4.6c1.1-3-3.8-4.3-4.8-1.3
			c-0.6,1.7-4.4,0.9-5.6,0.6c-1.8-0.6-2.7-2.1-3.9-3.5C351.2,623.6,347.7,627.1,349.8,629.5L349.8,629.5z"/>
	</g>
</g>
<g>
	<g>
		<path fill="#F5B431" d="M369.2,626.1c0.4-1.6,0.9-3.4,1.7-4.8c0.8-1.3,1.8-1.8,2.9-2.8c1.8-1.7,2.6-3.9,2.8-6.3
			c0.2-2.6-3.5-3.3-4.7-1.3c-1.3,2.2-2.7,4.5-4,6.8c-1,1.7,0.3,3.7,2.2,3.8c2.5,0.1,4.7-2.3,7.1-3.2c3-1.1,1.7-6-1.3-4.8
			c-1.1,0.4-2.2,0.9-3.3,1.4c-0.5,0.3-2,1.6-2.5,1.6c0.7,1.3,1.4,2.5,2.2,3.8c1.3-2.3,2.6-4.5,4-6.8c-1.6-0.4-3.1-0.8-4.7-1.3
			c-0.2,2.7-2.8,3.3-4.2,5.2c-1.6,2.1-2.4,4.9-3.1,7.4C363.5,627.9,368.3,629.2,369.2,626.1L369.2,626.1z"/>
	</g>
</g>
<g>
	<g>
		<path fill="#F5B431" d="M358.8,583.8c2.5,1.8,5.4,3.4,7.2,6c2,2.8,2.9,6.4,3.7,9.8c1.6,6.4,3.1,12.9,4.8,19.2
			c3.6,13.3,7.9,26.4,12.1,39.5c0.8,2.5,5.2,2.3,4.9-0.7c-0.9-8.3-4.3-16.1-5.5-24.4c-1.1-7.3-4.9-13.7-6.3-21
			c-2.3-11.9-3-29-17.1-33c-3.1-0.9-4.4,3.9-1.3,4.8c7.3,2.1,9,8.5,10.6,15c0.8,3.6,2.1,6.9,2.5,10.6c0.3,2.9,0.9,5.8,1.8,8.6
			c2.1,6.4,4.3,12,5.3,18.7c1,7,4.2,13.5,5,20.6c1.6-0.2,3.3-0.4,4.9-0.7c-4.8-14.9-9.6-29.9-13.6-45c-1.8-6.9-2.9-14.1-5.5-20.7
			c-2.3-5.6-6.3-8.3-11-11.7C358.7,577.6,356.2,581.9,358.8,583.8L358.8,583.8z"/>
	</g>
</g>
<g>
	<g>
		<path fill="#F5B431" d="M357.5,610c-4.6,1.1-6.9,5.3-8.6,9.4c-1.8,4.2,1.1,9.9,3.2,13.6c1.6,2.8,5.9,0.3,4.3-2.5
			c-1.3-2.3-3.3-6.2-2.9-8.9c0.5-2.6,2.8-6.1,5.3-6.7C362,614.1,360.7,609.3,357.5,610L357.5,610z"/>
	</g>
</g>
<g>
	<g>
		<path fill="#F5B431" d="M346.1,627.4c1.7,4,3.8,8.1,7.9,10c3.3,1.5,9.4,2,11.2-1.9c1.3-2.9-3-5.5-4.3-2.5c-0.5,1-3.8,0.3-4.5,0
			c-1-0.4-1.8-1.1-2.5-1.9c-1.6-1.8-2.5-4.1-3.4-6.2C349.2,622,344.9,624.5,346.1,627.4L346.1,627.4z"/>
	</g>
</g>
<g>
	<g>
		<path fill="#F5B431" d="M353.7,630.1c-1.1-1.8-3-4.1-3.6-6.2c-0.6-2.2,1-4.8,1.7-6.8c1.1-3-3.7-4.3-4.8-1.3c-1,2.7-2.6,5.7-2,8.6
			c0.7,2.9,2.8,5.7,4.3,8.2C351,635.4,355.4,632.9,353.7,630.1L353.7,630.1z"/>
	</g>
</g>
</svg>
