<?xml version="1.0" encoding="utf-8"?>
<!-- Generator: Adobe Illustrator 23.0.1, SVG Export Plug-In . SVG Version: 6.00 Build 0)  -->
<svg version="1.1" id="레이어_1" xmlns="http://www.w3.org/2000/svg" xmlns:xlink="http://www.w3.org/1999/xlink" x="0px"
	 y="0px" viewBox="0 0 595.3 841.9" enable-background="new 0 0 595.3 841.9" xml:space="preserve">
<g>
	<g>
		<path fill="#434241" d="M2326,429.6c3.2,0,3.2-5,0-5S2322.8,429.6,2326,429.6L2326,429.6z"/>
	</g>
</g>
<polygon fill="#434241" points="141.9,219.5 143.9,219.5 142.2,674.5 140,674.5 140.7,220.4 140.7,218.6 "/>
<path fill="#434241" d="M475.2,214.9l-3.5,169.5v191.9c0,0,0.6,12.3,0,16.4c-0.6,4.1-0.6,80.5,0,87.5c0.6,6.9-2.8,5.7-2.8,5.7
	s-2.4-9.1,0-20.1c0,0-0.5-0.9-0.8-2.2c-0.4-1.3-2-29-1-31.4c0,0-0.2-18.5,0.3-20.9c0.5-2.4,0.8-25.7,0.8-25.9s0-24.5-0.3-28.8
	c-0.3-4.2,0-8.5,0-11c0-2.5-0.3-28.2,0.5-31.8c0,0,0-8-0.2-11.6c-0.2-3.6,0-42.3,1.1-46.7c0,0-1.3-82.4,0.2-86.8l2.4-149.6
	L475.2,214.9z"/>
<path fill="#F6EB00" d="M141.9,663.7c0,0,1.1-0.8,2.5,0.8c1.3,1.6,11.8,12.4,20.3,18.1s15.7,9,18.1,9.9c2.4,0.8,2.1,1.4,2.8,1.7
	c0.7,0.3,33.8,12.5,44.6,14.4s35.7,5.5,54.6,6.8s36.5,1.6,49.5,0c13.1-1.6,35.1-4.2,43.4-7.2c0,0,6.4-0.2,7.9-0.8
	c1.5-0.6,2.4-0.8,3.1-1c0.7-0.2,1.6-0.4,2.7-0.8s4.3-0.9,6.5-1.9c2.2-0.9,4.8-2.4,7.6-2.7c2.7-0.3,5.2-2.8,5.2-2.8s2.7-0.5,4.3-1.6
	c1.6-1,23.8-11.6,32-17c8.2-5.3,14.8-9.2,18.6-13.5c0,0,2.3-2,2.1,1.6s-0.2,3.5-0.2,3.5s-22.2,17.9-51.4,29.8c0,0-2.9,2.2-11.4,5
	c-8.5,2.9-26.1,9.7-48.2,11.5c0,0-29.6,6.4-57.6,3c0,0-54.1,1.1-92.2-13.7S156,683.8,150,677.1c0,0-7.3-6.4-8.8-8.1
	S141.9,663.7,141.9,663.7z"/>
<path fill="#3A3535" d="M209.9,657.2c0,0-2.5,1.4-5,1.7c0,0-1.7,0.3-1.9,0.9c-0.2,0.6-0.2,0.2,0.7,2c0.9,1.7,2.7,4.7,3.5,7.6
	c0.9,2.9,2.4,7.1,2.6,8.1c0.2,1,0.4,2,0.4,2s1.1-1.5,4.2-1.3s8.2,1.3,10.3,2c2.1,0.8,13.2,4.2,19.3-5s-0.1-17.8-3.2-20.4
	s-9-6.4-11.1-7.6c-2.1-1.2-5.7-2.8-3.7-4c2-1.2,10.9,1.3,14,7.2c0,0,1.3-4.1,6-6.8c0,0,1.5-0.9-0.1-2c-1.6-1.1-7.3-8.9-8.3-10.9
	c0,0,0.4-1.2-0.5-1.9c-0.9-0.7-2-2.2-2-2.2s-2,1.7-3.2,2c-0.6,0.2-1.2,0.5-1.9,0.6c-1.5,0.2-3.1-0.4-4.5-0.8
	c-1.5-0.4-3.1-0.9-4.6-1.1c-2.9-0.4-5.9,0.2-8.7,1c-0.9,0.3-1.8,0.6-2.6,1.1c-2.8,1.8-10.1,10.9-1.4,21.5c0,0,2.6,2.9,9,6.4
	c6.4,3.5,12.2,6.8,9.4,9c-2.8,2.2-6.9-0.3-9.6-2.9s-4.5-6.4-5.5-6.5S209.9,657.2,209.9,657.2z"/>
<path fill="#866348" d="M230.4,631.9c0,0,1.4-0.1,2.4-0.9s1.8,0.2,2.3,1.7s5.9,9.3,7.2,9.5c0,0,0.2,0.5-0.9,1.5
	c-1,1-1.9,3.5-3.4,1.3c-1.5-2.2-9.6-6.1-13.2-4.2c-3.6,1.9-0.7,5.4,0,5.9c0.7,0.5,15.6,9.4,17.4,15c1.9,5.6,0.3,11.6-3.3,14.4
	c-3.6,2.8-7.7,2.9-14.1,0.8c-6.5-2.1-10.5-2.1-11.6-1.6c-1.1,0.6-1.4-0.2-1.6-1.6s-3.1-10.6-4.5-11.1c-1.3-0.5-0.1-1.6,0.4-1
	c0,0,2.7-0.6,2.6-1.2s0.1-1.5,1.5,1s4.3,9.7,15.7,8.7c0,0,4.7-2.1,3-6.1c-1.7-4-7.9-7.1-10.9-9.1c-3-1.9-12.9-7-12.5-16.2
	c0.4-9.3,11.5-9.7,13.8-8.1C223,632.3,230.4,631.9,230.4,631.9z"/>
<path fill="#3A3535" d="M232.8,635c0,0,3.7,5.7,4.5,5.7c0.8,0.1-0.4,1.7-1.7,0c0,0-1.6-1-5.2-2s-11-1.6-9.7,5.8c0,0,0.4,2.4,4.6,5.6
	s15.4,8.7,15.3,17.2c-0.1,8.6-9.3,10-11.8,9.6c-2.5-0.4-10.8-3.7-11.9-4c-1.1-0.3-2.9,0.5-2.9-0.2c0-0.6-0.9-3.8-2-4.8
	c-1.1-1,0.3-1.8,1.7,0.1c0,0,2.2,1.6,3.6,2.5s10.4,4.1,15,0.6s-0.1-10.1-2.7-11.8s-7.1-4.6-10.3-6.7c-3.2-2-9.6-8.2-7.7-13.5
	c1.9-5.3,6.4-7.1,12.8-5.4C230.9,635.4,232.8,635,232.8,635z"/>
<path fill="#3B3737" d="M258.2,640.3c0,0-10.3,8.5-5.3,25.6s20.8,23.4,32.2,21.9s19.7-7.4,17.5-31.1c0,0-5.4-15.8-17.3-19.7
	C273.4,633.1,263.5,634.8,258.2,640.3z"/>
<path fill="#866348" d="M258.1,644.6c0,0-4.1,5-3.1,13.6c1,8.7,5.2,16.1,14.6,23.5c0,0,8.4,4.1,13,3.3c4.6-0.9,14.4-0.9,17.9-18.2
	c0,0,1.6-12-6.3-20.4c-7.9-8.4-18.6-12.8-28.8-7.8C265.5,638.6,260.9,640.8,258.1,644.6z"/>
<path fill="#3B3737" d="M260.8,646.8c0,0-2.3,3.9-2.5,9.7c0,0,1,12.3,8.1,19c7.1,6.7,15.7,10.4,26,3.1c0,0,5-4.4,4.9-11.6
	c-0.2-7.2-1.4-15.3-5.8-19.1c-4.4-3.8-8.2-10.5-19.7-8.3C271.8,639.4,264,641.6,260.8,646.8z"/>
<path fill="#866348" d="M277.2,648.2c0,0,14.8,10.1,16.4,19c0,0,1.6,7.9-5,9.3c-6.5,1.4-13.7-2.5-21.5-12.1c0,0-3.1-3.1-3.5-7.2
	c-0.4-4,1.1-7.9,3.5-9C269.7,647.1,274.5,646.8,277.2,648.2z"/>
<path fill="#3B3737" d="M267.3,651c0,0,3.5-3.9,8.1,0c0,0,13.6,11.2,13.9,13c0,0,2.9,5.2-0.5,7.7c-3.4,2.5-5,4-10,0.7
	c0,0-10.9-10.4-12-14.3C265.8,654.1,265.9,653.2,267.3,651z"/>
<path fill="#CAC6BD" d="M270.2,653c0,0-3.5,2-1.3,5.2c2.3,3.1,10.9,13.1,13.7,13.1c2.8-0.1,5.3-0.2,5.3-4.7c0,0-0.6-3.2-5-7
	c-4.5-3.8-6.7-7.1-10.1-7.1C272.7,652.4,271.1,652.3,270.2,653z"/>
<path fill="#3B3737" d="M309.5,637.4c0,0-1.3,5-1.7,6.4s-0.9,2.2-1.1,2.4c-0.2,0.2-0.4,0.9,0.5,1.1c0.8,0.1,3-0.4,4.7,2
	s1.6,4.1,1.6,4.1s-0.6,19.7,0,21.6c0.6,1.9,2.4,12.9,19.2,13c16.8,0,20.8-12.8,20.8-14.4s0.5-13.4-0.6-14.9c0,0-0.6-4.6,0.3-5.9
	c0.9-1.3,1.7-3.1,2-4.6c0.3-1.4,2.5-2.8,2.8-3.3c0.3-0.6-0.1-0.9-0.7-0.9c0,0-0.2-2.3-1.2-4.1c0,0,0.2-1.6-0.2-2.5
	c0,0-0.2-0.2-0.9-0.4c0,0-0.3-0.6-0.3-1.1c0-0.6-1.5-0.9-2.4-0.6c-0.9,0.4-1.9,0.8-5.6,0.8c-3.7,0-5.3,0.2-6.2-0.2s-3.2-0.3-3.5,2
	c-0.2,2.4-0.4,7.2-1.1,7.1c-0.7-0.2-1.2-0.1-1.2-0.1s0.1-1.6-0.6-2.6c0,0,0-1.5-0.7-1.7c0,0,0-2.7-0.3-3.2s-1.3-1.9-4.1-1
	c-2.8,0.9-12.9,2.4-17.4,1l-1.7-1L309.5,637.4z"/>
<path fill="#866348" d="M311.6,640.5c0,0,0.1,3.1-0.6,3.6c-0.7,0.5-0.3,1.1,0,1.1s2.6,1,3.7,2.8c1.1,1.8,2.4,2.8,2,9.2
	s-2.4,19.1,1.7,23.1c4.2,4,10,5.7,18.4,4.2c8.4-1.5,10.5-3.1,13.8-11.3c0,0,0.5-6.2,0.6-17.9c0.2-11.6,2.2-10.6,3-11.2
	c0,0-1.2-1.3-1.3-2.5c-0.1-1.2-0.3-3.3-2.2-2.8c-1.9,0.6-10.1,0.2-10.1-0.1c0,0-0.6,0.2-0.5,2.5c0.1,2.4-0.5,2.9-1.1,3.4
	c-0.6,0.5-0.2,1.1,1,1.4c1.2,0.3,2.4,1.5,2.4,3.6c0,2.1,0.2,20.1-0.1,21c-0.2,0.9-2,7.2-7.6,6.7c-5.5-0.5-6.4-4.5-6.3-6.7
	c0.1-2.2-1.1-21.8,1-23.1c2.1-1.3,2-1.7,1.5-3.5c-0.6-1.7-1.2-4.9-0.9-5.4c0,0-3.9,1.5-6.9,1.7C320.4,640.8,311.6,641.2,311.6,640.5
	z"/>
<path fill="#3B3737" d="M318,642.4l7.8-0.6c0,0-0.8,32.2,0,32.5s1,1.8,1,2.4s1,3,2.7,3.1c1.7,0.1,8.7,1.5,12.1-2.2
	c3.4-3.7,3.5-6.8,3.5-13.4s0-22.3,0-22.3h2.8c0,0,0.1,28.4-0.8,30.6s-2.2,7.3-5.6,7.7c0,0-1.6,0.8-2.8,1.6c-1.3,0.8-3.7,1.3-5.9,1.3
	s-11.4,0.6-13.1-8.2c0,0-0.1-0.7-0.6-1.2L318,642.4z"/>
<path fill="#CAC6BD" d="M335,646.3c0,0-3.3,0.8-3.4,6.7s-1.9,20.3,2.8,21.8c0,0,3.1,2.2,4.4-1.3c1.3-3.5,1.3-2.1,1.4-4.9
	s0.5-16.9,0-18.1c-0.5-1.3-3.4-3.8-4.8-3.2C335.4,647.3,336.1,645.6,335,646.3z"/>
<path fill="#3B3737" d="M364.4,632.2c0,0-0.2,3.9-1,5.5c-0.8,1.6-2.4,3.1-0.5,4.1s3.2,2.2,3.2,2.2s2.2,23,1.5,24.3
	c-0.7,1.3-1.3,4-4,5.7c0,0-1.3,0.6-1,1.8c0.3,1.3,0.7,3.1,0.6,3.7s-0.2,3.3,3.1,2.1c3.4-1.2,11.6-4,17.1-3.4c0,0,1.9,0.6,3-2.4
	c1.1-3.1,2-6.4,3.2-6.6c0,0-0.4-1.3-2.4-0.9s-2.8-1.1-2.8-2.6c0.1-1.5,1.1-0.6,2.9-1.2c1.8-0.6,17-2.3,20.1-19.8
	c3.1-17.5-10.8-18.6-15.1-17.9s-15.4,4.8-17.9,5C372,632.1,364.4,632.2,364.4,632.2z"/>
<path fill="#866348" d="M367.2,634.3c0,0-0.3,3.9-0.9,5c-0.6,1.2-0.6,1.4,0.9,1.7c1.5,0.3,1.7-0.2,1.7,3.2c0.1,3.5,2.2,25.2,1,27.3
	c-1.2,2-2.6,3.8-4,3.9c0,0-0.3,0.1,0,1.6c0.3,1.5,0.2,2.1,2.1,0.9c2-1.3,6.1-2.9,10.4-2.5s6,0.4,6,0.4l1.8-5c0,0-3-0.9-3.5-2.6
	c-0.5-1.7-0.2-5.6-0.2-5.6s5.5,0.4,10.5-3.1s16.4-9.8,10.5-25.3c0,0-2.4-6.3-11.4-4.5c-9,1.8-14.6,5.1-20.8,4.7L367.2,634.3z"/>
<path fill="#3B3737" d="M371.9,637.9c0,0,1.2-0.2,1.6,4.3c0.4,4.5,0.9,31.3,0.9,31.3s0.1-1,1.3-1.1c1.2,0,4.6-0.6,4.6-0.6v-12.3
	c0,0,11.6-2,14.9-4.9c3.3-2.8,8.3-6.4,6.6-16.2c-1.7-9.8-15.6-4-16.8-3.8c-1.2,0.2-8.8,2.8-12.2,2.4L371.9,637.9z"/>
<path fill="#866348" d="M379.2,639.4l0.9,17.6c0,0,15.5-3.6,16.1-14.5c0,0-1.2-6.4-8.5-5.7c0,0-6.3,2.1-7.5,2.2
	C379,639,379.2,639.4,379.2,639.4z"/>
<path fill="#3B3737" d="M381.6,642.6v9.5c0,0,5.7,1,10.4-4.4c0,0,1.4-5.3-3.1-6.6c-4.6-1.3-4.6,0.6-5.8,0.4
	C381.8,641.4,381.6,641.2,381.6,642.6z"/>
<path fill="#CDC9BD" d="M383.6,643.2l0.6,7c0,0,4.7-0.5,6.2-4.2c0,0,0.7-3.1-3-3.4C383.6,642.3,383.6,643.2,383.6,643.2z"/>
<path fill="#CDC9BD" d="M331.7,584.2c0,0-2.6,8.7-2.3,9.9h5.8c0,0-0.7-3.8-1.5-5.5c-0.8-1.7-1.6-4.4-1.6-4.4
	S331.8,583.8,331.7,584.2z"/>
<path fill="#77583F" d="M266.2,456.9c0,0-24.7,17.6-15.9,55.4c8.8,37.8,47.8,44.5,61.9,40.3c14.1-4.2,41.7-13.6,44.7-45.5
	c2.9-31.9-11.3-54.3-46.6-61.9C310.2,445.2,285.3,440.4,266.2,456.9z"/>
<path fill="#CDC9BD" d="M227.9,414.2c-0.1-0.1-0.2-0.2-0.3-0.3c-0.3-0.2-0.6-0.5-1-0.7c-1.5-0.9-3.9-1.3-5.5-0.5
	c-0.8,0.4-1.3,1.1-1.7,1.9c-0.2,0.4-0.3,0.9-0.4,1.3c-0.3,1.2-0.1,2.4,0.5,3.4c0.2,0.4,0.5,0.7,0.8,1c0.6,0.6,1.1,1,2,1.2
	c0.7,0.1,1.5,0.1,2.3,0c0.5,0,1.2-0.1,1.5-0.6c0.9-1.1,0.7-2,0.7-2s1.1,1.2,1.8,2.1s0.8,1,0.3,1.6s-2.6,2.8-7.7,1.8
	c-5.1-0.9-7.7-6-7.4-8.9s3.4-6.8,7.7-6.6c4.2,0.2,7.8,2.2,7.7,3.4l-1,2C228.3,414.4,227.9,414.2,227.9,414.2z"/>
<path fill="#CDC9BD" d="M237.7,412.8c0,0-3.8,3.4-2.8,6.1c0,0-0.6-0.5-0.8,0s-1.3,7.9,7.3,9.7c0,0,8,0.6,9.8-4.5
	c1.8-5-0.2-9-4.6-11.2C246.6,412.8,242.8,410.5,237.7,412.8z"/>
<path fill="#FCF8D3" d="M241.9,415c0,0,4-1.2,6.2,3.5s-3,6.7-4.4,6.7s-5-1-5.2-4.1c-0.2-3.1,0.6-3.9,1.4-4.9
	C240,416.2,241.6,415.8,241.9,415z"/>
<path fill="#CDC9BD" d="M258.5,415.9c0,0-0.5,3.5-0.4,7c0.1,3.5,0,6.1,0,6.1h3.7c0,0-0.4-7.2,0-7.5c0.4-0.3,0.6-1.5,0.6-1.5
	s5.4,9.8,6.8,10s3.3,0,3.3,0s0.6-11.5,0.9-12.7c0.3-1.3-0.6-1.9-1.8-1.9c-1.2,0-1.4-0.2-1.7,2.5c-0.3,2.7-0.5,5.3-1.4,5.3
	c0,0-2.5-3.3-4.2-6.3c-1.7-3-3.4-2-4-2C259.6,414.8,258.6,414.6,258.5,415.9z"/>
<path fill="#CDC9BD" d="M280.4,416.9v14.4h9.2c0,0,7.2-0.6,7.1-8.4s-6-6.6-6-6.6l-10.3-0.1V416.9z"/>
<path fill="#FCF8D3" d="M284.3,419.5v6.1c0,0,1,0.8,1.3,1.5c0,0,5.7,1.3,7.4-3.1c0,0,0.7-3-2.4-4.6H284.3z"/>
<path fill="#CDC9BD" d="M303.8,418.1l-0.5,13.7h13.2v-3.3l-7.9-0.3c0,0-2.1-1.2,0-2.6l7.9,0.1c0,0,1.7-1.8,0-2.6h-8.7v-2.9h9.5v-3.3
	h-12.5C304.9,416.9,303.9,417.1,303.8,418.1z"/>
<path fill="#CDC9BD" d="M325.6,415.8c0,0-1.3,15.5-0.6,15.5c0.7,0,2.4,0.5,2.8-2c0.3-2.4,0.2-7.4,1.7-7.2c0,0,6.7,8.8,7.7,8.8
	s2.2-0.3,2.2-1.3s0.9-13.8,0.9-13.8s0.3-1-1.5-0.9c-1.8,0.1-1.3,8.2-1.9,8.6c-0.6,0.4-0.7,1.4-2.4-0.4c-1.7-1.8-5.9-8.1-7.4-7.7
	C325.6,415.8,325.6,415.8,325.6,415.8z"/>
<path fill="#CDC9BD" d="M353.4,416.9c0,0-1.9,0.2-2,1.5c-0.1,1.3,1.5,1.5,3.5,1.9c2,0.4,7.2,1.3,7.2,5.3c0,4-6,5.1-7.7,5.1
	s-6.4,0-6.4,0v-3.8c0,0,3.4,1.6,5,1.3c1.7-0.2,6-1.4,4.2-3.9c-1.8-2.4-7.4,0.5-9.8-4c-1.4-5,2.3-6.3,4.2-6.4c2-0.2,6.4-0.9,7,1
	c0.6,1.9-0.5,2-2.6,2C354,416.9,353.4,416.9,353.4,416.9z"/>
<path fill="#CDC9BD" d="M367.6,413.6v14.7c0,0,10.9,0.4,11.7-0.9v-2.5l-7.6,0.2c0,0-0.9-0.2-0.2-2.4c0,0,6.8-0.8,7.8-1.6v-2.1
	c0,0-6.8,0.9-7.9,0.3c-1.1-0.6-0.9-3.1-0.5-3.3c0.5-0.2,8.1-1,8.1-1l-0.1-2.7C379,412.1,368.2,412.6,367.6,413.6z"/>
<path fill="#CDC9BD" d="M384.3,409.8l0.6,15.8c0,0,10.7,1,12.8-8.7c0,0,1.1-7.2-5.3-7.7S384.3,409.8,384.3,409.8z"/>
<path fill="#FCF8D3" d="M387.8,414.1l0.4,7.1c0,0,3.6,0.7,5.2-2.8s0.2-5.7-1.5-6.3C390.2,411.5,387.8,414.1,387.8,414.1z"/>
<path fill="#3D3C3E" d="M170,286c0,0,2.8-0.1,3.8,2.9c0,0-0.4,0.9-1.6,1.5c-1.2,0.6-3.8,6.6-2.8,9.3c0,0,0.8,1.3-0.2,1.4
	c-1,0.2-3.6,0-3.6,0l1.5,2.5l1.7,4.6l-3.3,0.7c0,0-4.3-2-4.1-9.2c0,0,0.2-2.8,1.9-4.6l1.3-5.2L170,286z"/>
<path fill="#3D3C3E" d="M215.3,288.7c0,0,1.6-0.7,1.5-1.5c-0.1-0.8,5.9,7-0.6,18.2c-6.5,11.3-21,12.1-30.4,12.1h-3.2
	c0,0-11,17-10.9,38.4c0,0,0.7,4.4,2.1,7.3s-3.2,1.5-3.2,1.5l-3.9-7.1l-2.4-23.9c0,0,2.7-14,3.3-15.3c0.6-1.3,4.9-9.7,4.9-9.7
	l3.7-5.5l4.7-0.5c0,0,1.6-8.7,16.5-18.9c0,0,18.7-3.1,14.1,7.3L215.3,288.7z"/>
<path fill="#3D3C3E" d="M187.6,329.2l0.7-2.8c0,0,8.9,2.4,6.9,21.8c0,0-3.9,12.1-8.6,16.4c-4.7,4.2-8.3,7.1-11,5.4
	c0,0-0.8-1.1,0-1.6c0.8-0.4,14.8-10.9,14.5-24.1c-0.3-13.1-2-12.2-2-12.2l-1.9-1.7L187.6,329.2z"/>
<path fill="#3D3C3E" d="M186,333.7c0,0-0.2-0.6-2.4,1.7c0,0-2.6,3.7-3,13.1c0,0-0.1,0.6,0.5,0.9c0.6,0.3-0.5,1.4-1.6,0.7
	c-1.1-0.7-3.4-1.5-3.4-3.8s0.6-5.8,0.6-5.8l1.4-6.3l2-2.8l2.6-1.7l2.2,1L186,333.7z"/>
<path fill="#E0DBD1" d="M167.1,284c0,0-4.2,4.4-4.4,6.5c-0.8,1.9-0.8,9.2,4.4,14.5c0,0-18,36.1,0,59.6c0,0,7.3,8.6,14.3-2.1
	c6.9-10.7,14.1-20.3,7.8-32.5l-1.4-1.6c0,0-0.1-1.9-1.8-1.9s-6.6,3-8,6.6c-1.4,3.6-4.2,12.1-1.6,14.2l0.4,0.4c0,0,0.6-10.9,2.8-13.6
	c2.1-2.8,5.3-5.4,6.3,2.2c1,7.6-2.5,16.8-8.3,22.3c-5.7,5.6-6.8,3.4-9.4-4.4c-2.6-7.8,1.8-32,10.2-41.4c0,0,30.5,1.7,37.6-21.6
	c0,0,1.7-6.3-4.2-9.4c-5.9-3.1-10.8-2.6-20.9,1.8S171.3,300,171,300.9c-0.3,0.9-2.7,2-4.5-0.2c-1.8-2.1-3-7.3-0.3-10.8
	c2.7-3.5,5.6-3.5,5.6-3.5S171.3,283.8,167.1,284z"/>
<path fill="#3F3C39" d="M180.1,309.2c0,0,1.8-7.5,7.6-12.8c5.7-5.3,14.1-15.3,22.2-9.8c0,0,1.5,1.9,0.9,4.6l-1.5,1.3l-20.8,12.7
	l-4,4.1H180.1z"/>
<path fill="#FCF8D3" d="M209.9,292c0,0-2.4-2.3-7.4-1.3c0,0-2.6,0.5-4.5,2.2c-1.9,1.7-3,2.3-3.5,2.6c-0.6,0.3-4.6,5.3-5.4,6
	c-0.9,0.6-3.9,7.4-3.9,7.4l-0.7,0.3c0,0,13.1-1.9,17.9-6.7S208.2,296.6,209.9,292z"/>
<path fill="#3D3C3E" d="M196,372c0,0-0.9,2.6,0.7,4.2c1.7,1.6,7.4,2.6,11.6-2.1c4.2-4.7,2.9-7.7,2.9-7.7h-2.8l-4.8,3.1l-4.4,3.2
	L196,372z"/>
<path fill="#3D3C3E" d="M214.5,376c0,0-0.9,1.7,0.6,3.1c1.6,1.3,4.2,5.1,10.7,0l10.3-15l3.3-5.9l-0.7-2.7l-2,1.5l-2.1,1.3l-2.4,3.9
	l-3.4,4.3l-4.7,5.6l-2.9-0.5L214.5,376z"/>
<path fill="#3D3C3E" d="M221.2,370.5c0,0,2.9,0.2,3.5-3.2c0,0,7.3-14.9,8.3-17.1s4.9-12.5,4.9-12.5s0.8-1.5-0.9-2.4
	c0,0-1.6-1.5-1.6-1.9s-1.3-0.3-2.3,0.6s-16.9,29.3-16.9,29.3v7.3L221.2,370.5z"/>
<path fill="#3D3C3E" d="M229.3,377.9c0,0-1.9,1.1-1.4,2.8c0.5,1.7,2.2,4.3,4.6,4.3s6.6,0,6.6,0s1.3,0.6,3-3.5
	c1.7-4,15.2-31.4,16.1-31.9s1.5-1.4,3.6-0.6c2.1,0.8,2.9-3.5,2.9-3.5s-4-1.8-4.2-1.8c-0.2,0.1-5.3,0-5.3,0l-6.5,2.8l-7.2,12.8
	l-4.1,10.4L229.3,377.9z"/>
<path fill="#3D3C3E" d="M248.6,379.2c0,0-2.3,1.3-2,2.4c0.3,1.2,3.8,5.1,5.2,5c1.4-0.2,8.2-0.9,8.2-0.9s0.8-0.6,2-3.2
	c1.3-2.6,14.6-30.8,14.9-31.1c0.3-0.2,3.9-2.9,3.9-2.9v-4.8l-8.2,1.2l-6.1,4.2l-6.3,11l-5.9,15.7L248.6,379.2z"/>
<path fill="#3D3C3E" d="M290,340.9c0,0,0.7-3.4,2.7-1.3s5.3,6.5,2.4,12.6s-11.1,20.4-11.1,20.4l-3.1,4.5l-10.5,1.8
	c0,0,8.4-10.1,8.4-10.3c0-0.2,2.5-14.6,2.5-14.6L290,340.9z"/>
<path fill="#3D3C3E" d="M268,380.8c0,0-2.4,4.6,2.8,7.3c5.3,2.7,10.5-3.7,12.5-6.4c2-2.8,11.8-9.8,11.8-9.8l6.8-12.4l-4.3-1.6
	l-3.4,1.5l-2.3,2.3l-1.3,2.1l-2.4,3.6l-2.8,3.9l-1.8,3.1l-2.8,3.5l-8.9,3.3L268,380.8z"/>
<path fill="#3D3C3E" d="M273,406.9c0,0-1.8,1.4-1.3,2.4c0.6,1,3.2,3.5,3.2,3.5l7.9-0.6c0,0,0.5,0,1.2-1.9
	c0.7-1.9,12.1-23.2,12.1-23.2s0.8-1.6,1.7-0.5c0.9,1.2,5.7,6.6,14.1,1.6c8.4-5,13.4-11.2,16.7-16.9c3.3-5.7,7.5-14.7,8.3-19.1
	c0,0,6.6-4.1,7.5-6.5l-1-1.9l-3.4,0.8l-2.2,0.2c0,0-6.4,2.4-6.7,2.4c-0.2,0-21.1,33-21.1,33l-6.4,1.5l-3.5-1.3l-4-3.6l-5.5,4
	l-12.2,19.9L273,406.9z"/>
<path fill="#3D3C3E" d="M321.6,328.9c0,0,4.2,3.3,3.9,4.8c-0.3,1.5-10.3,9-10.3,9l-3.1-0.6l1-6.7l5.9-5.3L321.6,328.9z"/>
<path fill="#3D3C3E" d="M388.1,297.5c0,0,3.2-1,3.4,2.1c0.2,3.1-0.2,12.1-8.7,19.4c-8.5,7.3-12.8,10.6-14.9,11.8
	c-2,1.2-8.8,4.6-9.3,5.8c-0.5,1.2-5.7,0.4-5.7,0.4l6.4-8.9l4-0.5l6.3-4.5l5.2-5.3l5.9-6.1l6-9.9L388.1,297.5z"/>
<path fill="#3D3C3E" d="M371.4,335.8c0,0,0.6-1.9,2.8,0.6c2.1,2.5,3.7,4.4,3.6,6.9c-0.1,2.5-0.9,4.6-0.9,4.6l-4.7,1.7l-3-3.2
	c0,0,0.7-2.9,0.7-4.9C369.9,339.6,371.4,335.8,371.4,335.8z"/>
<path fill="#3D3C3E" d="M337.5,382.2c0,0-2.4,0.9-1.8,1.5c0.6,0.6,4.3,6.6,15.7,0c11.4-6.6,18.9-17.5,21.2-27.7c0,0,1.7-0.7,3.3-0.8
	c1.6-0.1,4.2,0,4.2,0s1.3-2.3,1.4-3.5h4c0,0,2.5-1.5,0.9-4.4c-1.7-2.9-4.2-2.7-4.2-2.7l-2.3,1.3l-5.3,1.3l-7.8,3l-5.9,15.4l-7.7,9.1
	l-8.7,3.8L337.5,382.2z"/>
<path fill="#3D3C3E" d="M385.5,369.6c0,0-0.8-3-0.2-4.9c0.7-1.9,5.5-7.4,10.8-8.7c0,0,4.9-0.7,5.9,0c1,0.7,1.3-5.9,1.3-5.9h-0.9
	c0,0-2.1-3.2-5.7-2.4s-10.3,4.9-10.3,4.9l-5.8,3.9l-4.9,13.8l5.6,5.8l5.7-2.8L385.5,369.6z"/>
<path fill="#3D3C3E" d="M367.6,372.1c0,0-1.9,7.6,4.6,11.3c6.4,3.7,11.8,2.6,18-4s11.1-10.7,11.1-10.7s-0.1-2.9-0.8-3
	c-0.7-0.1-5.4,0-5.4,0l-4.9,3.5l-5.9,3.3l-10.7,2.3L367.6,372.1z"/>
<path fill="#3D3C3E" d="M397.2,373.4c0,0-1.8,6.4,1.9,8.1s10.7-1.7,15.8-10.9c5.1-9.2,5.3-6,5.3-6l-3.6-2.7l-4.5,2.9l-7,4.6
	L397.2,373.4z"/>
<path fill="#3D3C3E" d="M416.8,369.9c0,0,1.9,5.7,6.9,5.7c5,0,7-8.9,7.8-8.9s2.3,5,8.1,4.5c5.8-0.5,5.7-6.8,6.7-8.1
	c0,0,2.7,2.7,4.5,2.1c1.8-0.6,6.5-6.1,6.2-14.5c0,0-1.9-0.9-2.6,0.7s-4.4,5.2-4.4,5.2l-4.7-1.4l-10.8,6.4l-3-1l-4,2.4l-6.6,4.3
	L416.8,369.9z"/>
<path fill="#3D3C3E" d="M404.1,327c0,0,4.2-2.1,4.9,1.2c0.7,3.3,0.5,11.6-7.2,16.5c0,0-7,3-9.5,2.7c-2.5-0.3-4.8-2.7-4.8-2.7l4-2.8
	l4.8-3l5-3.7L404.1,327z"/>
<path fill="#3D3C3E" d="M433.7,289.8c0,0,3.9,2.1,2.8,6.6c-1.1,4.6-9.4,24.7-10.5,28.6s-2.1,6-2.5,7c-0.4,1-1.3,3.6-1.3,4.3
	c0,0.7-1.6,2.7-1.9,4c-0.3,1.3-4.9,12.3-5.1,13.1c-0.2,0.8-4.4,9.5-3.7,10.5s-2.9,4.6-2.9,4.6l-5.8-1.7l3.1-12.5l6.9-12.6
	c0,0,4.4-13.8,4-14.2c-0.4-0.3,3.5-11.4,3.5-11.4l3.9-8.5l3.9-12.2l3.3-5.1L433.7,289.8z"/>
<path fill="#3D3C3E" d="M448.3,286c0,0,4.3-1.3,4.3,1.8s-3.5,17.7-5.1,21.6c-1.7,3.9-11.4,29.5-12.2,31.6c-0.7,2.1-3.5,8.1-3.1,10.7
	c0.3,2.6-5.7,13.9-5.7,13.9l-3.4-3.7l-1.6-10.4l8.5-17.2l4.6-15.5c0,0,4.6-11.5,4.7-11.8c0.1-0.3,4.7-14.3,4.7-14.3L448.3,286z"/>
<path fill="#3D3C3E" d="M453.3,287.7c0,0,5.9,0.5,4.9,6c-1,5.5-4.4,11.3-10.7,10.8l0.8-2.7l4.2-3.4l1.1-7.4L453.3,287.7z"/>
<path fill="#3D3C3E" d="M452.6,313.5c0,0,2.1-1.5,2.6-0.8c0.5,0.8,0.1,8.3,0,11.9c-0.1,3.6,0,20.8-1.7,24.2c-1.7,3.4-2,4.7-2,4.7
	l-4,0.5l-0.7-3.3c0,0,2.4-5.1,2.2-6.1c-0.2-1,0.4-9.4,0.4-10.1c0-0.8,0.6-8.7,0.6-8.7s0-6.7,0-7C450,318.6,452.6,313.5,452.6,313.5z
	"/>
<path fill="#E0DBD1" d="M222.1,335.9c0,0-1.6-6.3-5.9-7.7c-4.3-1.4-12,5.6-14,7.7c0,0-9.3,12.3-9.4,22c-0.1,9.8-0.7,13.6,6.3,16.5
	c0,0,6.3,0.6,9.3-6.6c0,0,1.9-2,2.1,0.7s-0.1,8.6,5.2,8.5c0,0,4.7-1.7,6-2.8c1.2-1.2,1.2,0.2,2-0.3s10.1-11.4,12-15.5
	c0,0,2.7-1.9,1.6,0.9c-1.1,2.8-9.4,18.7-9.4,18.7l0.5,0.9h10.3c0,0,12.4-34.3,19.5-33.8c0,0,3.7-0.3,3.1,3.4c0,0,0.6,1.2-0.7,3.5
	c-1.3,2.4-13.2,27.9-13.2,27.9h8.8c0,0,13.2-29.9,18.1-33.4s5,0.4,4.8,1.9c-0.2,1.5-11.6,26.4-11.6,26.4s-2.8,8.5,2.8,8.6
	c5.7,0.1,9.5-0.9,15.4-9.3c5.9-8.4,7.9-13.5,10.4-12.5c0,0,1.2,1.1-0.7,3.4s-17.8,28.3-20.1,34.7c0,0-1.2,3.1-1.6,3.8
	c-0.3,0.6-2.1,4-2.1,4l0.5,0.4h9.1c0,0,13.3-27.8,14.5-28.3c1.2-0.5,2.2-0.1,2.3,1.6s4.3,10.5,16,1.3s20.2-26.8,20.4-34.2v-0.8
	c0,0,1.7,0,4.5-1.4c2.8-1.4,4.2-1.4,3.7,0.5c-0.5,1.9-1.7,3.3-2.3,4.5c-0.6,1.3-4.6,11.2-5.2,12s-1.4,0.6-1.8,3.7
	c-0.4,3-5.1,17.3,9.4,16.8c0,0,14.8-2.1,26.4-27.6c0,0,1.6-3.4,2.2-5.1c0,0,8.8-1,10.8-4.3c0,0,3.9,2.5,6.6,2.5c0,0-1.8,1.6-4.3,2.5
	s-12.5,5.7-16.7,19.5c0,0-0.5,7,6.7,9c7.2,2,15.7-7.4,15.7-7.4s5.2-5.4,5.7-4.6c0.4,0.8-0.1,8.5,4.4,8.3c4.5-0.2,8-0.6,12.3-9.4
	c0,0,1.5-3.3,2.8,0.1c1.4,3.4,3.5,5.7,6.8,4.6c3.4-1,5-4.6,6.8-7.2s2.4-3.4,4.2-1c1.8,2.3,3,3.7,5.6,3.7c2.5,0,4.6-2.8,5.7-5.2
	c1-2.4,2.1-3.9,2.8-3.4c0.7,0.5,3,3.3,6,0.3c2.9-2.9,2.6-9,2.3-9.8c0,0-0.4-0.2-1.5,0.9c-1,1.2-4,4.9-5,2.5c0,0,1.7-2.5,2.1-4.5
	c0.4-2,1.2-16.4,0.8-23.7c0,0,0.5-8.6,1.6-9.6s-0.6-1.9-0.6-1.9l-4,0.5c0,0-13.1,33.2-16.8,37.1c0,0-4.7,9.8-4.6,11.2
	c0,0-0.7,2-1.5-0.7s7-21.1,7.9-23.7c0.8-2.6,15.4-48,15.6-50.6c0,0,0.1-0.8,0.8-1c0.7-0.2,0.1-0.8-1.2-0.4c-1.2,0.3-6,1.8-6,1.8
	s-14.3,39.3-14.6,42.3c0,0-3.6,9.9-5,12.5s-4.7,7.9-5.3,9.6c-0.6,1.8-5.9,10.7-6.6,11.1c-0.7,0.4-1.7,2-1.8,2.8c0,0-2.2,2.2-2.4-1
	c0,0,15.4-46.2,17.3-51.4c1.9-5.1,8.4-20.3,7.9-21.5c-0.5-1.2,0.9-1.4,0.9-1.4s2.2-1-6.5,0.2c0,0-16,41.7-17.3,44.6
	c-1.3,2.8-1.9,5-2.2,6.1c-0.3,1-1.8,1.8-3.1,4.8c-1.4,3-7,16.5-11.7,19.7c-4.7,3.3-7.1,4.2-7.1,4.2s0.2,0.7-1,0.8
	c-1.3,0.1-6.1-0.1-4.9-5.5c1.2-5.3,8.6-11.6,14.7-12.5l2.5-0.1l1.9-4.9c0,0-2-0.2-4.6-1c-2.6-0.7-4.4-2.2-1.3-3.7
	c3.1-1.5,16.4-7.9,13.8-16.5c0,0-1.7-4.2-10.4-0.9c-8.7,3.3-15.4,14.2-15.4,18.4c0,0-4.2,3.9-7.9,2.7c0,0-0.8-0.3-0.1-2.6
	c0.7-2.3,0.5-12.4-5.9-10.5c-6.4,1.9-8.3,2.8-8.3,2.8s-2.6,0.4-0.8-2.1s16.5-12,21.2-17.6c4.7-5.7,12.4-14.2,9.8-20.9
	c0,0-2.5-2.7-6.4-0.2c-3.9,2.5-9.3,6.9-13.1,12c-3.8,5-18,25.2-18.7,26.2c-0.6,1-2.7,4.7-4.2,5.9s-8.6,4.9-10.5,4.8
	s-1.6,0.2-1.6-1.9s-2-8.2-8.1-7.1c0,0-8.2,3.3-10.2,6c0,0-2.1,0.7-0.4-2.6c1.7-3.4,6-9.8,6-9.8l-11.3-0.1c0,0-1.7,3.7-7.8,14.4
	c-6.1,10.7-19.3,31.8-22.7,32.2c-3.4,0.4,0.1-5.3,1.2-7.1c1-1.8,15.6-25,9-29c0,0-3.9-3.6-8-2.4c-4.1,1.2-9.9,7.1-9.9,7.1
	s-0.2-7.6-3.3-8.3c-3-0.7-8.9,0.5-13.6,6.1c0,0-2.3,2.5-2.2-0.9l3.4-5.3l-9.5-0.5c0,0-11.3,23.3-18.9,31.3c0,0-3.4,5.5-6.6,3.6
	c-3.3-1.9,4.1-15.7,4.1-15.7l9-20.3l-10.3-0.9C224.3,332.7,223.5,336.1,222.1,335.9z"/>
<g>
	<g>
		<g>
			<path fill="#FCF8D3" d="M204.3,364.2c0.9-1.3,0-2.4,3.7-11.2s7.7-9.5,8.7-9.2s0,1.9,0,1.9l1.4-0.2c1.2-2,2.7-4.5,3-5.5
				c0.6-1.8-0.8-3.5-0.8-3.5c-5.2-4.7-7.6,1.9-9.4,3.5s-5.3,7.8-7.6,13.1c-2.4,5.3-1.9,12-1.9,12s0.4,0.5,1,0.8
				C203.1,365.4,203.8,364.8,204.3,364.2z"/>
		</g>
		<g>
			<path fill="#FCF8D3" d="M204.7,365.7c0.6-0.2,1.9-1.1,2.4-1.5s1.6-1.2,1.7-2.3c0.2-1.1,7.4-13.4,7.4-13.4s0.9-1.4,1.9-3l-1.4,0.2
				c0,0,0.9-1.6,0-1.9s-5,0.4-8.7,9.2s-2.8,10-3.7,11.2c-0.4,0.6-1.2,1.2-1.9,1.7c0.4,0.2,0.8,0.4,1.2,0.4
				C204.7,366.3,204.7,365.7,204.7,365.7z"/>
		</g>
	</g>
</g>
<path fill="#E0DBD1" d="M454.5,287.6c0,0-3-1.7-3.5,1.6c-0.4,3.3,0.3,8.7,0,9.8c-0.3,1-0.9,2.9-0.9,3.2s-0.7,2.1-1,2.1
	c0,0,4.4-3,5-6c0.6-2.9,1.9-6.7,0.4-8.4C453,288.1,454.5,287.6,454.5,287.6z"/>
<path fill="#FCF8D3" d="M319.4,347.9l-12,13.3l-5.5,16.7c0,0,1,2.4,5.5-1.4c4.5-3.9,16-21.2,13.3-29.1L319.4,347.9z"/>
<path fill="#3D3C3E" d="M320.8,349.9c0,0-0.9,1.7-2.8,0.6c0,0-10.5,14.6-13,23.8c0,0-0.9,3.4-1.3,3.9c-0.4,0.5-2.7,2.3-3.5,0
	c-0.9-2.3,0.5-8.7,2.3-12.4c1.8-3.7,9.4-22.3,16.5-22.1C319.1,343.7,322.7,345,320.8,349.9z"/>
<path fill="#FCF8D3" d="M364.6,345.8c0,0-5.1,19.3-16.2,26.9l-2.8,0.7l2.5-10.1l2.1-6.8l5.3-8.3l3.6-3.9l3.1-1L364.6,345.8z"/>
<path fill="#3D3C3E" d="M364.6,345.8c0,0-1,1.4-2.1,0c-1.1-1.4-0.9-0.9-2.9,0.6c-2,1.5-14.5,19.8-11.2,26.3c0,0-2.7,3.9-5,0.9
	s3.6-19.2,10.3-28.7c6.7-9.5,9.4-4.7,10.9-2.8C364.6,342.2,365,344.9,364.6,345.8z"/>
<path fill="#3D3C3E" d="M390.3,340.4c0,0-0.5-3.8,2.3-6.9c2.8-3,5.2-5.9,7.1-3.4c0,0,1.4,1.3-1.3,3.9c-2.7,2.6-5.3,5.2-5.8,5.9
	C392,340.7,390.5,341.6,390.3,340.4z"/>
<path fill="#FCF8D3" d="M445.4,336.4l-7.8,18.1c0,0,2.3,0.8,3.6,0c1.3-0.8,6.4-7.2,6.2-14.8C447.5,339.7,447.3,336.1,445.4,336.4z"
	/>
<path fill="#3D3C3E" d="M445.7,329.7c0,0-0.6-0.4-1.3,2.1c-0.7,2.5-3.5,11.3-4.7,13.8c-1.2,2.4-4.1,8.5-5,8.9s0.2,1.5,1.3,0.9
	c1-0.6,1.9-0.9,1.9-0.9s4.8-6.1,6.1-11.2c1.3-5.1,2.6-7.1,2.6-7.1S447.2,330.3,445.7,329.7z"/>
<path fill="#FCF8D3" d="M364,325c0,0,5.9-3.7,13.1-12.3c7.2-8.6,6.7-11.7,5.3-12.2c-1.3-0.5-11.4,13.5-11.4,13.5l-7.1,9.3V325z"/>
<path fill="#3D3C3E" d="M383,301.9c0,0,1.5-1.9,0-2.7c-1.5-0.8-3.6-0.2-7.7,4c-4.1,4.2-14.3,20.7-13.7,22.6c0,0,1,0.4,2.4-0.8
	s1.3-1.2,1.3-1.2s12-16.4,13.3-17.7C379.9,304.9,381.5,302.2,383,301.9z"/>
<path fill="#FFF100" d="M143.3,242.5c0,0,4.1,3.3,5,4c0.9,0.6,3.5,3.1,4.9,3.9c1.4,0.8,28.5,18.2,76.1,23.6s105,9.8,154.3,4.4
	s88.4-27.9,88.1-33.3v-2.6v-0.8c0,0,1.4,0.1-5,4.2s-20.8,12.3-29.1,14.2c-8.3,1.9-14.2,4.4-17.6,5.3c-3.4,0.9-9.9,3.3-12.1,3.3
	c-2.2,0-5.1,1.3-6.6,1.8s-8.8,1.5-10.9,1.3c-2.1-0.2-5.9,0.2-7.8,0.8c-1.9,0.6-21.9,2.9-28.9,2.7s-68.1,1.2-89-1
	c-20.9-2.2-81.9-11.8-95.3-19.7c-13.4-7.9-26-16.2-26.1-18.4V242.5z"/>
<path id="SVGID_x5F_1_x5F_" fill="none" d="M179.6,593.6c25.3,9.2,47.2,13.8,63.3,16.3c65.8,10.3,117.1-1.7,133.8-6.1
	c17.8-4.7,32.1-10.2,41.9-14.3"/>
<text><textPath  xlink:href="#SVGID_x5F_1_x5F_" startOffset="26.823%">
</textPath>
</text>
<path id="SVGID_x5F_2_x5F_" fill="none" d="M144.2,553.5c3.8,5.8,9.7,13.8,17.8,21.8c13.2,13,28.9,22.7,63.4,31.5
	c25.2,6.5,46.6,11.4,80.9,11c33.2-0.4,86.4-6.1,153.3-35.3"/>
<text><textPath  xlink:href="#SVGID_x5F_2_x5F_" startOffset="26.5138%">
<tspan  fill="#F5B431" font-family="'BankGothicBT-Medium'" font-size="80px">CHICKEN</tspan></textPath>
</text>
<rect x="450.3" y="578.8" transform="matrix(7.976035e-02 -0.9968 0.9968 7.976035e-02 -156.5822 1004.5156)" fill="none" width="30.9" height="16.5"/>
<g>
	<g>
		<path fill="#F5B431" d="M267.7,506.5c1.6,0,3.2,0,4.8,0c3.2,0,3.2-5,0-5c-1.6,0-3.2,0-4.8,0C264.5,501.5,264.5,506.5,267.7,506.5
			L267.7,506.5z"/>
	</g>
</g>
<g>
	<g>
		<path fill="#F5B431" d="M266.4,504.3c2.5-0.7,5-1.6,7.4-2.6c1.2-0.5,2.1-1.7,1.7-3.1c-0.3-1.2-1.8-2.3-3.1-1.7
			c-2.4,1-4.9,1.9-7.4,2.6C261.9,500.3,263.3,505.2,266.4,504.3L266.4,504.3z"/>
	</g>
</g>
<g>
	<g>
		<path fill="#F5B431" d="M274.5,496.8c-3.4,1.2-4.6,5.6-2.1,8.2c0.9,1,2.6,0.9,3.5,0c1-1,0.9-2.6,0-3.5c-0.3-0.3,0.2,0.2,0,0
			c-0.2-0.3,0.2,0.4,0.1,0.1c-0.1-0.3,0,0.5,0,0c0-0.5,0,0.3,0,0c0-0.1,0.2-0.5,0-0.1c-0.1,0.3,0.1-0.1,0.1-0.2
			c-0.1,0.1-0.2,0.3,0,0.1c-0.3,0.2-0.3,0.2-0.1,0.1c0.2-0.1,0.1-0.1-0.2,0.1c1.2-0.4,2.2-1.7,1.7-3.1
			C277.2,497.4,275.8,496.4,274.5,496.8L274.5,496.8z"/>
	</g>
</g>
<g>
	<g>
		<path fill="#FFFFFF" d="M286.9,499.7c1,3.6,2,7.2,2.9,10.8c0.8,3.1,5.7,1.8,4.8-1.3c-1-3.6-2-7.2-2.9-10.8
			C290.8,495.2,286,496.5,286.9,499.7L286.9,499.7z"/>
	</g>
</g>
<g>
	<g>
		<path fill="#FFFFFF" d="M277.3,508.5c1.6,0,4,5.1,4.8,6.4c1.5,2.7,2.8,5.5,3.8,8.5c1.7,5.1,1.8,10.4,3.4,15.5c1,3,5.8,1.7,4.8-1.3
			c-1.2-3.7-1.3-7.7-2.2-11.5c-0.9-3.4-2.1-6.8-3.6-9.9c-2-4.2-5.5-12.5-11-12.5C274,503.6,274,508.6,277.3,508.5L277.3,508.5z"/>
	</g>
</g>
<g>
	<g>
		<path fill="#FFFFFF" d="M308.6,512.2c-0.3,10.9-2,23.7,2.3,34c1.2,2.9,6.1,1.6,4.8-1.3c-4.1-9.9-2.5-22.2-2.1-32.7
			C313.7,509,308.7,509,308.6,512.2L308.6,512.2z"/>
	</g>
</g>
<g>
	<g>
		<path fill="#FFFFFF" d="M289.2,536.7c-0.3,3.3-0.3,6.6-0.2,9.9c0.1,3.2,5.1,3.2,5,0c-0.2-3.3-0.1-6.6,0.2-9.9
			C294.5,533.5,289.5,533.5,289.2,536.7L289.2,536.7z"/>
	</g>
</g>
<g>
	<g>
		<path fill="#FFFFFF" d="M294.9,539.4c3.2-7.6,6-15.3,8.5-23.1c1-3.1-3.8-4.4-4.8-1.3c-2.5,7.8-5.3,15.5-8.5,23.1
			C288.8,541,293.7,542.3,294.9,539.4L294.9,539.4z"/>
	</g>
</g>
<g>
	<g>
		<path fill="#FFFFFF" d="M290.4,510.5c-0.1,6.8,0.4,13.6,1.5,20.4c1.6-0.4,3.2-0.9,4.8-1.3c-3-10.7-0.2-24.6-11.5-31.1
			c-1.1-0.6-2.8-0.3-3.4,0.9c-2,4.2-1.9,8.6,0.8,12.4c1.1,1.6,4.2,1.7,4.6-0.6c0.5-3.1,0.8-6.2,0.7-9.4c-1.6,0.2-3.3,0.4-4.9,0.7
			c1.5,6.1,3,12.2,4.6,18.3c0.7,2.8,4.8,2.1,4.9-0.7c0.3-6.3,0.6-12.5,0.9-18.8c-1.6,0.2-3.3,0.4-4.9,0.7c1.9,8.6,3.9,17.2,5.8,25.8
			c0.6,2.8,5,2.1,4.9-0.7c-0.1-8.2-0.3-16.4-0.4-24.7c-0.1-3.2-4.8-3.2-5,0c-0.3,6.2,0.1,12.3,1.1,18.5c0.5,2.8,5,2.1,4.9-0.7
			c-0.4-8,0-15.9,1-23.8c-1.6,0.2-3.3,0.4-4.9,0.7c1.5,7.9,2,15.7,1.6,23.7c1.7,0,3.3,0,5,0c-0.3-8.3,0.9-16.2,3.4-24.1
			c-1.6-0.2-3.3-0.4-4.9-0.7c0.4,11.1,0.4,22.3,0.1,33.5c-0.1,3.3,4.7,3.2,5,0c0.9-10.7,1.8-21.4,2.7-32c-1.6,0.2-3.3,0.4-4.9,0.7
			c1.6,8.8-0.8,17.6-0.3,26.5c0.4,8.1,3.4,15.7,4.6,23.6c1-1,2.1-2.1,3.1-3.1c-4.8-1.3-9.9-2.8-14.8-3.1c-1.7-0.1-3.6-0.2-4.9,1.3
			c-1.1,1.3-1.1,3-0.1,4.4c1.5,2.1,4.5,1.6,6.8,1.6c3.7,0,14.7,2.4,15.1-3.7c0.2-2.9-1.8-7-2.7-9.8c-1.4-4.1-3.1-8-5-11.9
			c-1.1-2.3-4.6-1.1-4.7,1.3c-0.1,3.8-0.9,8-0.4,11.8c0,0.7,0,1.3-0.1,2c1.2-0.8,1.2-1.7,0-2.7c-0.4-1.6-1.9-3.4-2.7-4.9
			c-1-1.8-4.2-1.6-4.6,0.6c-0.6,4-0.6,7.8,0.2,11.8c0.5,2.5,4.1,2.2,4.8,0c1.9-6.3,3.8-12.6,5.7-18.9c-1.6-0.2-3.3-0.4-4.9-0.7
			c0.2,6.9,1.7,13.3,4.7,19.5c0-0.8,0-1.7,0-2.5c0.5-0.4,1-0.7,1.6-1.1c0-1-0.1-2-0.1-2.9c-0.1-1.6-0.1-3.3-0.2-4.9
			c-0.1-2.6-0.4-5.3,0.2-7.8c1.1-5.3,4.9-10,6.6-15.2c2.3-7.2,4.6-19.2-2.9-24.2c-6.8-4.5-16.5-2.6-23.4,0.6
			c-3.6,1.7-8.2,4.4-10.3,8.1c-2.3,4-0.3,8,2.2,11.3c1.3,1.7,3.9,1.6,4.6-0.6c0.6-1.9,0.7-3.7,1.1-5.6c0.8-3.9,3.4-5.2,7-6.3
			c5.2-1.6,10.7-0.9,15.5,1.7c0.2-1.5,0.4-3,0.6-4.6c-7.3,1.6-14.5,3.1-21.8,4.5c0.4,1.6,0.9,3.2,1.3,4.8c3.9-1.3,7.8-2.7,11.6-4
			c-0.6-1.5-1.3-3-1.9-4.6c-4.3,2-8.2,4.5-11.7,7.7c-1.4,1.2-0.7,3.8,1.1,4.2c8.6,1.7,16.7-0.4,23.4-6c1.7-1.4,0.3-4.3-1.8-4.3
			c-2.9,0-26.4-2.4-19.7,6.4c3.6,4.8,14.6,2.7,10.7-4.1c-1.6-2.8-5.9-0.3-4.3,2.5c-0.6-1.1-3.9-0.7-1.6,0.1c1.2,0.4,3.8,0,5,0
			c3.3,0,6.6,0,9.9,0c-0.6-1.4-1.2-2.8-1.8-4.3c-5.2,4.4-11.8,6.1-18.5,4.7c0.4,1.4,0.7,2.8,1.1,4.2c3.3-2.9,6.8-5.1,10.7-6.9
			c2.6-1.2,0.7-5.5-1.9-4.6c-3.9,1.3-7.8,2.7-11.6,4c-3.1,1-1.8,5.4,1.3,4.8c7.3-1.4,14.6-2.9,21.8-4.5c2.1-0.5,2.4-3.6,0.6-4.6
			c-6.3-3.5-13.9-4.3-20.7-1.8c-2.7,1-5.8,2.5-7.7,4.8c-2.3,2.7-1.4,6.9-2.4,10.1c1.5-0.2,3-0.4,4.6-0.6c-2.1-2.8-3.5-5.3-0.5-8.1
			c1.8-1.7,3.9-3,6.1-4.1c4.1-2,9.1-3.3,13.7-2.8c12.8,1.4,7.4,18.7,3.6,26.3c-1.7,3.4-3.8,6.4-4.4,10.3c-0.7,4.6-0.1,9.5,0.1,14.1
			c0.1,2.7,0,6,3,7.3c2.1,0.8,3.6-0.1,4.9-1.7c0.6-0.7,0.4-1.8,0-2.5c-2.6-5.4-3.9-11-4-17c-0.1-2.8-4.1-3.4-4.9-0.7
			c-1.9,6.3-3.8,12.6-5.7,18.9c1.6,0,3.2,0,4.8,0c-0.6-3.1-0.7-6-0.2-9.1c-1.5,0.2-3,0.4-4.6,0.6c1.6,2.9,5,12.4,10.2,9.2
			c1.4-0.9,1.7-2.5,1.9-4.1c0.6-4.5,0.3-9.3,0.5-13.7c-1.6,0.4-3.1,0.8-4.7,1.3c2,4,3.7,8.1,5.1,12.4c0.5,1.5,0.8,3.7,1.5,5.1
			c0.1,2.1,0.5,2.3,1.2,0.5c-1,0-2,0-3,0c-2.3,0-4.6,0-6.9,0c-1.8,0-7.4-0.9-2.2,2.8c1.1,0.8,4.1,0.7,5.6,1c2.5,0.5,4.9,1.1,7.4,1.8
			c2,0.5,3.4-1.3,3.1-3.1c-1.4-8.7-4.7-16.9-4.5-25.9c0.2-8.2,1.6-16,0.2-24.2c-0.5-3-4.7-2-4.9,0.7c-0.9,10.7-1.8,21.4-2.7,32
			c1.7,0,3.3,0,5,0c0.3-11.2,0.2-22.3-0.1-33.5c-0.1-2.8-4-3.4-4.9-0.7c-2.7,8.3-3.9,16.7-3.6,25.4c0.1,3.2,4.8,3.2,5,0
			c0.4-8.4-0.2-16.8-1.8-25.1c-0.6-3-4.6-1.9-4.9,0.7c-1,7.9-1.3,15.8-1,23.8c1.6-0.2,3.3-0.4,4.9-0.7c-0.9-5.7-1.2-11.4-0.9-17.2
			c-1.7,0-3.3,0-5,0c0.1,8.2,0.3,16.4,0.4,24.7c1.6-0.2,3.3-0.4,4.9-0.7c-1.9-8.6-3.9-17.2-5.8-25.8c-0.6-2.9-4.8-2.1-4.9,0.7
			c-0.3,6.3-0.6,12.5-0.9,18.8c1.6-0.2,3.3-0.4,4.9-0.7c-1.5-6.1-3-12.2-4.6-18.3c-0.7-2.7-5-2.2-4.9,0.7c0.1,2.7-0.1,5.3-0.5,8
			c1.5-0.2,3-0.4,4.6-0.6c-1.6-2.3-2.1-4.7-0.8-7.4c-1.1,0.3-2.3,0.6-3.4,0.9c9.4,5.4,6.7,19.2,9.2,28.1c0.9,3.2,5.3,1.8,4.8-1.3
			c-1-6.3-1.4-12.6-1.3-19C295.5,507.3,290.5,507.3,290.4,510.5L290.4,510.5z"/>
	</g>
</g>
<g>
	<g>
		<path fill="#FFFFFF" d="M309.4,506.8c0.2,3.9-0.3,7.5-1.9,11.1c1.6,0.4,3.1,0.8,4.7,1.3c0.1-3.8,0.7-7.4,1.8-11
			c0.8-2.4,2.2-4.8,2.1-7.4c-0.1-4.1-3.4-6.7-6.5-8.8c0.2,1.3,0.3,2.6,0.5,3.9c3-2.4,3,7,3,7.6c0,1.9,0,3.8-0.1,5.7
			c-0.2,4.9-1.2,9.4-2.2,14.1c-1.5,6.8-2.2,13.5,1.5,19.7c1.7,2.8,5.6,0.4,4.3-2.5c-3.6-8.3,1.7-18.9,2.8-27.4
			c1-7.4,0.9-15.4-2.8-22.1c-2.8-5.1-7.6-9.3-13.4-10.5c-7.1-1.5-14.2,2.2-20.2,5.5c-5.2,2.9-10.5,7.5-9.7,14.1
			c0.8,6.9,8.2,8,11.6,12.9c2.4,3.5,2.6,8,2.8,12.2c0.3,4.7,0.6,9.4,0.8,14c0.4,6.4-0.7,12.2,6.6,13.8c6.1,1.3,17.3,1.6,22.2-3.2
			c2.3-2.3,1.2-5.6,0.6-8.4c-1.1-5-2.1-10-3.2-15c-0.7-3.1-5.5-1.8-4.8,1.3c0.9,4.1,1.8,8.3,2.6,12.4c0.5,2.2,1.6,5-0.5,7
			c-1,0.9-3.6,1.1-5,1.3c-2.9,0.5-11.3,1.5-13.1-1.6c-0.5-0.9-0.3-4.6-0.3-5.6c-0.1-1.9-0.2-3.7-0.3-5.6c-0.4-6.7,0-14.3-2.1-20.8
			c-0.9-2.7-2.3-5.1-4.5-7.1c-2.2-2-5.4-3.1-7.3-5.6c-6-8,10.8-14.9,16.3-16.3c8.9-2.3,15.9,4.1,18.1,12.4
			c2.2,8.4,0.2,17.3-1.9,25.5c-1.6,6.6-2.7,12.9,0.1,19.3c1.4-0.8,2.9-1.7,4.3-2.5c-3.6-6.2-1.6-12.9-0.1-19.4
			c1.4-6.1,1.7-12.3,1.6-18.5c0-3.6-0.1-7.9-3.2-10.4c-2.7-2.1-5.8-1.9-8.4,0.2c-1.3,1.1-0.7,3.1,0.5,3.9c2.7,1.8,4.5,3.1,3.6,6.6
			c-0.4,1.6-1.2,3.2-1.7,4.8c-1.1,3.7-1.6,7.6-1.7,11.5c-0.1,2.3,3.6,3.6,4.7,1.3c1.9-4.4,2.8-8.8,2.6-13.7
			C314.3,503.6,309.3,503.5,309.4,506.8L309.4,506.8z"/>
	</g>
</g>
<g>
	<g>
		<path fill="#DA1817" d="M273.8,507.9c0.9,3.2,2.6,5.9,5.2,8c1.3,1.1,3.9,0.9,4.2-1.1c0.2-1.2,0.5-2.4,1-3.6
			c0.8-1.9-0.5-4.3-2.8-3.7c-0.8,0.2-1.3,0.1-1.9-0.6c-0.4,1.4-0.7,2.8-1.1,4.2c1.2-0.2,2.5-0.4,3.7-0.7c0.9-0.2,2.7-0.8,3.6-0.5
			c-0.5-0.4-1-0.8-1.5-1.1c0.3,0.7-1.6,2.7-2.2,3.3c-0.9,0.9-1.9,1.8-2.5,3c-1.2,2.3-1,5,0.9,6.8c1.4,1.3,4.5,0.5,4.3-1.8
			c-0.5-3.8-0.9-7.6-1.4-11.4c-0.4-3.2-5.4-3.2-5,0c0.5,3.8,0.9,7.6,1.4,11.4c1.4-0.6,2.8-1.2,4.3-1.8c-1-0.9,2.7-3.8,3.3-4.6
			c1.2-1.6,2.1-4,1.8-6c-0.3-2-2-3-3.9-2.9c-2.7,0.2-5.4,0.9-8.1,1.4c-1.9,0.3-2.3,2.9-1.1,4.2c1.8,1.9,4.2,2.5,6.7,1.8
			c-0.9-1.2-1.9-2.4-2.8-3.7c-0.7,1.6-1.2,3.1-1.5,4.8c1.4-0.4,2.8-0.7,4.2-1.1c-1.9-1.6-3.2-3.5-3.9-5.8
			C277.7,503.4,272.9,504.8,273.8,507.9L273.8,507.9z"/>
	</g>
</g>
<g>
	<g>
		<path fill="#DA1817" d="M283.3,489.4c4.4-7.1,8.1-14.4,11.1-22.2c-1.4,0.4-2.8,0.7-4.2,1.1c1.7,1.6,1.1,4.4,2.8,6.1
			c1.5,1.5,3.6,1.6,5.5,1.1c7-2,14-6.5,20.5-9.7c-1.3-0.7-2.5-1.4-3.8-2.2c0,2.7-2.7,6-3.1,8.8c-0.4,2.4-0.2,4.7,0.2,7
			c0.2,1.4,1.9,2,3.1,1.7c3.1-0.6,5.8-1.7,8.5-3.1c-1.2-0.5-2.4-1-3.7-1.5c0.3,1.8-2.2,4.8-3,6.3c-0.6,1.1-2.4,6-3.5,6.4
			c3.5-1.4-3.4-5.5-5.1-6.2c-8.8-3.8-17.1,5-25.7,1.4c-3-1.2-4.3,3.6-1.3,4.8c5.2,2.1,10.1,0.6,15.2-1c3.6-1.1,7.6-2.2,11.1,0
			c2.1,1.3,3.4,3.8,5.5,5c3.5,1.8,5.1-2.2,6.4-4.7c2.2-4,6.2-8.6,5.2-13.4c-0.3-1.6-2.3-2.2-3.7-1.5c-2.4,1.3-4.7,2.1-7.3,2.6
			c1,0.6,2.1,1.2,3.1,1.7c-0.7-3.8,0.2-6.4,1.8-9.8c0.8-1.7,1.3-2.8,1.3-4.7c0-2-2.1-3-3.8-2.2c-5,2.5-10.1,4.9-15.2,7.3
			c-2.8,1.3-4.1,2.7-5.5-0.3c-0.7-1.5-0.9-2.6-2.1-3.8c-1.5-1.4-3.5-0.6-4.2,1.1c-2.9,7.3-6.4,14.3-10.6,21
			C277.3,489.6,281.6,492.2,283.3,489.4L283.3,489.4z"/>
	</g>
</g>
<g>
	<g>
		<path fill="#DA1817" d="M283,489.4c2.6,0.6,4.8-0.1,6.4-2.4c3-4.4,1.5-9.4,7.6-11.7c-1-1-2.1-2.1-3.1-3.1c-0.2,1-0.5,2-0.9,3
			c-0.7,2.2,1.8,3.8,3.7,2.8c4.4-2.3,7.6-3.2,12.6-3.2c-0.4-1.6-0.8-3.1-1.3-4.7c-4.1,2-8.6,3.2-12.7,5.2c-1.2,0.6-2.1,1-3,2.1
			c-0.6,0.8-1.3,4.1-2,4.3c-3.1,0.9-1.8,5.7,1.3,4.8c5.9-1.6,13.7-2.5,19.1-5.5c0.7-0.4,1.3-1.3,1.2-2.2c-0.2-1.4-3.1-6.4,0.4-6
			c-0.8-1.1-1.6-2.1-2.4-3.2c-0.6,1.7-1.1,3.6-1.9,5.3c0,1-0.5,1.8-1.3,2.3c-0.6,0.7-1.3,0.8-2.2,0.6c-0.2,0.5,3.5,4.8,3.8,5.6
			c0.3,0.9,0.3,1.5,0.9,2.2c0.9,1.1,2.3,1.7,3.8,1.4c2-0.4,2.7-2.8,4.5-3.1c-1-1-2.1-2.1-3.1-3.1c-0.2,1.4-0.6,2.8-1.3,4
			c1.1-0.3,2.3-0.6,3.4-0.9c-2.3-1.6-4.6-3.2-6.9-4.9c-2.6-1.9-5.1,2.5-2.5,4.3c2.3,1.6,4.6,3.2,6.9,4.9c1,0.7,2.9,0.2,3.4-0.9
			c0.8-1.7,1.4-3.3,1.8-5.2c0.4-2-1.2-3.4-3.1-3.1c-1,0.2-1.8,0.4-2.6,1.2c-1.4,1.6-0.3,1.7-0.6,1.2c-1.4-1.9-1.7-3.9-3.7-5.4
			c-2.9-2.2-8.6-3.2-9.9,1.4c-1.3,4.5,3.3,5.5,6.7,5.3c1.8-0.1,3.5-0.1,4.8-1.6c2.1-2.5,2.8-7.2,3.9-10.1c0.6-1.7-0.9-3-2.4-3.2
			c-3-0.3-5.9,0.9-7.1,3.8c-0.5,1.2-0.7,2.7-0.4,4c0.2,1,2,3,2,3.3c0.4-0.7,0.8-1.4,1.2-2.2c-2.5,1.4-6.2,1.9-9,2.6
			c-2.9,0.8-5.9,1.6-8.8,2.4c0.4,1.6,0.9,3.2,1.3,4.8c3.5-1,3.1-4.1,5.4-6.1c1.9-1.6,4.8-2.1,7.1-3.1c2.2-0.9,4.3-1.9,6.4-2.9
			c2.3-1.1,1.1-4.7-1.3-4.7c-6,0-9.9,1.2-15.1,3.9c1.2,0.9,2.4,1.9,3.7,2.8c0.4-1,0.6-2,0.9-3c0.4-1.7-1.2-3.8-3.1-3.1
			c-2.8,1-5.2,2.5-7,4.9c-0.9,1.2-3.4,9.4-4.3,9.2C281.2,483.8,279.9,488.7,283,489.4L283,489.4z"/>
	</g>
</g>
<g>
	<g>
		<path fill="#DA1817" d="M276.2,504c3.3-0.8,6.6-1.5,9.9-2.3c2.2-0.5,4.6-1.5,4.5-4.2c0-2.4-2.1-4.1-4.1-4.9
			c-0.9-0.3-1.8-0.6-2.7-0.8c-1.1-0.4-1.2-0.5-1.8-1.4c-1.3-1.8-2.8-3.5-5.1-1.8c-2,1.5-3.2,4.3-3.5,6.7c-0.3,2.2-0.3,5.3,2.4,5.9
			c1.1,0.3,2.1-0.2,3.1-0.6c1.6-0.6,3.1-0.8,4.8-0.6c3.2,0.4,3.2-4.6,0-5c-1.4-0.2-2.8-0.1-4.1,0.2c-1.3,0.3-2.5,1-3.7,1.2
			c0.6,0.1,1.3,0.2,1.9,0.3c-0.2-0.1-0.3-0.2-0.5-0.2c0.4,0.5,0.8,1,1.1,1.5c-0.3-0.9-0.1-1.9,0.1-2.8c0.1-0.4,1.2-2.1,0.6-2.2
			c-0.6-0.2-1.2-0.5-1.8-0.7c0.4,0.5,0.6,1.3,1,1.8c0.4,0.6,1,1.1,1.6,1.5c1.3,0.8,2.8,1.1,4.2,1.5c0.2,0.1,2.8,1.3,1.5-0.4
			c-0.1-0.2-3.3,0.7-3.6,0.8c-2.4,0.5-4.8,1.1-7.2,1.6C271.7,499.9,273,504.7,276.2,504L276.2,504z"/>
	</g>
</g>
<g>
	<g>
		<path fill="#DA1817" d="M284.3,495.6c-2.2-1.8-4.7-3.4-7.6-2.5c-1.2,0.4-2.3,1.2-2.9,2.3c-0.3,0.6-0.5,1.2-0.5,1.9
			c0,0.3,0,0.7,0,1c0,0.1,0,0.3,0,0.4c0,0.3,0,0.3,0,0c-0.8,1.1-0.2,2.8,0.9,3.4c1.3,0.7,2.6,0.2,3.4-0.9c0.5-0.7,0.7-1.5,0.7-2.3
			c0-0.4-0.1-0.8-0.1-1.2c0-0.2-0.3,0.2-0.1,0.2c0.9-0.3,1.9,0.6,2.6,1.2c1,0.9,2.5,1,3.5,0C285.2,498.2,285.3,496.4,284.3,495.6
			L284.3,495.6z"/>
	</g>
</g>
<g>
	<g>
		<path fill="#DA1617" d="M282.7,500.1c3.2,0,3.2-5,0-5C279.4,495.1,279.4,500.1,282.7,500.1L282.7,500.1z"/>
	</g>
</g>
<g>
	<g>
		<path fill="#DA1617" d="M278.2,498.7c3.2,0,3.2-5,0-5C275,493.7,275,498.7,278.2,498.7L278.2,498.7z"/>
	</g>
</g>
<g>
	<g>
		<path d="M280.6,498.7c3.2,0,3.2-5,0-5C277.4,493.7,277.4,498.7,280.6,498.7L280.6,498.7z"/>
	</g>
</g>
<path fill="none" stroke="#000000" stroke-miterlimit="10" d="M278.3,487c0.5-0.2,0.7-0.7,1-1.2c3.1-6.1,6.3-12.1,9.4-18.2
	c0.5-0.9,0.9-1.8,1.7-2.4c0.8-0.6,1.9-0.9,2.7-0.4c1.2,0.7,1.3,2.3,2.1,3.3c0.9,1.3,2.8,1.6,4.3,1.2c1.5-0.4,2.9-1.3,4.2-2.1
	c4.1-2.5,8.6-4.4,13.1-6.2c0.5-0.2,1-0.4,1.6-0.3c1.1,0.2,1.5,1.7,1.5,2.9c-0.1,3.9-1.9,7.6-2,11.5c1.7-0.6,3.3-1.1,5-1.7
	c0.3-0.1,0.7-0.2,1,0c0.2,0.1,0.3,0.3,0.4,0.6c0.9,2.2,1,4.8,0.2,7.1c-0.4,1.2-1.1,2.3-1.7,3.3c-1.7,2.8-4,5.3-4.4,8.5
	c-0.3,1.8,0.3,3.7,0.7,5.5c1.2,5.3,1.2,11-0.1,16.3c-1.3,5.4-3.9,10.7-3.2,16.2c0.2,1.2,0.5,2.3,0.8,3.5c1.1,3.9,2.3,7.9,2.3,12"/>
<path fill="none" stroke="#000000" stroke-miterlimit="10" d="M278.4,486.8c-0.3,0.5-0.5,1-0.8,1.5c-1.5,0.2-2.7,1.5-3.4,3
	c-0.6,1.4-0.8,3-1.1,4.5c-0.1,0.3-0.1,0.6-0.4,0.9c-0.3,0.3-0.6,0.3-1,0.4c-2.2,0.4-4.4,1.1-6.5,1.9c-1,0.4-2,0.9-2.6,1.7
	c-0.6,0.9-0.6,2.2,0.2,2.8c0.5,0.4,1.2,0.4,1.8,0.7c0.6,0.3,1,1.1,0.5,1.6c1.7,0.4,3.5,0.6,5.3,0.4c0.9-0.1,1.9-0.1,2.4,0.5
	c0.2,0.3,0.3,0.6,0.4,0.9c0.8,2.8,2.4,5.3,4.5,7.3c0.4,0.4,0.8,0.7,1,1.2c0.2,0.5,0.2,1,0.2,1.6c0,1.4,0.3,2.8,1.2,3.8
	c0.9,1,2.6,1.4,3.7,0.6"/>
<path fill="none" stroke="#000000" stroke-miterlimit="10" d="M284.2,521.6c-0.1-0.3-0.1-0.7,0.2-1c0.3,0,0.7,0,1,0
	c0.3,1.9,0.6,3.8,1,5.7c0.2,0.9,0.3,1.9,0.5,2.8c0.2,1.1,0.4,2.2,0.6,3.3c0.3,1.9,0.6,3.7,0.7,5.6c0.1,1.2,0,2.4,0,3.6
	c0,1.8-0.1,3.7-0.1,5.5"/>
<g>
	<g>
		<path fill="#F5B431" d="M209.6,575.8c2.6,0.2,3.8,0.3,5.1-2c1.4-2.5,3.7-7,3.2-10c-0.6-3.5-4.2-4.7-7.1-5.9
			c-3.9-1.7-9.1-4.9-13.3-5.2c-2.8-0.2-4.3,1.6-5.7,3.8c-2.8,4.2-5.4,8.6-8,13c-2.6,4.4-11.9,16.1-3.6,19.1c3,1.1,4.3-3.7,1.3-4.8
			c0.3,0.1,12.8-22.2,14.2-24.2c1.6-2.3,2.2-1.5,4.7-0.5c2.6,1,5.2,2.1,7.8,3.2c2.9,1.3,5.1,2,3.6,5.6c-0.6,1.4-1.1,3.2-2,4.4
			c0.7-0.4,1.4-0.8,2.2-1.2c-0.8,0.1-1.7-0.1-2.5-0.1C206.4,570.5,206.4,575.5,209.6,575.8L209.6,575.8z"/>
	</g>
</g>
<g>
	<g>
		<path fill="#F5B431" d="M214.1,562.6c-4.6-3.9-11.1-6.1-16.7-8.2c-3-1.1-4.3,3.7-1.3,4.8c4.7,1.7,10.7,3.7,14.5,6.9
			C213,568.2,216.6,564.7,214.1,562.6L214.1,562.6z"/>
	</g>
</g>
<g>
	<g>
		<path fill="#F5B431" d="M194.4,555.6c-5.4,7.7-8.7,16.6-14.4,24.1c-3.6,4.7-3,9.4,2.3,12.2c3.5,1.8,7.2,3.4,10.9,4.8
			c2.7,1,5.7,2.4,8.4,0.6c2.5-1.7,5-6.3,5.8-9.1c0.8-2.7-0.3-3.9-1.9-6.3c-1.1-1.6-4.2-1.7-4.6,0.6c-0.5,2.7-2.1,7.1-4.3,8.9
			c0.8-0.2,1.6-0.4,2.4-0.6c-3.5-1.2-7.2-4.1-10.5-6c-0.8-0.5-1.7-0.9-2.5-1.4c-0.9,1.5-0.9,1.6,0.1,0.1c0.7-1.3,1.2-2.7,1.8-4
			c3.1-7.1,7.5-13.4,11.9-19.7c1.9-2.6-2.5-5.1-4.3-2.5c-4.4,6.3-8.8,12.7-11.9,19.7c-1.3,3-5,6.7-2,9.5c2.6,2.4,7.2,4.1,10.2,5.8
			c1.8,1,4.3,3.5,6.5,3.3c4-0.4,6.8-8.6,7.3-11.8c-1.5,0.2-3,0.4-4.6,0.6c0.3,0.5,1.8,2,1.8,2.6c0-0.2-1.7,2.2-1.8,2.4
			c-1.5,2.7-1.9,4-5,3c-2.8-0.8-5.6-2.2-8.2-3.4c-2.3-1.1-6.1-1.7-4.9-5.1c0.6-1.7,2.7-3.1,3.7-4.7c1.3-2,2.3-4.3,3.4-6.4
			c2.6-5.1,5.3-10.1,8.6-14.8C200.6,555.5,196.3,553,194.4,555.6L194.4,555.6z"/>
	</g>
</g>
<g>
	<g>
		<path fill="#F5B431" d="M229.5,568.6c-0.7,6.3-3,12.8-4.8,18.9c-1.6,5.6-4.1,11.3-4.6,17.2c-0.3,3.2,4.7,3.2,5,0
			c0.5-6.4,3.7-13,5.4-19.2c1.5-5.5,3.3-11.2,4-16.8C234.9,565.4,229.9,565.4,229.5,568.6L229.5,568.6z"/>
	</g>
</g>
<g>
	<g>
		<path fill="#F5B431" d="M227.7,589.5c3.6-0.1,7.6,1.9,11.1,2.8c3.5,0.9,7.1,1.5,10.6,2c3.1,0.4,4.5-4.4,1.3-4.8
			c-4.1-0.6-8.2-1.3-12.3-2.4c-3.6-1-7-2.6-10.8-2.6C224.5,584.5,224.5,589.5,227.7,589.5L227.7,589.5z"/>
	</g>
</g>
<g>
	<g>
		<path fill="#F5B431" d="M231,567.9c-0.8,5.6-2.1,11.1-3.9,16.5c-1,3.1,3.8,4.4,4.8,1.3c1.8-5.4,3.1-10.9,3.9-16.5
			C236.3,566.1,231.5,564.7,231,567.9L231,567.9z"/>
	</g>
</g>
<g>
	<g>
		<path fill="#F5B431" d="M229,567.6c-0.7,4-1.5,8-2.5,11.9c-1,3.9-2.8,7.5-3.9,11.3c-1.5,5-4.8,13.1,0.9,16.5
			c1.2,0.7,3.4,0.1,3.7-1.5c0.8-5.9,1.4-11.8,3.1-17.5c0.9-3.1-3.9-4.4-4.8-1.3c-1.7,5.7-2.2,11.7-3.1,17.5c1.2-0.5,2.4-1,3.7-1.5
			c-3-1.8,3.1-15.6,4-17.9c2-5.1,2.9-10.8,3.8-16.3C234.4,565.7,229.6,564.4,229,567.6L229,567.6z"/>
	</g>
</g>
<g>
	<g>
		<path fill="#F5B431" d="M230.7,587c6.4,1.6,12.7,3.3,19.2,4.3c3.1,0.5,4.5-4.3,1.3-4.8c-6.5-1-12.9-2.7-19.2-4.3
			C228.9,581.4,227.6,586.2,230.7,587L230.7,587z"/>
	</g>
</g>
<g>
	<g>
		<path fill="#F5B431" d="M253.7,574c-0.5,6.1-3.4,13.2-5.3,19c-0.9,2.7-2.1,5.2-2.5,8.1c-0.5,2.9-0.7,5.8-1.5,8.6
			c-0.4,1.3,0.5,2.7,1.7,3.1c3.3,1,4.9,0.1,5.7-3.3c0.6-2.8,0.6-5.7,1.3-8.5c0.7-2.9,2-5.6,2.6-8.6c1.1-5.6,3.8-10.9,4.6-16.6
			c0.5-3.5-1-4.4-4.4-4.6c-3.2-0.1-3.2,4.9,0,5c0.3,0,0.6-0.1,0.9-0.1c-0.4-0.7-0.8-1.4-1.2-2.2c0.3,2.5-1.6,6-2.4,8.3
			c-1,3.2-1.7,6.3-2.4,9.5c-0.6,2.7-1.8,5.1-2.4,7.8c-0.7,2.8-0.2,7.7-1.8,10c0.7-0.4,1.4-0.8,2.2-1.2c-0.4-0.1-0.8-0.3-1.2-0.4
			c0.6,1,1.2,2.1,1.7,3.1c0.9-3.1,1.1-6.3,1.7-9.4c0.6-3.1,2.1-6,2.9-9.1c1.7-6,4.4-12.3,4.9-18.6C259,570.8,254,570.8,253.7,574
			L253.7,574z"/>
	</g>
</g>
<g>
	<g>
		<path fill="#F5B431" d="M272.1,577.5c-0.5,7.1-1.6,14.2-2.8,21.2c-0.8,4.8-3.4,11.5-2.2,16.3c0.2,0.8,0.9,1.6,1.7,1.7
			c2.7,0.5,4.6-0.1,5.3-2.9c1.3-5.6,1.4-12,2.2-17.7c0.8-5.7,3.2-11.7,3-17.6c-0.1-3.4-2.2-3.8-5.4-3.8c-3.2,0-3.2,5,0,5
			c0.6,0,1.1,0,1.7,0c-0.4-0.7-0.8-1.4-1.2-2.2c0.6,5.4-2,11.7-2.9,16.9c-0.5,3-0.9,6.2-1.3,9.3c-0.5,3-0.1,7-1.2,9.8
			c0.6-0.6,1.2-1.2,1.7-1.7c-0.2,0-0.4,0-0.6,0c0.6,0.6,1.2,1.2,1.7,1.7c-0.6-2.4,1-6.6,1.4-8.9c0.5-3.2,1.1-6.3,1.6-9.5
			c1-5.9,1.7-11.8,2.2-17.8C277.4,574.3,272.4,574.3,272.1,577.5L272.1,577.5z"/>
	</g>
</g>
<g>
	<g>
		<path fill="#F5B431" d="M314,592.4c6.4-0.8,5-3.9,4.6-9.4c-0.2-2.4,0-4.7-2.4-5.9c-2.3-1.2-5.7-0.8-8.2-0.9
			c-5.4-0.2-13.9-2.2-17.2,3.5c-3.2,5.5-2.1,13.3-2.1,19.3c0,4.7-1.9,14.4,2.1,18c1.9,1.7,4.7,1.4,7.1,1.5c4.1,0.2,8.2,0.3,12.3,0
			c5.9-0.4,8.8-1.1,9.3-7.2c0.2-2.4,0.8-5.8-0.3-8.1c-1-2.1-3.3-2.5-5.3-3.3c-1.9-0.7-3.5,1.4-3.1,3.1c0.4,1.6,0.7,3.2,0.9,4.8
			c0.1,0.7,0.2,1.5,0.2,2.3c0.3,1,0,1.2-0.9,0.5c-2,0.9-6.1,0.2-8.3,0.2c-2.2,0-5.3,0.9-6.4-1.4c-0.8-1.7,0.6-6.3,0.6-8.3
			c0-2.7-0.4-5.5-0.6-8.2c-0.2-2.5-1.4-6.6,1.2-7.7c2-0.9,6.3-0.2,8.4-0.2c2,0,6.7-1.1,8.4-0.2c-0.4-0.9-0.8-1.9-1.1-2.8
			c-0.4,2.3-0.9,4.1-0.7,6.5c0.3,3.2,5.3,3.2,5,0c-0.1-1.9,0.2-3.4,0.5-5.2c0.2-1-0.1-2.3-1.1-2.8c-3.4-1.7-9-0.5-12.7-0.4
			c-3.1,0-9-0.7-11.7,1.4c-2.6,2.1-1.3,7.8-1.1,10.6c0.3,5.4,0.5,10.4,0.1,15.8c-0.2,2.7-0.2,5.7,2.4,7.3c3.2,1.9,8.9,0.8,12.4,0.8
			c2.9,0,8.3,0.6,10-2.4c1.7-3-0.1-8.6-0.8-11.7c-1,1-2.1,2.1-3.1,3.1c2.1,0.9,1.8-0.2,2.1,2.2c0.1,0.9,0.2,4.4-0.3,5.2
			c-1.3,2.2-7.6,1.5-9.9,1.5c-3.2,0-9.5,1-10.8-2.9c-1-3,0-7.6,0-10.8c0-3.3,0-6.6,0-9.9c0.1-3.8-0.1-8.1,4.4-8.9
			c3.4-0.6,8.4-0.4,11.8,0.2c2.6,0.5,3.1,0.6,3.7,3.4c0.2,0.6,0.4,2.6,0.3,2.7C310.8,587.8,310.8,592.8,314,592.4L314,592.4z"/>
	</g>
</g>
<g>
	<g>
		<path fill="#F5B431" d="M329.5,577.1c1.3,9.9,2.9,19.9,4,29.8c0.2,2.2,0.5,15.3,6.4,9.7c1.9-1.8,1.1-4.6,0.6-6.8
			c-1-4.7-0.9-9.2-1.4-14c-0.5-4.8-1.3-9.6-1.7-14.4c-0.2-2.8-0.4-5.5-2.8-7.1c-2.7-1.8-5.2,2.5-2.5,4.3c0.9,0.6,0.8,7.8,0.9,8.8
			c0.4,3.1,1,6.2,1.2,9.4c0.2,2.6,0,5.2,0.2,7.8c0.1,1.1,0.5,6.7,1.5,7.4c1-0.1,2-0.2,3-0.2c0-0.5,0-0.9,0-1.4
			c0.3-1.3-0.3-3.8-0.5-5c-0.4-2.8-0.7-5.6-1.1-8.4c-0.9-6.6-1.7-13.1-2.6-19.7C334.1,573.9,329.1,573.9,329.5,577.1L329.5,577.1z"
			/>
	</g>
</g>
<g>
	<g>
		<path fill="#F5B431" d="M353.9,571.7c-2.7,3.9-5.2,8-8.1,11.8c-1.4,1.8-3,3.2-4.5,4.8c-1.5,1.6-2.6,3.6-4.6,4.6
			c-2.9,1.3-0.4,5.7,2.5,4.3c1.7-0.8,2.7-1.6,3.8-3.1c1.9-2.4,4.1-4.3,6-6.7c3.3-4.1,6.2-8.8,9.2-13.2
			C360,571.6,355.7,569.1,353.9,571.7L353.9,571.7z"/>
	</g>
</g>
<g>
	<g>
		<path fill="#F5B431" d="M340.3,596c2.6-3,5.6-6,7.5-9.5c2.1-3.8,3.6-7.4,6.7-10.5c2.3-2.3-1.2-5.8-3.5-3.5
			c-2.9,2.8-4.5,5.8-6.4,9.4c-2.1,4-4.9,7.2-7.9,10.6C334.6,594.9,338.2,598.5,340.3,596L340.3,596z"/>
	</g>
</g>
<g>
	<g>
		<path fill="#F5B431" d="M355.4,570.8c-4.2-0.1-6.6,3.9-8.8,6.9c-3.1,4.4-5.7,9.1-9.2,13.2c-2.1,2.4,1.4,6,3.5,3.5
			c2.4-2.8,4.4-5.8,6.4-8.9c1.5-2.3,5.1-9.9,8.1-9.8C358.7,575.9,358.7,570.9,355.4,570.8L355.4,570.8z"/>
	</g>
</g>
<g>
	<g>
		<path fill="#F5B431" d="M340.1,595.9c5.5,7.5,14.4,12.4,21.9,17.7c0.2-1.5,0.4-3,0.6-4.6c-0.9,0.2-1.7,0.4-2.6,0.6
			c-2.3,0.4-1.9,0.3-3.1-1.1c-1.6-1.8-3.4-3.4-5-5.2c-3.1-3.3-6.3-6.6-9.1-10.2c-2-2.5-5.5,1-3.5,3.5c3.9,5,8.4,9.7,12.9,14.2
			c1.4,1.4,2.9,3.5,4.9,4c2,0.5,4.9-0.5,6.8-1c2.2-0.6,2.3-3.4,0.6-4.6c-6.7-4.7-15.2-9.2-20.1-15.9
			C342.5,590.8,338.2,593.3,340.1,595.9L340.1,595.9z"/>
	</g>
</g>
<g>
	<g>
		<path fill="#F5B431" d="M341.7,595.8c5.8,4.7,9.9,11.1,16.1,15.4c2.7,1.8,5.2-2.5,2.5-4.3c-5.8-4-9.6-10.2-15.1-14.6
			C342.7,590.3,339.2,593.8,341.7,595.8L341.7,595.8z"/>
	</g>
</g>
<g>
	<g>
		<path fill="#F5B431" d="M368.6,571.3c0.9,6.8,3.3,13.2,4.7,19.9c0.7,3.5,2,6.8,2.8,10.3c0.6,2.7,0.6,5.2,1.9,7.8
			c0.5,1,1.8,1.4,2.8,1.1c4.6-1.1,9.2-2.3,13.8-3.5c2.5-0.7,8-1,9.8-3.2c2.2-2.7-0.1-8-3.3-8.6c-2.9-0.6-7.8,2.1-10.5,3
			c-2.3,0.7-4.7,1.7-7,2.3c-0.6,0.2-1.2,0.4-1.8,0.6c1.6-0.3,1.9-1.1,0.8-2.5c0-2.1-1.4-5-1.9-7c-0.4-1.8-0.8-3.5-1.3-5.3
			c-0.6-2.3-1.2-4.7-2-7c-0.7-2.2-2.2-4.6-2.4-6.9c-0.3-3.2-5.4-3.2-5,0c0.4,3.2,1.9,6,2.9,9.1c1.1,3.5,1.9,7,2.8,10.6
			c0.8,3.4,1.5,12.7,5.7,14c2,0.6,5.1-1.2,7-1.8c3.5-1.1,7.2-2,10.5-3.4c1.2,0.5,1.5,0.4,0.8-0.3c-0.6,0.2-1.2,0.3-1.8,0.5
			c-1.8,0.2-3.7,1-5.5,1.5c-4.3,1.2-8.6,2.2-12.9,3.3c0.9,0.4,1.9,0.8,2.8,1.1c-1.2-2.4-1.2-5.7-1.9-8.3c-0.8-2.9-1.7-5.6-2.3-8.5
			c-1.3-6.2-3.7-12.2-4.5-18.5C373.2,568.1,368.2,568.1,368.6,571.3L368.6,571.3z"/>
	</g>
</g>
<g>
	<g>
		<path fill="#F5B431" d="M374.5,575.6c6-1.2,12.1-2.1,18.1-3.8c3.5-1,4.7-2.6,3.3-6.2c-1.4-3.9-4.3-2.8-7.6-1.8
			c-6.2,1.8-12.2,3.8-18.6,4.8c-3.2,0.5-1.8,5.3,1.3,4.8c4-0.6,8-1.6,11.9-2.8c1.7-0.5,3.3-1,5-1.5c1.7-0.5,3.7-2.3,3.5-0.3
			c0.4-0.7,0.8-1.4,1.2-2.2c-2.6,1.5-6.7,1.7-9.6,2.4c-3.3,0.7-6.6,1.2-9.9,1.8C370,571.4,371.4,576.3,374.5,575.6L374.5,575.6z"/>
	</g>
</g>
<g>
	<g>
		<path fill="#F5B431" d="M378.1,588.5c1.9-0.5,3.8-0.9,5.7-1.3c1.6-0.3,3.7-1,5.3-0.9c-0.7-0.4-1.4-0.8-2.2-1.2
			c-0.1-0.2-0.1,1.2-0.1,1.4c0.2-0.6,0.5-1.2,0.7-1.8c0.6-0.3,0.6-0.3,0-0.1c-0.5,0.1-0.9,0.3-1.4,0.4c-0.8,0.2-1.5,0.5-2.3,0.7
			c-1.7,0.5-3.3,1-5,1.5c-3.1,0.9-1.8,5.7,1.3,4.8c3.1-0.9,6.9-1.5,9.8-3c2.4-1.2,2.2-4.3,1.2-6.5c-0.4-0.8-1.3-1.2-2.2-1.2
			c-1.8-0.1-3.9,0.6-5.7,0.9c-2.2,0.4-4.4,1-6.6,1.5C373.7,584.4,375,589.3,378.1,588.5L378.1,588.5z"/>
	</g>
</g>
<g>
	<g>
		<path fill="#F5B431" d="M377.9,598.4C377.9,598.5,378,598.7,377.9,598.4c0.1,0.4,0.1,0.8,0.2,1.1c0.1,0.6,0.4,1.1,0.6,1.7
			c0.3,0.8,0.7,1.5,0.8,2.3c0.2,1.3,1.9,2.1,3.1,1.7c1.4-0.4,2-1.7,1.7-3.1c-0.2-1-0.6-2-1.1-2.9c-0.4-0.9-0.4-1.3-0.6-2.2
			C381.9,593.9,377.1,595.2,377.9,598.4L377.9,598.4z"/>
	</g>
</g>
<g>
	<g>
		<path fill="#F5B431" d="M404,561.8c3.3,9,6.6,17.9,9.6,27c0.9,2.7,2.8,13.9,8,10.1c1.4-1.1,1.4-2.6,1-4.1c-1-3.2-2.8-6.2-3.7-9.5
			c-2.4-8.4-4.8-17-8.2-25.1c-1.2-2.9-6.1-1.6-4.8,1.3c2.7,6.5,4.7,13.3,6.7,20c0.9,2.9,1.6,5.9,2.6,8.8c0.6,1.6,2.9,5.1,2.8,6.4
			c0.4-0.7,0.8-1.4,1.2-2.2c2.8-1.4-3.2-14.6-4.1-17c-2-5.7-4.1-11.4-6.2-17C407.8,557.5,402.9,558.8,404,561.8L404,561.8z"/>
	</g>
</g>
<g>
	<g>
		<path fill="#F5B431" d="M409.2,565.1c3.9,2.8,8.1,5.2,12.6,7c5,2,10.2,3.9,14.2,7.6c2.4,2.2,5.9-1.4,3.5-3.5
			c-7.9-7.2-19.2-9.2-27.8-15.4C409.1,558.9,406.6,563.2,409.2,565.1L409.2,565.1z"/>
	</g>
</g>
<g>
	<g>
		<path fill="#F5B431" d="M415.3,571.1c4.4,3.1,9,5.9,13.9,8.3c4.6,2.2,9,4.4,12.6,8.3c2.2,2.4,5.7-1.2,3.5-3.5
			c-7.4-8-18.8-11.1-27.5-17.3C415.2,564.9,412.7,569.2,415.3,571.1L415.3,571.1z"/>
	</g>
</g>
<g>
	<g>
		<path fill="#F5B431" d="M424.1,577c2.6,2.9,5.9,4.3,9.2,6.2c3.3,2,6.4,5.6,10.1,6.8c0.8,0.3,1.9,0,2.4-0.6
			c1.5-1.8,1.1-3.3,0.1-5.3c-1.9-3.9-4-7.4-5.3-11.6c-2.3-7.3-4-14.9-7.7-21.7c-1.5-2.8-5.8-0.3-4.3,2.5c3,5.6,4.7,12,6.4,18.1
			c0.8,2.8,1.7,5.7,2.9,8.4c0.5,1.3,1.1,2.5,1.8,3.7c0.6,1.2,1.2,3.8,2.5,2.3c0.8-0.2,1.6-0.4,2.4-0.6c-3-1-6.1-4.7-8.9-6.3
			c-2.9-1.7-5.9-2.8-8.2-5.4C425.5,571.1,422,574.7,424.1,577L424.1,577z"/>
	</g>
</g>
<g>
	<g>
		<path fill="#F5B431" d="M428,552.4c2.7,10.3,6.3,20.2,10.7,29.8c1.3,2.9,5.6,0.4,4.3-2.5c-4.2-9.2-7.6-18.8-10.2-28.6
			C432,548,427.1,549.3,428,552.4L428,552.4z"/>
	</g>
</g>
</svg>
