<?xml version="1.0" encoding="utf-8"?>
<!-- Generator: Adobe Illustrator 23.0.1, SVG Export Plug-In . SVG Version: 6.00 Build 0)  -->
<svg version="1.1" id="레이어_1" xmlns="http://www.w3.org/2000/svg" xmlns:xlink="http://www.w3.org/1999/xlink" x="0px"
	 y="0px" viewBox="0 0 595.3 841.9" enable-background="new 0 0 595.3 841.9" xml:space="preserve">
<path fill="#F5B431" d="M288.5,588.2c-18.4,7.1-31.7,12.3-50.2,13.1c-19.6,0.9-27.6-3.8-36.2,1.6c-11.3,7.2-9.3,22.9-9,25
	c1.7,12.3,10.9,20.2,20.6,28.3c8.4,7,25.8,21.6,55.3,27.5c26.1,5.2,46.8,0.5,65.3-3.7c19.6-4.4,39.8-9,57.8-24.2
	c21.2-17.9,25.5-38.9,26.6-45.1c3.6-19-1.9-33.8-5.5-43c-4.4-11.2-6.5-16.8-12.1-19.7c-14.8-7.6-40.1,4.6-72.3,20.1
	C305.9,579,306.1,581.4,288.5,588.2z"/>
<g>
	<g>
		<path fill="#434241" d="M2326,429.6c3.2,0,3.2-5,0-5S2322.8,429.6,2326,429.6L2326,429.6z"/>
	</g>
</g>
<polygon fill="#434241" points="141.9,219.5 143.9,219.5 142.2,674.5 140,674.5 140.7,220.4 140.7,218.6 "/>
<path fill="#434241" d="M475.2,214.9l-3.5,169.5v191.9c0,0,0.6,12.3,0,16.4c-0.6,4.1-0.6,80.5,0,87.5c0.6,6.9-2.8,5.7-2.8,5.7
	s-2.4-9.1,0-20.1c0,0-0.5-0.9-0.8-2.2c-0.4-1.3-2-29-1-31.4c0,0-0.2-18.5,0.3-20.9c0.5-2.4,0.8-25.7,0.8-25.9s0-24.5-0.3-28.8
	c-0.3-4.2,0-8.5,0-11c0-2.5-0.3-28.2,0.5-31.8c0,0,0-8-0.2-11.6c-0.2-3.6,0-42.3,1.1-46.7c0,0-1.3-82.4,0.2-86.8l2.4-149.6
	L475.2,214.9z"/>
<path fill="#FFFFFF" d="M141.9,663.7c0,0,1.1-0.8,2.5,0.8c1.3,1.6,11.8,12.4,20.3,18.1s15.7,9,18.1,9.9c2.4,0.8,2.1,1.4,2.8,1.7
	c0.7,0.3,33.8,12.5,44.6,14.4s35.7,5.5,54.6,6.8s36.5,1.6,49.5,0c13.1-1.6,35.1-4.2,43.4-7.2c0,0,6.4-0.2,7.9-0.8
	c1.5-0.6,2.4-0.8,3.1-1c0.7-0.2,1.6-0.4,2.7-0.8s4.3-0.9,6.5-1.9c2.2-0.9,4.8-2.4,7.6-2.7c2.7-0.3,5.2-2.8,5.2-2.8s2.7-0.5,4.3-1.6
	c1.6-1,23.8-11.6,32-17c8.2-5.3,14.8-9.2,18.6-13.5c0,0,2.3-2,2.1,1.6s-0.2,3.5-0.2,3.5s-22.2,17.9-51.4,29.8c0,0-2.9,2.2-11.4,5
	c-8.5,2.9-26.1,9.7-48.2,11.5c0,0-29.6,6.4-57.6,3c0,0-54.1,1.1-92.2-13.7S156,683.8,150,677.1c0,0-7.3-6.4-8.8-8.1
	S141.9,663.7,141.9,663.7z"/>
<path fill="#77583F" d="M266.2,456.9c0,0-24.7,17.6-15.9,55.4c8.8,37.8,47.8,44.5,61.9,40.3c14.1-4.2,41.7-13.6,44.7-45.5
	c2.9-31.9-11.3-54.3-46.6-61.9C310.2,445.2,285.3,440.4,266.2,456.9z"/>
<path fill="#CDC9BD" d="M227.9,414.2c-0.1-0.1-0.2-0.2-0.3-0.3c-0.3-0.2-0.6-0.5-1-0.7c-1.5-0.9-3.9-1.3-5.5-0.5
	c-0.8,0.4-1.3,1.1-1.7,1.9c-0.2,0.4-0.3,0.9-0.4,1.3c-0.3,1.2-0.1,2.4,0.5,3.4c0.2,0.4,0.5,0.7,0.8,1c0.6,0.6,1.1,1,2,1.2
	c0.7,0.1,1.5,0.1,2.3,0c0.5,0,1.2-0.1,1.5-0.6c0.9-1.1,0.7-2,0.7-2s1.1,1.2,1.8,2.1s0.8,1,0.3,1.6s-2.6,2.8-7.7,1.8
	c-5.1-0.9-7.7-6-7.4-8.9s3.4-6.8,7.7-6.6c4.2,0.2,7.8,2.2,7.7,3.4l-1,2C228.3,414.4,227.9,414.2,227.9,414.2z"/>
<path fill="#CDC9BD" d="M237.7,412.8c0,0-3.8,3.4-2.8,6.1c0,0-0.6-0.5-0.8,0s-1.3,7.9,7.3,9.7c0,0,8,0.6,9.8-4.5
	c1.8-5-0.2-9-4.6-11.2C246.6,412.8,242.8,410.5,237.7,412.8z"/>
<path fill="#E08C11" d="M241.9,415c0,0,4-1.2,6.2,3.5s-3,6.7-4.4,6.7s-5-1-5.2-4.1c-0.2-3.1,0.6-3.9,1.4-4.9
	C240,416.2,241.6,415.8,241.9,415z"/>
<path fill="#CDC9BD" d="M258.5,415.9c0,0-0.5,3.5-0.4,7c0.1,3.5,0,6.1,0,6.1h3.7c0,0-0.4-7.2,0-7.5c0.4-0.3,0.6-1.5,0.6-1.5
	s5.4,9.8,6.8,10s3.3,0,3.3,0s0.6-11.5,0.9-12.7c0.3-1.3-0.6-1.9-1.8-1.9c-1.2,0-1.4-0.2-1.7,2.5c-0.3,2.7-0.5,5.3-1.4,5.3
	c0,0-2.5-3.3-4.2-6.3c-1.7-3-3.4-2-4-2C259.6,414.8,258.6,414.6,258.5,415.9z"/>
<path fill="#CDC9BD" d="M280.4,416.9v14.4h9.2c0,0,7.2-0.6,7.1-8.4s-6-6.6-6-6.6l-10.3-0.1V416.9z"/>
<path fill="#E08C11" d="M284.3,419.5v6.1c0,0,1,0.8,1.3,1.5c0,0,5.7,1.3,7.4-3.1c0,0,0.7-3-2.4-4.6H284.3z"/>
<path fill="#CDC9BD" d="M303.8,418.1l-0.5,13.7h13.2v-3.3l-7.9-0.3c0,0-2.1-1.2,0-2.6l7.9,0.1c0,0,1.7-1.8,0-2.6h-8.7v-2.9h9.5v-3.3
	h-12.5C304.9,416.9,303.9,417.1,303.8,418.1z"/>
<path fill="#CDC9BD" d="M325.6,415.8c0,0-1.3,15.5-0.6,15.5c0.7,0,2.4,0.5,2.8-2c0.3-2.4,0.2-7.4,1.7-7.2c0,0,6.7,8.8,7.7,8.8
	s2.2-0.3,2.2-1.3s0.9-13.8,0.9-13.8s0.3-1-1.5-0.9c-1.8,0.1-1.3,8.2-1.9,8.6c-0.6,0.4-0.7,1.4-2.4-0.4c-1.7-1.8-5.9-8.1-7.4-7.7
	C325.6,415.8,325.6,415.8,325.6,415.8z"/>
<path fill="#CDC9BD" d="M353.4,416.9c0,0-1.9,0.2-2,1.5c-0.1,1.3,1.5,1.5,3.5,1.9c2,0.4,7.2,1.3,7.2,5.3c0,4-6,5.1-7.7,5.1
	s-6.4,0-6.4,0v-3.8c0,0,3.4,1.6,5,1.3c1.7-0.2,6-1.4,4.2-3.9c-1.8-2.4-7.4,0.5-9.8-4c-1.4-5,2.3-6.3,4.2-6.4c2-0.2,6.4-0.9,7,1
	c0.6,1.9-0.5,2-2.6,2C354,416.9,353.4,416.9,353.4,416.9z"/>
<path fill="#CDC9BD" d="M367.6,413.6v14.7c0,0,10.9,0.4,11.7-0.9v-2.5l-7.6,0.2c0,0-0.9-0.2-0.2-2.4c0,0,6.8-0.8,7.8-1.6v-2.1
	c0,0-6.8,0.9-7.9,0.3c-1.1-0.6-0.9-3.1-0.5-3.3c0.5-0.2,8.1-1,8.1-1l-0.1-2.7C379,412.1,368.2,412.6,367.6,413.6z"/>
<path fill="#CDC9BD" d="M384.3,409.8l0.6,15.8c0,0,10.7,1,12.8-8.7c0,0,1.1-7.2-5.3-7.7S384.3,409.8,384.3,409.8z"/>
<path fill="#E08C11" d="M387.8,414.1l0.4,7.1c0,0,3.6,0.7,5.2-2.8s0.2-5.7-1.5-6.3C390.2,411.5,387.8,414.1,387.8,414.1z"/>
<path fill="#3D3C3E" d="M170,286c0,0,2.8-0.1,3.8,2.9c0,0-0.4,0.9-1.6,1.5c-1.2,0.6-3.8,6.6-2.8,9.3c0,0,0.8,1.3-0.2,1.4
	c-1,0.2-3.6,0-3.6,0l1.5,2.5l1.7,4.6l-3.3,0.7c0,0-4.3-2-4.1-9.2c0,0,0.2-2.8,1.9-4.6l1.3-5.2L170,286z"/>
<path fill="#3D3C3E" d="M215.3,288.7c0,0,1.6-0.7,1.5-1.5c-0.1-0.8,5.9,7-0.6,18.2c-6.5,11.3-21,12.1-30.4,12.1h-3.2
	c0,0-11,17-10.9,38.4c0,0,0.7,4.4,2.1,7.3s-3.2,1.5-3.2,1.5l-3.9-7.1l-2.4-23.9c0,0,2.7-14,3.3-15.3c0.6-1.3,4.9-9.7,4.9-9.7
	l3.7-5.5l4.7-0.5c0,0,1.6-8.7,16.5-18.9c0,0,18.7-3.1,14.1,7.3L215.3,288.7z"/>
<path fill="#3D3C3E" d="M187.6,329.2l0.7-2.8c0,0,8.9,2.4,6.9,21.8c0,0-3.9,12.1-8.6,16.4c-4.7,4.2-8.3,7.1-11,5.4
	c0,0-0.8-1.1,0-1.6c0.8-0.4,14.8-10.9,14.5-24.1c-0.3-13.1-2-12.2-2-12.2l-1.9-1.7L187.6,329.2z"/>
<path fill="#3D3C3E" d="M186,333.7c0,0-0.2-0.6-2.4,1.7c0,0-2.6,3.7-3,13.1c0,0-0.1,0.6,0.5,0.9c0.6,0.3-0.5,1.4-1.6,0.7
	c-1.1-0.7-3.4-1.5-3.4-3.8s0.6-5.8,0.6-5.8l1.4-6.3l2-2.8l2.6-1.7l2.2,1L186,333.7z"/>
<path fill="#E0DBD1" d="M167.1,284c0,0-4.2,4.4-4.4,6.5c-0.8,1.9-0.8,9.2,4.4,14.5c0,0-18,36.1,0,59.6c0,0,7.3,8.6,14.3-2.1
	c6.9-10.7,14.1-20.3,7.8-32.5l-1.4-1.6c0,0-0.1-1.9-1.8-1.9s-6.6,3-8,6.6c-1.4,3.6-4.2,12.1-1.6,14.2l0.4,0.4c0,0,0.6-10.9,2.8-13.6
	c2.1-2.8,5.3-5.4,6.3,2.2c1,7.6-2.5,16.8-8.3,22.3c-5.7,5.6-6.8,3.4-9.4-4.4c-2.6-7.8,1.8-32,10.2-41.4c0,0,30.5,1.7,37.6-21.6
	c0,0,1.7-6.3-4.2-9.4c-5.9-3.1-10.8-2.6-20.9,1.8S171.3,300,171,300.9c-0.3,0.9-2.7,2-4.5-0.2c-1.8-2.1-3-7.3-0.3-10.8
	c2.7-3.5,5.6-3.5,5.6-3.5S171.3,283.8,167.1,284z"/>
<path fill="#3F3C39" d="M180.1,309.2c0,0,1.8-7.5,7.6-12.8c5.7-5.3,14.1-15.3,22.2-9.8c0,0,1.5,1.9,0.9,4.6l-1.5,1.3l-20.8,12.7
	l-4,4.1H180.1z"/>
<path fill="#E08C11" d="M209.9,292c0,0-2.4-2.3-7.4-1.3c0,0-2.6,0.5-4.5,2.2c-1.9,1.7-3,2.3-3.5,2.6c-0.6,0.3-4.6,5.3-5.4,6
	c-0.9,0.6-3.9,7.4-3.9,7.4l-0.7,0.3c0,0,13.1-1.9,17.9-6.7S208.2,296.6,209.9,292z"/>
<path fill="#3D3C3E" d="M196,372c0,0-0.9,2.6,0.7,4.2c1.7,1.6,7.4,2.6,11.6-2.1c4.2-4.7,2.9-7.7,2.9-7.7h-2.8l-4.8,3.1l-4.4,3.2
	L196,372z"/>
<path fill="#3D3C3E" d="M214.5,376c0,0-0.9,1.7,0.6,3.1c1.6,1.3,4.2,5.1,10.7,0l10.3-15l3.3-5.9l-0.7-2.7l-2,1.5l-2.1,1.3l-2.4,3.9
	l-3.4,4.3l-4.7,5.6l-2.9-0.5L214.5,376z"/>
<path fill="#3D3C3E" d="M221.2,370.5c0,0,2.9,0.2,3.5-3.2c0,0,7.3-14.9,8.3-17.1s4.9-12.5,4.9-12.5s0.8-1.5-0.9-2.4
	c0,0-1.6-1.5-1.6-1.9s-1.3-0.3-2.3,0.6s-16.9,29.3-16.9,29.3v7.3L221.2,370.5z"/>
<path fill="#3D3C3E" d="M229.3,377.9c0,0-1.9,1.1-1.4,2.8c0.5,1.7,2.2,4.3,4.6,4.3s6.6,0,6.6,0s1.3,0.6,3-3.5
	c1.7-4,15.2-31.4,16.1-31.9s1.5-1.4,3.6-0.6c2.1,0.8,2.9-3.5,2.9-3.5s-4-1.8-4.2-1.8c-0.2,0.1-5.3,0-5.3,0l-6.5,2.8l-7.2,12.8
	l-4.1,10.4L229.3,377.9z"/>
<path fill="#3D3C3E" d="M248.6,379.2c0,0-2.3,1.3-2,2.4c0.3,1.2,3.8,5.1,5.2,5c1.4-0.2,8.2-0.9,8.2-0.9s0.8-0.6,2-3.2
	c1.3-2.6,14.6-30.8,14.9-31.1c0.3-0.2,3.9-2.9,3.9-2.9v-4.8l-8.2,1.2l-6.1,4.2l-6.3,11l-5.9,15.7L248.6,379.2z"/>
<path fill="#3D3C3E" d="M290,340.9c0,0,0.7-3.4,2.7-1.3s5.3,6.5,2.4,12.6s-11.1,20.4-11.1,20.4l-3.1,4.5l-10.5,1.8
	c0,0,8.4-10.1,8.4-10.3c0-0.2,2.5-14.6,2.5-14.6L290,340.9z"/>
<path fill="#3D3C3E" d="M268,380.8c0,0-2.4,4.6,2.8,7.3c5.3,2.7,10.5-3.7,12.5-6.4c2-2.8,11.8-9.8,11.8-9.8l6.8-12.4l-4.3-1.6
	l-3.4,1.5l-2.3,2.3l-1.3,2.1l-2.4,3.6l-2.8,3.9l-1.8,3.1l-2.8,3.5l-8.9,3.3L268,380.8z"/>
<path fill="#3D3C3E" d="M273,406.9c0,0-1.8,1.4-1.3,2.4c0.6,1,3.2,3.5,3.2,3.5l7.9-0.6c0,0,0.5,0,1.2-1.9
	c0.7-1.9,12.1-23.2,12.1-23.2s0.8-1.6,1.7-0.5c0.9,1.2,5.7,6.6,14.1,1.6c8.4-5,13.4-11.2,16.7-16.9c3.3-5.7,7.5-14.7,8.3-19.1
	c0,0,6.6-4.1,7.5-6.5l-1-1.9l-3.4,0.8l-2.2,0.2c0,0-6.4,2.4-6.7,2.4c-0.2,0-21.1,33-21.1,33l-6.4,1.5l-3.5-1.3l-4-3.6l-5.5,4
	l-12.2,19.9L273,406.9z"/>
<path fill="#3D3C3E" d="M321.6,328.9c0,0,4.2,3.3,3.9,4.8c-0.3,1.5-10.3,9-10.3,9l-3.1-0.6l1-6.7l5.9-5.3L321.6,328.9z"/>
<path fill="#3D3C3E" d="M388.1,297.5c0,0,3.2-1,3.4,2.1c0.2,3.1-0.2,12.1-8.7,19.4c-8.5,7.3-12.8,10.6-14.9,11.8
	c-2,1.2-8.8,4.6-9.3,5.8c-0.5,1.2-5.7,0.4-5.7,0.4l6.4-8.9l4-0.5l6.3-4.5l5.2-5.3l5.9-6.1l6-9.9L388.1,297.5z"/>
<path fill="#3D3C3E" d="M371.4,335.8c0,0,0.6-1.9,2.8,0.6c2.1,2.5,3.7,4.4,3.6,6.9c-0.1,2.5-0.9,4.6-0.9,4.6l-4.7,1.7l-3-3.2
	c0,0,0.7-2.9,0.7-4.9C369.9,339.6,371.4,335.8,371.4,335.8z"/>
<path fill="#3D3C3E" d="M337.5,382.2c0,0-2.4,0.9-1.8,1.5c0.6,0.6,4.3,6.6,15.7,0c11.4-6.6,18.9-17.5,21.2-27.7c0,0,1.7-0.7,3.3-0.8
	c1.6-0.1,4.2,0,4.2,0s1.3-2.3,1.4-3.5h4c0,0,2.5-1.5,0.9-4.4c-1.7-2.9-4.2-2.7-4.2-2.7l-2.3,1.3l-5.3,1.3l-7.8,3l-5.9,15.4l-7.7,9.1
	l-8.7,3.8L337.5,382.2z"/>
<path fill="#3D3C3E" d="M385.5,369.6c0,0-0.8-3-0.2-4.9c0.7-1.9,5.5-7.4,10.8-8.7c0,0,4.9-0.7,5.9,0c1,0.7,1.3-5.9,1.3-5.9h-0.9
	c0,0-2.1-3.2-5.7-2.4s-10.3,4.9-10.3,4.9l-5.8,3.9l-4.9,13.8l5.6,5.8l5.7-2.8L385.5,369.6z"/>
<path fill="#3D3C3E" d="M367.6,372.1c0,0-1.9,7.6,4.6,11.3c6.4,3.7,11.8,2.6,18-4s11.1-10.7,11.1-10.7s-0.1-2.9-0.8-3
	c-0.7-0.1-5.4,0-5.4,0l-4.9,3.5l-5.9,3.3l-10.7,2.3L367.6,372.1z"/>
<path fill="#3D3C3E" d="M397.2,373.4c0,0-1.8,6.4,1.9,8.1s10.7-1.7,15.8-10.9c5.1-9.2,5.3-6,5.3-6l-3.6-2.7l-4.5,2.9l-7,4.6
	L397.2,373.4z"/>
<path fill="#3D3C3E" d="M416.8,369.9c0,0,1.9,5.7,6.9,5.7c5,0,7-8.9,7.8-8.9s2.3,5,8.1,4.5c5.8-0.5,5.7-6.8,6.7-8.1
	c0,0,2.7,2.7,4.5,2.1c1.8-0.6,6.5-6.1,6.2-14.5c0,0-1.9-0.9-2.6,0.7s-4.4,5.2-4.4,5.2l-4.7-1.4l-10.8,6.4l-3-1l-4,2.4l-6.6,4.3
	L416.8,369.9z"/>
<path fill="#3D3C3E" d="M404.1,327c0,0,4.2-2.1,4.9,1.2c0.7,3.3,0.5,11.6-7.2,16.5c0,0-7,3-9.5,2.7c-2.5-0.3-4.8-2.7-4.8-2.7l4-2.8
	l4.8-3l5-3.7L404.1,327z"/>
<path fill="#3D3C3E" d="M433.7,289.8c0,0,3.9,2.1,2.8,6.6c-1.1,4.6-9.4,24.7-10.5,28.6s-2.1,6-2.5,7c-0.4,1-1.3,3.6-1.3,4.3
	c0,0.7-1.6,2.7-1.9,4c-0.3,1.3-4.9,12.3-5.1,13.1c-0.2,0.8-4.4,9.5-3.7,10.5s-2.9,4.6-2.9,4.6l-5.8-1.7l3.1-12.5l6.9-12.6
	c0,0,4.4-13.8,4-14.2c-0.4-0.3,3.5-11.4,3.5-11.4l3.9-8.5l3.9-12.2l3.3-5.1L433.7,289.8z"/>
<path fill="#3D3C3E" d="M448.3,286c0,0,4.3-1.3,4.3,1.8s-3.5,17.7-5.1,21.6c-1.7,3.9-11.4,29.5-12.2,31.6c-0.7,2.1-3.5,8.1-3.1,10.7
	c0.3,2.6-5.7,13.9-5.7,13.9l-3.4-3.7l-1.6-10.4l8.5-17.2l4.6-15.5c0,0,4.6-11.5,4.7-11.8c0.1-0.3,4.7-14.3,4.7-14.3L448.3,286z"/>
<path fill="#3D3C3E" d="M453.3,287.7c0,0,5.9,0.5,4.9,6c-1,5.5-4.4,11.3-10.7,10.8l0.8-2.7l4.2-3.4l1.1-7.4L453.3,287.7z"/>
<path fill="#3D3C3E" d="M452.6,313.5c0,0,2.1-1.5,2.6-0.8c0.5,0.8,0.1,8.3,0,11.9c-0.1,3.6,0,20.8-1.7,24.2c-1.7,3.4-2,4.7-2,4.7
	l-4,0.5l-0.7-3.3c0,0,2.4-5.1,2.2-6.1c-0.2-1,0.4-9.4,0.4-10.1c0-0.8,0.6-8.7,0.6-8.7s0-6.7,0-7C450,318.6,452.6,313.5,452.6,313.5z
	"/>
<path fill="#E0DBD1" d="M222.1,335.9c0,0-1.6-6.3-5.9-7.7c-4.3-1.4-12,5.6-14,7.7c0,0-9.3,12.3-9.4,22c-0.1,9.8-0.7,13.6,6.3,16.5
	c0,0,6.3,0.6,9.3-6.6c0,0,1.9-2,2.1,0.7s-0.1,8.6,5.2,8.5c0,0,4.7-1.7,6-2.8c1.2-1.2,1.2,0.2,2-0.3s10.1-11.4,12-15.5
	c0,0,2.7-1.9,1.6,0.9c-1.1,2.8-9.4,18.7-9.4,18.7l0.5,0.9h10.3c0,0,12.4-34.3,19.5-33.8c0,0,3.7-0.3,3.1,3.4c0,0,0.6,1.2-0.7,3.5
	c-1.3,2.4-13.2,27.9-13.2,27.9h8.8c0,0,13.2-29.9,18.1-33.4s5,0.4,4.8,1.9c-0.2,1.5-11.6,26.4-11.6,26.4s-2.8,8.5,2.8,8.6
	c5.7,0.1,9.5-0.9,15.4-9.3c5.9-8.4,7.9-13.5,10.4-12.5c0,0,1.2,1.1-0.7,3.4s-17.8,28.3-20.1,34.7c0,0-1.2,3.1-1.6,3.8
	c-0.3,0.6-2.1,4-2.1,4l0.5,0.4h9.1c0,0,13.3-27.8,14.5-28.3c1.2-0.5,2.2-0.1,2.3,1.6s4.3,10.5,16,1.3s20.2-26.8,20.4-34.2v-0.8
	c0,0,1.7,0,4.5-1.4c2.8-1.4,4.2-1.4,3.7,0.5c-0.5,1.9-1.7,3.3-2.3,4.5c-0.6,1.3-4.6,11.2-5.2,12s-1.4,0.6-1.8,3.7
	c-0.4,3-5.1,17.3,9.4,16.8c0,0,14.8-2.1,26.4-27.6c0,0,1.6-3.4,2.2-5.1c0,0,8.8-1,10.8-4.3c0,0,3.9,2.5,6.6,2.5c0,0-1.8,1.6-4.3,2.5
	s-12.5,5.7-16.7,19.5c0,0-0.5,7,6.7,9c7.2,2,15.7-7.4,15.7-7.4s5.2-5.4,5.7-4.6c0.4,0.8-0.1,8.5,4.4,8.3c4.5-0.2,8-0.6,12.3-9.4
	c0,0,1.5-3.3,2.8,0.1c1.4,3.4,3.5,5.7,6.8,4.6c3.4-1,5-4.6,6.8-7.2s2.4-3.4,4.2-1c1.8,2.3,3,3.7,5.6,3.7c2.5,0,4.6-2.8,5.7-5.2
	c1-2.4,2.1-3.9,2.8-3.4c0.7,0.5,3,3.3,6,0.3c2.9-2.9,2.6-9,2.3-9.8c0,0-0.4-0.2-1.5,0.9c-1,1.2-4,4.9-5,2.5c0,0,1.7-2.5,2.1-4.5
	c0.4-2,1.2-16.4,0.8-23.7c0,0,0.5-8.6,1.6-9.6s-0.6-1.9-0.6-1.9l-4,0.5c0,0-13.1,33.2-16.8,37.1c0,0-4.7,9.8-4.6,11.2
	c0,0-0.7,2-1.5-0.7s7-21.1,7.9-23.7c0.8-2.6,15.4-48,15.6-50.6c0,0,0.1-0.8,0.8-1c0.7-0.2,0.1-0.8-1.2-0.4c-1.2,0.3-6,1.8-6,1.8
	s-14.3,39.3-14.6,42.3c0,0-3.6,9.9-5,12.5s-4.7,7.9-5.3,9.6c-0.6,1.8-5.9,10.7-6.6,11.1c-0.7,0.4-1.7,2-1.8,2.8c0,0-2.2,2.2-2.4-1
	c0,0,15.4-46.2,17.3-51.4c1.9-5.1,8.4-20.3,7.9-21.5c-0.5-1.2,0.9-1.4,0.9-1.4s2.2-1-6.5,0.2c0,0-16,41.7-17.3,44.6
	c-1.3,2.8-1.9,5-2.2,6.1c-0.3,1-1.8,1.8-3.1,4.8c-1.4,3-7,16.5-11.7,19.7c-4.7,3.3-7.1,4.2-7.1,4.2s0.2,0.7-1,0.8
	c-1.3,0.1-6.1-0.1-4.9-5.5c1.2-5.3,8.6-11.6,14.7-12.5l2.5-0.1l1.9-4.9c0,0-2-0.2-4.6-1c-2.6-0.7-4.4-2.2-1.3-3.7
	c3.1-1.5,16.4-7.9,13.8-16.5c0,0-1.7-4.2-10.4-0.9c-8.7,3.3-15.4,14.2-15.4,18.4c0,0-4.2,3.9-7.9,2.7c0,0-0.8-0.3-0.1-2.6
	c0.7-2.3,0.5-12.4-5.9-10.5c-6.4,1.9-8.3,2.8-8.3,2.8s-2.6,0.4-0.8-2.1s16.5-12,21.2-17.6c4.7-5.7,12.4-14.2,9.8-20.9
	c0,0-2.5-2.7-6.4-0.2c-3.9,2.5-9.3,6.9-13.1,12c-3.8,5-18,25.2-18.7,26.2c-0.6,1-2.7,4.7-4.2,5.9s-8.6,4.9-10.5,4.8
	s-1.6,0.2-1.6-1.9s-2-8.2-8.1-7.1c0,0-8.2,3.3-10.2,6c0,0-2.1,0.7-0.4-2.6c1.7-3.4,6-9.8,6-9.8l-11.3-0.1c0,0-1.7,3.7-7.8,14.4
	c-6.1,10.7-19.3,31.8-22.7,32.2c-3.4,0.4,0.1-5.3,1.2-7.1c1-1.8,15.6-25,9-29c0,0-3.9-3.6-8-2.4c-4.1,1.2-9.9,7.1-9.9,7.1
	s-0.2-7.6-3.3-8.3c-3-0.7-8.9,0.5-13.6,6.1c0,0-2.3,2.5-2.2-0.9l3.4-5.3l-9.5-0.5c0,0-11.3,23.3-18.9,31.3c0,0-3.4,5.5-6.6,3.6
	c-3.3-1.9,4.1-15.7,4.1-15.7l9-20.3l-10.3-0.9C224.3,332.7,223.5,336.1,222.1,335.9z"/>
<g>
	<g>
		<g>
			<path fill="#E08C11" d="M204.3,364.2c0.9-1.3,0-2.4,3.7-11.2s7.7-9.5,8.7-9.2s0,1.9,0,1.9l1.4-0.2c1.2-2,2.7-4.5,3-5.5
				c0.6-1.8-0.8-3.5-0.8-3.5c-5.2-4.7-7.6,1.9-9.4,3.5s-5.3,7.8-7.6,13.1c-2.4,5.3-1.9,12-1.9,12s0.4,0.5,1,0.8
				C203.1,365.4,203.8,364.8,204.3,364.2z"/>
		</g>
		<g>
			<path fill="#E08C11" d="M204.7,365.7c0.6-0.2,1.9-1.1,2.4-1.5s1.6-1.2,1.7-2.3c0.2-1.1,7.4-13.4,7.4-13.4s0.9-1.4,1.9-3l-1.4,0.2
				c0,0,0.9-1.6,0-1.9s-5,0.4-8.7,9.2s-2.8,10-3.7,11.2c-0.4,0.6-1.2,1.2-1.9,1.7c0.4,0.2,0.8,0.4,1.2,0.4
				C204.7,366.3,204.7,365.7,204.7,365.7z"/>
		</g>
	</g>
</g>
<path fill="#E0DBD1" d="M454.5,287.6c0,0-3-1.7-3.5,1.6c-0.4,3.3,0.3,8.7,0,9.8c-0.3,1-0.9,2.9-0.9,3.2s-0.7,2.1-1,2.1
	c0,0,4.4-3,5-6c0.6-2.9,1.9-6.7,0.4-8.4C453,288.1,454.5,287.6,454.5,287.6z"/>
<path fill="#E08C11" d="M319.4,347.9l-12,13.3l-5.5,16.7c0,0,1,2.4,5.5-1.4c4.5-3.9,16-21.2,13.3-29.1L319.4,347.9z"/>
<path fill="#3D3C3E" d="M320.8,349.9c0,0-0.9,1.7-2.8,0.6c0,0-10.5,14.6-13,23.8c0,0-0.9,3.4-1.3,3.9c-0.4,0.5-2.7,2.3-3.5,0
	c-0.9-2.3,0.5-8.7,2.3-12.4c1.8-3.7,9.4-22.3,16.5-22.1C319.1,343.7,322.7,345,320.8,349.9z"/>
<path fill="#E08C11" d="M364.6,345.8c0,0-5.1,19.3-16.2,26.9l-2.8,0.7l2.5-10.1l2.1-6.8l5.3-8.3l3.6-3.9l3.1-1L364.6,345.8z"/>
<path fill="#3D3C3E" d="M364.6,345.8c0,0-1,1.4-2.1,0c-1.1-1.4-0.9-0.9-2.9,0.6c-2,1.5-14.5,19.8-11.2,26.3c0,0-2.7,3.9-5,0.9
	s3.6-19.2,10.3-28.7c6.7-9.5,9.4-4.7,10.9-2.8C364.6,342.2,365,344.9,364.6,345.8z"/>
<path fill="#3D3C3E" d="M390.3,340.4c0,0-0.5-3.8,2.3-6.9c2.8-3,5.2-5.9,7.1-3.4c0,0,1.4,1.3-1.3,3.9c-2.7,2.6-5.3,5.2-5.8,5.9
	C392,340.7,390.5,341.6,390.3,340.4z"/>
<path fill="#E08C11" d="M445.4,336.4l-7.8,18.1c0,0,2.3,0.8,3.6,0c1.3-0.8,6.4-7.2,6.2-14.8C447.5,339.7,447.3,336.1,445.4,336.4z"
	/>
<path fill="#3D3C3E" d="M445.7,329.7c0,0-0.6-0.4-1.3,2.1c-0.7,2.5-3.5,11.3-4.7,13.8c-1.2,2.4-4.1,8.5-5,8.9s0.2,1.5,1.3,0.9
	c1-0.6,1.9-0.9,1.9-0.9s4.8-6.1,6.1-11.2c1.3-5.1,2.6-7.1,2.6-7.1S447.2,330.3,445.7,329.7z"/>
<path fill="#E08C11" d="M364,325c0,0,5.9-3.7,13.1-12.3c7.2-8.6,6.7-11.7,5.3-12.2c-1.3-0.5-11.4,13.5-11.4,13.5l-7.1,9.3V325z"/>
<path fill="#3D3C3E" d="M383,301.9c0,0,1.5-1.9,0-2.7c-1.5-0.8-3.6-0.2-7.7,4c-4.1,4.2-14.3,20.7-13.7,22.6c0,0,1,0.4,2.4-0.8
	s1.3-1.2,1.3-1.2s12-16.4,13.3-17.7C379.9,304.9,381.5,302.2,383,301.9z"/>
<path fill="#FFFFFF" d="M143.3,242.5c0,0,4.1,3.3,5,4c0.9,0.6,3.5,3.1,4.9,3.9c1.4,0.8,28.5,18.2,76.1,23.6s105,9.8,154.3,4.4
	s88.4-27.9,88.1-33.3v-2.6v-0.8c0,0,1.4,0.1-5,4.2s-20.8,12.3-29.1,14.2c-8.3,1.9-14.2,4.4-17.6,5.3c-3.4,0.9-9.9,3.3-12.1,3.3
	c-2.2,0-5.1,1.3-6.6,1.8s-8.8,1.5-10.9,1.3c-2.1-0.2-5.9,0.2-7.8,0.8c-1.9,0.6-21.9,2.9-28.9,2.7s-68.1,1.2-89-1
	c-20.9-2.2-81.9-11.8-95.3-19.7c-13.4-7.9-26-16.2-26.1-18.4V242.5z"/>
<path id="SVGID_x5F_1_x5F_" fill="none" d="M321.2,499.9c25.3,9.2,47.2,13.8,63.3,16.3c65.8,10.3,117.1-1.7,133.8-6.1
	c17.8-4.7,32.1-10.2,41.9-14.3"/>
<text><textPath  xlink:href="#SVGID_x5F_1_x5F_" startOffset="26.823%">
</textPath>
</text>
<path id="SVGID_x5F_2_x5F_" fill="none" d="M180.1,624.9c4.4,4,11,9.6,19.8,14.8c14.2,8.5,30.3,14.2,63.9,17.1
	c24.5,2.1,45.3,3.5,77.5-0.7c31.1-4,80.3-14.4,139-44.6"/>
<text><textPath  xlink:href="#SVGID_x5F_2_x5F_" startOffset="26.5138%">
<tspan  fill="#FFFFFF" stroke="#F5B431" stroke-miterlimit="10" font-family="'MGungHeulim'" font-size="74.8155px">번데기</tspan></textPath>
</text>
<rect x="450.3" y="578.8" transform="matrix(7.976035e-02 -0.9968 0.9968 7.976035e-02 -156.5822 1004.5156)" fill="none" width="30.9" height="16.5"/>
<path fill="#F5B431" d="M378.2,631.3"/>
<g>
	<g>
		<path fill="#77583F" d="M303.5,501.8c2.5,3.6,5.5,6.6,9.1,9.1c2.6,1.9,5.1-2.5,2.5-4.3c-2.8-2-5.3-4.4-7.3-7.3
			C306,496.7,301.7,499.2,303.5,501.8L303.5,501.8z"/>
	</g>
</g>
<g>
	<g>
		<path fill="#CC7B11" d="M264.6,487.5c1.3,1.5,3.3,2.3,5.3,2.3c1.3,0,2.6-1.1,2.5-2.5c-0.1-1.4-1.1-2.5-2.5-2.5c-0.1,0-0.3,0-0.4,0
			c0.3,0,0.3,0,0,0c-0.1,0-0.8-0.3-0.5-0.2c0.2,0.1-0.4-0.3-0.5-0.3c0.4,0.3-0.2-0.3-0.3-0.4c-0.9-1-2.7-1-3.5,0
			C263.7,485,263.7,486.5,264.6,487.5L264.6,487.5z"/>
	</g>
</g>
<g>
	<g>
		<path fill="#CC7B11" d="M269.2,485.9c0.5-0.2,0.2-0.1,0.3-0.9c0-0.1,0.2-1.3,0.8-0.9c-2.3-1.7-5,2-3,3.9c1.9,1.8,4.5,3,7.2,2.3
			c2.3-0.6,4.2-2.7,4.3-5.2c0.3-5.5-5.9-6.1-9.9-5.1c-3.1,0.7-1.8,5.6,1.3,4.8c0.6-0.2,3.1-0.8,3.6,0c0,0-0.3,0.6-0.7,0.7
			c-0.8,0.3-1.8-0.5-2.3-1c-1,1.3-2,2.6-3,3.9c2.7,2,6.5-0.3,6.4-3.5c0-1.6-1-3-2.4-3.7c-1.7-0.9-3.5-0.4-5.1,0.3
			c-1.3,0.5-1.5,2.4-0.9,3.4C266.5,486.3,268,486.4,269.2,485.9L269.2,485.9z"/>
	</g>
</g>
<g>
	<g>
		<path fill="#CC7B11" d="M271.9,494.3c3.8,1.8,8.9,3.5,13.2,2.6c3.6-0.8,4.5-4.6,1.8-7c-2.9-2.6-7.5-3.8-11.3-3.6
			c-1.7,0.1-3.5,0.4-4.4,1.9c-0.9,1.4-0.6,3.3,0.7,4.3c2.5,2,6.1-1.5,3.5-3.5c-1.1,1.8-1.2,2.6-0.1,2.3c0.4-0.1,0.8-0.1,1.2-0.1
			c0.8,0,1.5,0.1,2.3,0.2c0.7,0.1,1.4,0.3,2,0.6c0.1,0,2.3,1.3,2.4,1.3c0.2-0.4,0.5-0.8,0.7-1.3c-0.5,0-0.9,0-1.4,0
			c-0.9,0-1.7-0.1-2.5-0.3c-1.9-0.3-3.8-0.9-5.5-1.8C271.5,488.6,269,492.9,271.9,494.3L271.9,494.3z"/>
	</g>
</g>
<g>
	<g>
		<path fill="#CC7B11" d="M301.2,491.3c-2.4-0.7-4.5-2-6.2-3.9c-0.3-0.3-1.9-2.4-1.6-2.8c0.7-0.8,2.9,1,3.3,1.4
			c0.6,0.6,4.6,4.4,2.3,4.4c-2.4,0.1-1.9-3.9-1.6-5.3c-1.6-0.4-3.2-0.9-4.8-1.3c-0.6,3.3,0.5,6,3.2,8.1c2.5,2,5-2.4,2.5-4.3
			c-0.7-0.5-1.1-1.6-0.9-2.5c0.5-3.1-4.1-4.5-4.8-1.3c-1.1,5,0.5,11.9,6.9,11.6c2.6-0.1,4.7-1.9,5.2-4.5c0.5-2.9-1.4-5.5-3.4-7.4
			c-2-2-4.5-3.9-7.5-3.9c-2.7,0-5.6,2-5.7,4.9c0,2.8,2.2,5.7,4.1,7.6c2.1,2,4.7,3.4,7.5,4.2C303,496.9,304.3,492.1,301.2,491.3
			L301.2,491.3z"/>
	</g>
</g>
<g>
	<g>
		<path fill="#CC7B11" d="M288.9,477.9c-4.4,0.3-8.7,0.3-13.1,0.2c0.6,1.4,1.2,2.8,1.8,4.3c4.3-3.8,10.3-3.4,15.7-2.9
			c0.7,0.1,4.5,0.5,2.3-0.3c-1.2-0.4-3.1,0-4.4,0c-3.5,0-7,0-10.5,0c-3.2,0-3.2,5,0,5c3.5,0,7,0,10.5,0c2.3,0,5.3,0.6,7.5-0.4
			c2.9-1.3,3.3-5.1,1-7.3c-2.9-2.8-9.6-2.4-13.2-2.3c-4.7,0.2-8.9,1.5-12.4,4.6c-1.7,1.5-0.3,4.2,1.8,4.3c4.4,0.1,8.8,0,13.1-0.2
			C292.1,482.7,292.1,477.7,288.9,477.9L288.9,477.9z"/>
	</g>
</g>
<g>
	<g>
		<path fill="#CC7B11" d="M289.2,501.3c1.6,3.1,3.5,6.1,5.7,8.8c1.8,2.2,4.5,6,7.4,6.7c2.6,0.6,4.3-1.5,5-3.7
			c1.1-3.2,0.3-6.6-1.4-9.3c-2.6-4.3-8.2-11.1-13.9-8.1c-7.1,3.6,0,11.6,4.5,13.6c1.9,0.8,4.3-0.5,3.7-2.8c-0.3-1-0.6-2.1-0.8-3.1
			c-1.2,0.9-2.4,1.9-3.7,2.8c1,0.4,1.6,1.1,1.6,2.1c1.6-0.4,3.2-0.9,4.8-1.3c-0.8-2.6-1.9-4.9-3.5-7.2c-1.8-2.6-6.2-0.1-4.3,2.5
			c1.3,1.9,2.3,3.8,3,6c1,3.1,5.4,1.8,4.8-1.3c-0.5-2.3-1.8-4-3.9-5.1c-1.9-1-4.3,0.6-3.7,2.8c0.3,1,0.6,2.1,0.8,3.1
			c1.2-0.9,2.4-1.9,3.7-2.8c-1.4-0.6-3.6-1.6-4.3-3.1c-1.7-3.6,2.6-0.5,3.6,0.5c1.1,1.2,2.3,2.5,3.2,4c0.7,1.2,2.4,5.1,0.4,6
			c0.6-0.1,1.3-0.2,1.9-0.3c-2.1-0.4-4.8-4.5-6-6.1c-1.7-2.2-3.2-4.6-4.4-7.2C292.1,495.9,287.8,498.5,289.2,501.3L289.2,501.3z"/>
	</g>
</g>
<g>
	<g>
		<path fill="#CC7B11" d="M275,504.7c1,7.3,4,13.7,9.2,19c1.6,1.5,4.2,0.4,4.3-1.8c0.1-7.8,1.2-21.2-8.8-23.4
			c-1.1-0.3-2.2,0.2-2.8,1.1c-2.3,3.6-1.9,9.7-0.8,13.7c1.1,3.8,3.7,6.6,7.5,7.9c1.2,0.4,2.8-0.5,3.1-1.7c1-4.6,1.5-13.1-3.6-15.7
			c-3.8-1.9-8,2.2-5.7,5.9c1.7,2.7,6,0.2,4.3-2.5c-0.1-0.1,0.6,5.9,0.6,6c0.1,1.7-0.1,3.3-0.4,5c1-0.6,2.1-1.2,3.1-1.7
			c-4.6-1.5-6.1-10.3-3.7-14.2c-0.9,0.4-1.9,0.8-2.8,1.1c6.7,1.5,5.2,13.5,5.1,18.6c1.4-0.6,2.8-1.2,4.3-1.8
			c-4.3-4.2-7-9.5-7.8-15.4C279.6,501.5,274.6,501.5,275,504.7L275,504.7z"/>
	</g>
</g>
<g>
	<g>
		<path fill="#CC7B11" d="M283.7,515.6c1.8,4.9,4,17.4,11.7,15.9c7.8-1.6,4.4-14.7,2-19.2c-2.8-5.5-14.3-2.7-17.6,1.1
			c-1.8,2.1-2,5.6,0.2,7.5c1.2,1,2.6,1.2,4.1,1.4c2.5,0.3,3.6,1.3,4.8,3.5c1.2,2,4.9,1.3,4.7-1.3c-0.4-3.5-0.8-7-1.1-10.6
			c-0.2-2.2-3.4-3.7-4.7-1.3c-1.1,2.2-1.2,4.2-0.4,6.5c0.9,2.5,3.3,4.6,3.3,7.4c0,3.2,5,3.2,5,0c0-1.8-0.4-3.4-1.2-4.9
			c-0.9-1.7-3.4-4.3-2.3-6.4c-1.6-0.4-3.1-0.8-4.7-1.3c0.4,3.5,0.8,7,1.1,10.6c1.6-0.4,3.1-0.8,4.7-1.3c-1.6-2.7-3.5-5-6.7-5.7
			c-0.6-0.1-1.6,0.1-2-0.2c-1.1-0.8-0.2-1.2,0.7-1.7c1.5-0.9,4.9-1.6,6.5-1.2c1.9,0.4,2.2,3.1,2.6,4.8c0.3,1,1.9,7.7-0.8,7.1
			c-1.3-0.3-2.3-4.3-2.6-5.4c-0.8-2.2-1.6-4.5-2.4-6.7C287.4,511.2,282.6,512.5,283.7,515.6L283.7,515.6z"/>
	</g>
</g>
<g>
	<g>
		<path fill="#CC7B11" d="M292,516.9c0,2.4,0,4.8,0,7.1c0,3.2,5,3.2,5,0c0-2.4,0-4.8,0-7.1C297,513.7,292,513.7,292,516.9L292,516.9
			z"/>
	</g>
</g>
<g>
	<g>
		<path fill="#CC7B11" d="M299.3,512.9c0.5,0.3,1,0.7,1.5,1c1.1,0.7,2.8,0.3,3.4-0.9c0.7-1.3,0.3-2.7-0.9-3.4c-0.5-0.3-1-0.7-1.5-1
			c-1.1-0.7-2.8-0.3-3.4,0.9C297.8,510.8,298.2,512.2,299.3,512.9L299.3,512.9z"/>
	</g>
</g>
<g>
	<g>
		<path fill="#CC7B11" d="M305.5,493.3c-1.1,7.5,0.6,14.8,5.2,20.9c1.2,1.6,3.1,1.6,4.3,0c4.2-5.5,7.8-23.5-2.1-25.8
			c-4.6-1.1-6.8,5.4-7.5,8.8c-1,4.7,1,8.9,5.3,10.7c0.9,0.4,2.4-0.2,2.8-1.1c1.7-3.8,2.4-7.6,2.1-11.8c-0.3-3.2-5.3-3.2-5,0
			c0.3,3.3-0.1,6.2-1.4,9.3c0.9-0.4,1.9-0.8,2.8-1.1c-2.9-1.2-2.2-7.3-0.1-9c0.2-0.8,0.4-0.9,0.4-0.4c0.4,0.6,0.8,1.2,1.1,1.8
			c0.5,1.1,0.5,2.4,0.6,3.5c0.2,4.4-0.6,9.1-3.3,12.6c1.4,0,2.9,0,4.3,0c-3.8-4.9-5.6-10.8-4.7-17
			C310.7,491.5,305.9,490.1,305.5,493.3L305.5,493.3z"/>
	</g>
</g>
<g>
	<g>
		<path fill="#CC7B11" d="M313.5,476.5c2.9,3,6.1,5.8,9.6,8.2c2.4,1.7,6.2,5.2,9.4,3.7c6.2-2.8-0.6-15.1-3.5-18.2
			c-4.6-4.9-13.3-5.7-16.6,1.1c-1.2,2.5-1,5.9,1.2,7.8c2.7,2.4,8,1.5,11.3,1.5c1.8,0,3.2-2.2,2.2-3.8c-1.9-2.8-4.3-5-7.4-6.5
			c-0.2,1.5-0.4,3-0.6,4.6c1.7-0.5,2.8-1.1,4.3,0c1.7,1.2,1.7,3.2,1.8,5.1c0.2,3.2,5.2,3.2,5,0c-0.2-3.3-0.7-7.6-3.6-9.7
			c-2.6-1.8-6-1.1-8.8-0.2c-1.9,0.6-2.6,3.6-0.6,4.6c2.3,1.1,4.1,2.6,5.6,4.7c0.7-1.3,1.4-2.5,2.2-3.8c-1.9,0-4.6,0.4-6.5-0.1
			c-2.4-0.7-1.7-2.8,0.5-3.9c4.5-2.1,8.1,3.5,9.4,7c0.3,0.8,0.5,1.5,0.8,2.3c0.2,0.6,0.3,1.2,0.5,1.7c0,0.5,0.2,0.7,0.6,0.7
			c0.6,0.2,0.6,0.2-0.1-0.2c-0.5-0.3-1-0.6-1.5-0.9c-0.7-0.4-1.3-0.9-2-1.3c-3.5-2.4-6.6-5.1-9.5-8.1
			C314.8,470.7,311.2,474.2,313.5,476.5L313.5,476.5z"/>
	</g>
</g>
<g>
	<g>
		<path fill="#CC7B11" d="M327.3,517.4c-0.6,4.9,0.6,21.2,9.4,18c7.7-2.8,6-18.4,4.8-24.3c-0.6-3.2-1.8-6.9-5.8-6.3
			c-3.4,0.4-4.7,3.7-5.3,6.6c-1,4.9-1.2,10.3-0.7,15.3c0.3,2.8,1.1,5.4,4.1,6.1c1.7,0.4,3-0.8,3.2-2.4c0.7-6.2,0.9-12.4,0.7-18.6
			c-0.1-3.2-5.1-3.2-5,0c0.3,6.2,0,12.4-0.7,18.6c1.1-0.8,2.1-1.6,3.2-2.4c-1.2-0.3-0.6-9.7-0.5-10.8c0.1-1.4-0.3-5.8,1.9-5.6
			c0.5,0,0.8,5.8,0.8,6.5c0.1,2.8,0.6,10.2-1.7,12c-3.1,2.3-3.5-11.4-3.4-12.5C332.7,514.2,327.7,514.3,327.3,517.4L327.3,517.4z"/>
	</g>
</g>
<path fill="none" stroke="#000000" stroke-miterlimit="10" d="M320.6,469.5c0.5,3.6,0.1,7.4-1.2,10.8"/>
<path fill="none" stroke="#000000" stroke-miterlimit="10" d="M333.8,512.8c1.8,0.9,3.7,1.8,5.5,2.8"/>
<path fill="none" stroke="#000000" stroke-miterlimit="10" d="M330.7,525.7c1.7,0.8,3.4,1.6,5.2,2.4"/>
<path fill="none" stroke="#000000" stroke-miterlimit="10" d="M268.8,483.1c0.2-0.8,1.5,0,1.2,0.7c-0.3,0.7-1.3,0.9-2,0.9"/>
<path fill="none" stroke="#000000" stroke-miterlimit="10" d="M281.2,477.7c0.3,0.8,0.8,1.4,1.2,2.2s0.6,1.6,0.3,2.4
	c-0.1,0.1-0.2,0-0.2-0.1"/>
<path fill="none" stroke="#000000" stroke-miterlimit="10" d="M289.6,476.3c0.2-0.2,0.5,0.1,0.6,0.4c0.6,1.3,1,2.8,1,4.2"/>
<path fill="none" stroke="#000000" stroke-miterlimit="10" d="M291.9,486.3c1.7-0.8,3.4-1.7,5-2.8"/>
<path fill="none" stroke="#000000" stroke-miterlimit="10" d="M294.8,490.7c1.1,0.3,2.2-0.3,3.1-1.1c0.4-0.4,0.7-0.8,1.2-0.9"/>
<path fill="none" stroke="#000000" stroke-miterlimit="10" d="M309.3,495.8c1.1,1.1,2.4,2.2,3.9,2.2"/>
<path fill="none" stroke="#000000" stroke-miterlimit="10" d="M310.2,502.2c0.6,1.6,1.6,3,2.8,4.1c0.3,0.3,0.6,0.5,1,0.5"/>
<path fill="none" stroke="#000000" stroke-miterlimit="10" d="M296.8,504.4c1.2-1.5,1.9-3.4,1.9-5.3"/>
<path fill="none" stroke="#000000" stroke-miterlimit="10" d="M299.3,510.8c1.1-0.8,1.7-2,2.1-3.2c0.4-1.3,0.4-2.6,0.4-3.9"/>
<path fill="none" stroke="#000000" stroke-miterlimit="10" d="M279.9,504.7c0.8,1.7,1.6,3.4,2.4,5"/>
<path fill="none" stroke="#000000" stroke-miterlimit="10" d="M280.3,509.4c0.3,0.5,0.5,1,0.7,1.6c0.6,1.6,1.4,3,2.6,4.2"/>
<path fill="none" stroke="#000000" stroke-miterlimit="10" d="M288.1,513.1c1.4,1.6,3.8,2.3,5.9,1.8"/>
<path fill="none" stroke="#000000" stroke-miterlimit="10" d="M289.5,520.5c2,0.6,4,1.2,6.1,1.3c0.4,0,0.7,0,1-0.2
	c0.4-0.3,0.5-1,1-1.1"/>
<path fill="none" stroke="#000000" stroke-miterlimit="10" d="M277.7,487.8c1.3,1.5,2.4,3.2,3.2,5c0.3,0.6,0.5,1.3,0.5,2"/>
<path fill="none" stroke="#000000" stroke-miterlimit="10" d="M328.4,476c0.1,3.2,0.5,6.4,1.1,9.5"/>
<g>
	<g>
		<path fill="#8F6726" d="M161.9,571.8c1.7-2,3.5-3.9,5.4-5.6c1-0.9,2.1-1.8,3.1-2.6c0.6-0.4,1.1-0.8,1.7-1.2c1-0.6,1.2-0.7,0.4-0.4
			c-0.6-0.2-1.2-0.5-1.8-0.7c-0.6-0.6-0.1-0.1,0,0.6c0.2,0.9,0.4,1.7,0.7,2.5c0.4,1.5,0.8,3.1,1.2,4.6c0.8,3.1,5.6,1.8,4.8-1.3
			c-0.7-2.7-1.2-5.7-2.2-8.3c-0.7-1.8-2.2-2.7-4.1-2.1c-2.2,0.8-4.4,2.9-6.2,4.4c-2.4,2-4.6,4.2-6.6,6.6
			C156.3,570.7,159.9,574.3,161.9,571.8L161.9,571.8z"/>
	</g>
</g>
<g>
	<g>
		<path fill="#8F6726" d="M166.9,582.3c7.6-6,15.2-12,22.8-18c2.5-2-1-5.5-3.5-3.5c-7.6,6-15.2,12-22.8,18
			C160.9,580.7,164.4,584.2,166.9,582.3L166.9,582.3z"/>
	</g>
</g>
<g>
	<g>
		<path fill="#8F6726" d="M174.9,572.3c0,2.2,0,4.3,0,6.5c0,3.2,5,3.2,5,0c0-2.2,0-4.3,0-6.5C179.9,569.1,174.9,569.1,174.9,572.3
			L174.9,572.3z"/>
	</g>
</g>
<g>
	<g>
		<path fill="#8F6726" d="M176.3,587.7c1-1.5,2.2-2.9,3.5-4.1c0.6-0.6,1.3-1.1,2-1.6c0.4-0.3,0.8-0.5,1.2-0.8c0.8-0.4,0.8-0.5,0-0.1
			c-0.6-0.2-1.2-0.5-1.8-0.7c-0.3-0.6-0.3-0.6-0.2,0c0.1,0.4,0.2,0.8,0.2,1.2c0.2,0.8,0.3,1.6,0.5,2.5c0.3,1.6,0.6,3.3,1,4.9
			c0.6,3.2,5.4,1.8,4.8-1.3c-0.5-2.7-1-5.5-1.6-8.2c-0.4-2-1.6-3.8-4-3.3c-1.9,0.5-3.8,2.2-5.3,3.4c-1.9,1.6-3.5,3.5-4.9,5.6
			C170.2,587.9,174.5,590.4,176.3,587.7L176.3,587.7z"/>
	</g>
</g>
<g>
	<g>
		<path fill="#8F6726" d="M197.3,553.3c-1,6.4-1.8,12.9-2.2,19.4c-0.2,3.2,4.8,3.2,5,0c0.4-6,1.1-12,2.1-18
			C202.6,551.5,197.8,550.1,197.3,553.3L197.3,553.3z"/>
	</g>
</g>
<g>
	<g>
		<path fill="#8F6726" d="M196.9,566.3c2.3,1.4,4.8,2.2,7.4,2.4c1.3,0.1,2.5-1.2,2.5-2.5c0-1.5-1.1-2.4-2.5-2.5
			c-1.8-0.2-3.4-0.8-4.9-1.7C196.7,560.3,194.2,564.6,196.9,566.3L196.9,566.3z"/>
	</g>
</g>
<g>
	<g>
		<path fill="#8F6726" d="M203.1,547.8c0.8,3.9,3.4,7.3,5.3,10.7c2.4,4.1,4.7,8.2,7.1,12.3c1.6,2.8,5.9,0.3,4.3-2.5
			c-2.1-3.6-4.2-7.2-6.2-10.8c-2-3.4-4.9-7.1-5.7-11C207.3,543.3,202.5,544.6,203.1,547.8L203.1,547.8z"/>
	</g>
</g>
<g>
	<g>
		<path fill="#8F6726" d="M216.2,565.3c1.2-2.1,2.6-4,4.3-5.8c2.2-2.3-1.3-5.9-3.5-3.5c-2,2.1-3.7,4.3-5.1,6.8
			C210.3,565.6,214.6,568.1,216.2,565.3L216.2,565.3z"/>
	</g>
</g>
<g>
	<g>
		<path fill="#8F6726" d="M204.9,580c1.6,2.5,3.1,6.7,6.2,7.6c3.7,1.1,6.7-3.2,9-5.4c8-7.8,16.6-14.9,25.7-21.3
			c2.6-1.8,0.1-6.2-2.5-4.3c-6.2,4.4-12.2,9-17.9,14c-2.8,2.4-5.5,4.9-8.1,7.5c-0.8,0.8-2.8,3.6-3.9,3.9c-0.9,1.1-1.6,0.8-1.9-1
			c-0.7-1.1-1.4-2.3-2.1-3.4C207.5,574.8,203.2,577.3,204.9,580L204.9,580z"/>
	</g>
</g>
<g>
	<g>
		<g>
			<path opacity="0.1091" fill="#F5B431" d="M224.1,632.6c0.5,0.7,1,1.4,1.4,2.1c-0.1-0.3-0.2-0.6-0.4-0.9c0.2,0.8,0.3,1.5,0.5,2.3
				c0.3,1.6,1.5,1.6,2.1,0.3c0.4-1.4,0.7-2.9,0.8-4.4c0.2-1.5,0.3-3,0.2-4.5c-0.9-2.7-1-3.2-2.7-5.5c-1.3-1.9-2.1,2.5-2.1,2.6
				c-0.2,1.8-0.3,3.5-0.4,5.3C223.4,630.8,223.6,631.8,224.1,632.6z"/>
			<path opacity="0.1091" fill="#F5B431" d="M219,628.1c0.5,0.7,1,1.4,1.4,2.1c-0.2-0.4-0.4-0.7-0.6-1.1c0.2,0.8,0.4,1.6,0.5,2.3
				c0.1,0.8,0.5,1.3,1.2,1.4c0.7-0.3,1-0.8,1-1.6c0.1-1.9,0.1-3.8-0.1-5.7c-0.1-1.9-0.3-3.8-0.7-5.7c-1.1-2.4-1.5-3.2-3.2-5.3
				c-0.5-0.4-0.9-0.4-1.3,0.2c-0.4,1.1-0.5,2.3-0.2,3.5c0.2,2.2,0.4,4.4,0.8,6.5C218,626,218.3,627.2,219,628.1z"/>
			<path opacity="0.1091" fill="#F5B431" d="M219.5,625.3c0.5,0.9,1,1.9,1.4,2.8c0.2,0.8,1.2,1,1.9,0.7c0.8-0.3,0.8-1.5,0.6-2.2
				c-0.6-2.1-0.5-1.8-2-3.5c-0.4-0.4-1.8-0.2-2.1,0.2C218.8,623.8,219.1,624.8,219.5,625.3z"/>
			<path opacity="0.1091" fill="#F5B431" d="M224,625.6c0.5,0.7,1,1.4,1.5,2.1c-0.1-0.4-0.2-0.9-0.4-1.3c0.3,1.2,0.6,2.4,0.9,3.6
				c0.4,0.6,0.8,0.6,1.3,0.1c0.7-1.2,1-2.4,1-3.8c0.3-2.5,0.6-5,0.7-7.5c0.2-1.4,0.1-2.7-0.3-3.9c-0.6-1.7-1.4-3.2-2.7-4.6
				c-1.7-2.2-2.1,3.9-2.1,3.8c-0.2,2.5-0.3,5-0.4,7.5C223.3,623,223.5,624.3,224,625.6z"/>
			<path opacity="0.1091" fill="#F5B431" d="M223.5,624.6c0.6,0.9,1.1,1.9,1.7,2.8c0.2,0.8,1.2,1.3,2.1,0.8c0.8-0.4,0.8-1.7,0.5-2.5
				c-0.6-1.8-0.5-1.6-2-3.1C224.5,621.4,222.3,623.2,223.5,624.6z"/>
			<path opacity="0.1091" fill="#F5B431" d="M215.6,628.1c0.4,0.6,0.9,1.2,1.3,1.8c-0.2-0.7-0.5-1.3-0.7-2c0.3,1,0.5,2.1,0.8,3.1
				c0.2,0.9,1.2,1.8,2.1,1c1-0.8,0.3-3,0-4c-0.7-2.3-0.8-2.5-2.3-4.4c-0.6-0.7-1.8-0.2-2.1,0.5C214.3,625.2,215,627.3,215.6,628.1z"
				/>
			<path opacity="0.1091" fill="#F5B431" d="M220.2,633c0.6,0.9,1.3,1.9,1.9,2.8c-0.3-0.8-0.5-1.5-0.8-2.3c0.3,1.3,0.5,2.5,0.8,3.8
				c0.3,1.5,1.7,1,2.1,0c0.2-1.3,0.3-2.6,0.2-3.9c0-1.3-0.1-2.6-0.4-3.9c-0.9-2.6-1.1-2.7-2.8-4.9c-0.4-0.3-0.9-0.3-1.3,0.1
				c-0.4,0.5-0.5,1-0.4,1.6c-0.1,1-0.1,2,0.1,3C219.6,630.5,219.8,631.7,220.2,633z"/>
			<path opacity="0.1091" fill="#F5B431" d="M227.1,626.2c0.5,1.1,1.1,2.2,1.6,3.4c0.3,1.3,1.3,1.7,2.1,0.4c0.5-1.2,0.8-2.5,1-3.8
				c0.3-1.3,0.5-2.6,0.5-3.9c-0.9-2.7-0.9-3.1-2.5-5.5c-1.2-1.8-2.2,1.8-2.3,2.2c-0.3,1.6-0.6,3.1-0.7,4.7
				C226.6,624.6,226.7,625.4,227.1,626.2z"/>
			<path opacity="0.1091" fill="#F5B431" d="M217.3,625c0.5,1,1,1.9,1.5,2.9c0.2,1,1.3,2.3,2.2,1c0.9-1.2,0.2-3.8-0.2-5.1
				c-0.6-1.7-0.8-2.2-2.1-3.8c-0.6-0.8-1.8-0.5-2.1,0.3C216.2,621.4,216.6,624.1,217.3,625z"/>
			<path opacity="0.1091" fill="#F5B431" d="M221.8,622.2c0.5,1.3,1,2.7,1.5,4c0.3,1.5,1.6,1.2,2.1,0.1c0.3-1.3,0.4-2.6,0.4-3.9
				c0.1-1.3,0-2.6-0.1-3.9c-1-2.9-1.3-3.3-2.9-5.9c-0.4-0.3-0.8-0.3-1.3,0c-0.5,0.7-0.7,1.5-0.6,2.5
				C220.9,617.2,220.6,620.3,221.8,622.2z"/>
			<path opacity="0.1091" fill="#F5B431" d="M226.4,629.4c0.5,0.7,1,1.4,1.4,2.1c-0.1-0.3-0.2-0.7-0.3-1c0.2,0.8,0.3,1.5,0.5,2.3
				c0.1,0.5,0.2,1.3,0.8,1.4c1,0.2,1.4-1.3,1.6-1.9c0.5-1.6,0.8-3.3,1.1-4.9c0.2-1.4,0.6-2.9,0.1-4.3c-0.4-1.8-1.1-3.3-2.3-4.7
				c-1.3-1.9-2.3,2.3-2.3,2.6c-0.4,1.8-0.6,3.6-0.8,5.5C225.9,627.5,226,628.5,226.4,629.4z"/>
			<path opacity="0.1091" fill="#F5B431" d="M215.9,629.5c0.5,0.7,0.9,1.3,1.4,2c-0.3-1-0.6-1.9-0.9-2.9c0.3,1.3,0.6,2.6,1,3.9
				c0.2,1,1.4,2.9,2.4,1.2c0.4-0.7,0.2-1.8,0.1-2.5c-0.2-1.4-0.4-2.6-0.9-3.9c-0.6-1.8-1-2.5-2.3-4.1c-0.7-0.9-1.8-0.6-2.1,0.5
				c0,1,0.1,2,0.4,2.9C215.1,627.7,215.5,628.6,215.9,629.5z"/>
		</g>
	</g>
</g>
<g>
	<g>
		<path fill="#FFFFFF" d="M240.9,608.7c3.7,4.6,2.2,9.8,1.2,15.1c-0.6,3.5-1.7,6.6,0.8,9.4c0-1.2,0-2.4,0-3.5
			c-1.2,0.2-2.3,0.1-3.4-0.4c-2.9-1.3-5.5,3-2.5,4.3c2.9,1.3,6.9,1.9,9.4-0.4c1.1-0.9,0.8-2.6,0-3.5c-0.9-1,0.8-6.4,1-7.7
			c0.4-1.9,0.8-3.6,0.8-5.6c0-4.7-0.9-7.6-3.8-11.2C242.4,602.7,238.9,606.2,240.9,608.7L240.9,608.7z"/>
	</g>
</g>
<g>
	<g>
		<path fill="#FFFFFF" d="M229.3,613.1c3,5.2,1.6,12.4,0.1,17.8c-0.9,3.1,4,4.4,4.8,1.3c1.9-6.8,3.1-15.3-0.6-21.7
			C232,607.8,227.7,610.3,229.3,613.1L229.3,613.1z"/>
	</g>
</g>
<g>
	<g>
		<path fill="#FFFFFF" d="M235.5,621.2c0.9,0,1.6-0.2,2.3-0.7c0.4-0.2,1-1,1.3-1c0.5-0.1,1.3,0.4,1.7,0.5c1,0.2,1.9,0.2,2.9,0
			c1.3-0.2,2.1-1.9,1.7-3.1c-0.4-1.4-1.7-1.9-3.1-1.7c-0.5,0.1-1.2-0.3-1.7-0.5c-0.8-0.2-1.6-0.3-2.3-0.2c-0.7,0.1-1.3,0.3-1.9,0.7
			c-0.6,0.4-1,1-1.7,1.3c0.4-0.1,0.8-0.2,1.3-0.3c-0.2,0-0.3,0-0.5,0C232.3,616.3,232.3,621.3,235.5,621.2L235.5,621.2z"/>
	</g>
</g>
<g>
	<g>
		<path fill="#FFFFFF" d="M237.7,621.7c1.7,0,3.5,0,5.2,0c3.2,0,3.2-5,0-5c-1.7,0-3.5,0-5.2,0C234.5,616.8,234.5,621.8,237.7,621.7
			L237.7,621.7z"/>
	</g>
</g>
<g>
	<g>
		<path fill="#FFFFFF" d="M248.6,624.4c2.9,2.9,8.1,1.5,10.6-1.4c1.5-1.7,2.2-4.5,2.8-6.6c0.8-2.9,1.2-5.8,1.1-8.8
			c-0.1-3.2-5.1-3.2-5,0c0.1,3.1-0.4,6-1.4,9c-0.4,1.1-0.6,2.5-1.6,3.3c-0.5,0.4-2.4,1.6-3,1C249.9,618.5,246.4,622.1,248.6,624.4
			L248.6,624.4z"/>
	</g>
</g>
<g>
	<g>
		<path fill="#FFFFFF" d="M255.6,603c1.2,1.4,2,3,2.3,4.8c0.3,1.3,1.8,2.1,3.1,1.7c1.4-0.4,2-1.8,1.7-3.1c-0.6-2.6-1.8-5-3.6-7
			c-0.9-1-2.6-0.9-3.5,0C254.6,600.5,254.7,602,255.6,603L255.6,603z"/>
	</g>
</g>
<g>
	<g>
		<path fill="#FFFFFF" d="M257.9,607.5c-0.4,4.2-2,10.4-6.1,12.3c-2.9,1.3-0.4,5.6,2.5,4.3c5.9-2.7,8-10.8,8.6-16.6
			C263.2,604.3,258.2,604.4,257.9,607.5L257.9,607.5z"/>
	</g>
</g>
<g>
	<g>
		<path fill="#FFFFFF" d="M255.1,625.3c0,6-4.3,11.6-4.7,17.6c-0.2,3.2,4.8,3.2,5,0c0.4-6,4.7-11.5,4.7-17.6
			C260.1,622.1,255.1,622.1,255.1,625.3L255.1,625.3z"/>
	</g>
</g>
<g>
	<g>
		<path fill="#FFFFFF" d="M253,623.1c0.2,2.5,0.4,4.9,0.7,7.4c0.1,1.3,1.1,2.5,2.5,2.5c1.2,0,2.6-1.1,2.5-2.5
			c-0.2-2.4-0.5-4.9-0.7-7.4C257.8,619.9,252.8,619.9,253,623.1L253,623.1z"/>
	</g>
</g>
<g>
	<g>
		<path fill="#FFFFFF" d="M255.8,620.3c-0.1,1-0.3,1.9-0.4,2.9c-0.1,0.7-0.1,1.6-0.5,2.3c-0.6,1.2-0.3,2.7,0.9,3.4
			c1.1,0.6,2.8,0.3,3.4-0.9c1-2,1.1-4.2,1.4-6.3c0.2-1.3-0.3-2.7-1.7-3.1C257.7,618.3,256,619,255.8,620.3L255.8,620.3z"/>
	</g>
</g>
<g>
	<g>
		<path fill="#FFFFFF" d="M237,648.5c-1.3,3.3-1.7,7.7,1,10.5c2.3,2.4,7.3,3.9,10.5,2.9c2.5-0.7,5.2-5,3-7.2c-1.3-1.3-3-0.5-4.5-0.5
			c-2.2-0.1-4.4-0.6-6.5-0.9c-3.1-0.5-4.5,4.3-1.3,4.8c3.8,0.6,7.3,1.4,11.1,0.7c-0.6-0.1-1.3-0.2-1.9-0.3c0.1,0,0.1,0.1,0.2,0.1
			c-0.4-0.5-0.8-1-1.1-1.5c-0.2-1.4,0,0-0.4,0c-0.3,0-0.9,0-1.4-0.1c-1.1-0.3-2.4-0.5-3.3-1.1c-2-1.3-1-4.3-0.3-6.1
			C243,646.8,238.2,645.5,237,648.5L237,648.5z"/>
	</g>
</g>
<g>
	<g>
		<path fill="#FFFFFF" d="M283.4,622.1c2.6,2.2,5.7,3.5,9.2,3.1c3-0.3,6.6-2.1,7.6-5.1c0.9-2.9-1.4-5.7-4.4-5.5
			c-1.5,0.1-2.7,0.9-3.8,1.9c-1.7,1.5-3.1,1.8-5.4,2.2c-3,0.6-2,4.6,0.7,4.9c3.5,0.3,6.7-0.4,9.8-1.9c-0.8-1.4-1.7-2.9-2.5-4.3
			c-1,0.6-2.4,1.8-3.6,1.9c-3.2,0.1-3.2,5.1,0,5c2.3-0.1,4.2-1.4,6.1-2.6c2.8-1.7,0.3-5.7-2.5-4.3c-2.3,1.1-4.7,1.5-7.3,1.2
			c0.2,1.6,0.4,3.3,0.7,4.9c1.5-0.3,2.9-0.5,4.3-1.1c0.7-0.3,3.1-1.5,3.3-2.4c-0.1-0.4-0.3-0.7-0.4-1.1c-0.4,0.3-0.8,0.6-1.2,0.8
			c-0.7,0.3-1.4,0.5-2.1,0.6c-1.8,0.1-3.5-0.6-4.8-1.7C284.5,616.5,281,620,283.4,622.1L283.4,622.1z"/>
	</g>
</g>
<g>
	<g>
		<path fill="#FFFFFF" d="M292.3,622.8c-2,3.4-3.3,7.7-4.3,11.5c-0.7,3-0.5,6.4,2,8.5c2.2,1.9,6.3,2.3,9.1,1.4
			c3.4-1.1,4.1-4.5,5-7.5c-1.6-0.4-3.2-0.9-4.8-1.3c-0.7,2.8-4,2.6-6.2,2.5c-3.2-0.1-3.2,4.9,0,5c4.7,0.2,9.8-1,11.1-6.2
			c0.8-3.1-3.9-4.4-4.8-1.3c-0.6,1.9-0.8,3.7-3.1,4.2c-2.7,0.5-3.8-1.7-3.3-4c0.8-3.3,2-7.4,3.8-10.3
			C298.3,622.6,293.9,620.1,292.3,622.8L292.3,622.8z"/>
	</g>
</g>
<g>
	<g>
		<path fill="#FFFFFF" d="M301.7,631c1.2,0,2.4,0,3.6,0c0.6,0,1.1,0,1.6-0.1c0.3-0.1,0.8-0.4,1.1-0.4c1.3-0.1,2.5-1.1,2.5-2.5
			c0-1.3-1.1-2.6-2.5-2.5c-1,0.1-1.8,0.5-2.8,0.5c-1.2,0-2.4,0-3.6,0C298.5,626,298.5,631,301.7,631L301.7,631z"/>
	</g>
</g>
<g>
	<g>
		<path fill="#FFFFFF" d="M308,629.7c4.9-1,4.2-6.4,4.1-10.2c-0.2-4.6-1.2-8.8-5.3-11.4c-2.7-1.7-5.2,2.6-2.5,4.3
			c2.3,1.4,2.6,4,2.8,6.4c0,0.8,0.5,5.8-0.4,6C303.5,625.6,304.9,630.4,308,629.7L308,629.7z"/>
	</g>
</g>
<g>
	<g>
		<path fill="#FFFFFF" d="M304.5,630.4c2.4-0.2,4.3-1.8,6.1-3.3c1.1-0.8,0.9-2.7,0-3.5c-1-1-2.5-0.8-3.5,0c-0.5,0.4-0.9,0.7-1.5,1.1
			c-0.2,0.2-0.5,0.3-0.8,0.5c-0.1,0.1-0.8,0.3-0.4,0.3c-1.3,0.1-2.5,1.1-2.5,2.5C302,629.2,303.2,630.5,304.5,630.4L304.5,630.4z"/>
	</g>
</g>
<g>
	<g>
		<path fill="#FFFFFF" d="M307.1,628.3c-0.2,5.5-0.2,11.2-1,16.7c-0.5,3.1,4.4,4.5,4.8,1.3c0.9-6,0.9-12,1.1-18
			C312.2,625.1,307.2,625.1,307.1,628.3L307.1,628.3z"/>
	</g>
</g>
<g>
	<g>
		<path fill="#FFFFFF" d="M308.6,599.7c6,8.8,6.1,20,6.5,30.3c0.4,11,0.1,22.1-0.2,33.1c-0.1,3.2,4.9,3.2,5,0
			c0.3-12.3,0.6-24.7,0-37c-0.5-10-1.2-20.4-7-28.9C311.1,594.5,306.7,597,308.6,599.7L308.6,599.7z"/>
	</g>
</g>
<g>
	<g>
		<path fill="#FFFFFF" d="M311,601.6c5.9,8.2,7,21.3,4.8,31c-0.7,3.1,4.1,4.5,4.8,1.3c2.6-11,1.4-25.6-5.3-34.9
			C313.5,596.5,309.1,599,311,601.6L311,601.6z"/>
	</g>
</g>
<g>
	<g>
		<path fill="#FFFFFF" d="M345.9,620c2.8-1.6,6-4,9-1c1.3,1.3,1.8,4,2.2,5.8c1.1,5.3-1.2,9.5-6.2,11.7c-2.9,1.3-0.4,5.6,2.5,4.3
			c8.6-3.7,10.6-12.3,7.6-20.5c-3.3-8.9-10.1-8.9-17.6-4.6C340.5,617.3,343.1,621.6,345.9,620L345.9,620z"/>
	</g>
</g>
<g>
	<g>
		<path fill="#FFFFFF" d="M345.6,620.5c2.9-0.2,5.9-0.7,8.8,0.3c3,1.1,4.3-3.7,1.3-4.8c-3.3-1.2-6.7-0.8-10.1-0.5
			C342.5,615.8,342.4,620.8,345.6,620.5L345.6,620.5z"/>
	</g>
</g>
<g>
	<g>
		<path fill="#FFFFFF" d="M358.2,595.2c4.6,2,8,4.1,9.7,9.1c1.7,5,3.1,10.1,4.3,15.1c1.2,4.9,2.3,9.8,3,14.7
			c0.8,5.5,2.3,13.3,0.1,18.6c1.6,0.4,3.1,0.8,4.7,1.3c0.8-9.7-1.2-19.8-3.2-29.3c-2-9.6-4.2-19.9-8.5-28.8
			c-1.4-2.9-5.7-0.4-4.3,2.5c4.1,8.4,6.1,18.5,8,27.6c1.9,9.1,3.7,18.7,3,28c-0.2,2.4,3.7,3.5,4.7,1.3c2.3-5.4,1.7-11.4,1.1-17.2
			c-0.7-6.8-2-13.4-3.7-20c-1.5-5.8-2.9-12.1-5.3-17.7c-2.1-5-6.4-7.4-11.1-9.5C357.8,589.6,355.2,593.9,358.2,595.2L358.2,595.2z"
			/>
	</g>
</g>
</svg>
